<?xml version="1.0" encoding="UTF-8"?>
<svg id="Calque_2" data-name="Calque 2" xmlns="http://www.w3.org/2000/svg" viewBox="0 0 327 279.94">
  <defs>
    <style>
      .cls-1 {
        stroke-width: 0px;
      }
    </style>
  </defs>
  <g id="Calque_1-2" data-name="Calque 1">
    <g>
      <path class="cls-1" d="M137.74.14c-.37.1-1.33.48-2.16.84-1.04.46-1.72.63-2.19.53-.37-.1-1.04-.05-1.51.1-.7.22-1.1.17-2.19-.24-1.62-.58-1.85-.6-1.85-.12s-1.54.48-2.24,0c-.65-.46-1.02-.46-1.51,0-.21.22-.94.46-1.59.58-.68.12-1.36.34-1.51.48-.34.31-1.49.36-1.49.05,0-.12-.81-.36-1.8-.51-1.64-.29-2.37-.27-5.95.17-.73.07-1.12.02-1.12-.14,0-.43-.47-.31-1.15.34-.6.53-.86.6-2.71.6-3.65,0-6.94.89-8.66,2.32-1.04.87-1.46,1.01-1.62.53-.08-.22-.31-.19-.81.12-.37.22-.97.41-1.33.41s-1.15.39-1.83.94c-1.36,1.09-2.27,1.4-4.41,1.54-1.3.1-1.62.02-2.22-.43-.6-.48-.76-.51-1.46-.24-.5.17-2.03.27-3.83.27-2.9-.02-3.05-.05-3.96-.7-.68-.46-.97-.87-.97-1.3,0-.58-.03-.6-1.2-.43-.68.07-1.36.22-1.51.27-.18.07-.76,1.09-1.3,2.29s-1.51,2.82-2.14,3.57c-1.1,1.33-1.28,1.47-4.36,2.68-2.74,1.06-3.5,1.5-4.96,2.75-1.43,1.21-1.75,1.62-1.75,2.22,0,.48-.34,1.16-.97,1.93-.83,1.01-1.02,1.42-1.15,2.87-.13,1.28-.1,1.79.18,2.08.21.19.37.53.37.72,0,.43-3.23,3.36-5.29,4.83-.83.58-1.93,1.35-2.4,1.69-.68.48-1.38.68-3.26.89-2.3.27-4.1.89-3.99,1.4.03.12-.05.31-.18.46-.1.12-.42.92-.65,1.74-.52,1.69-.65,1.83-2.71,2.85-1.3.65-1.54.89-2.35,2.41-.5.99-.94,2.29-1.07,3.11-.18,1.52-.03,1.33-3.1,3.72-.73.58-1.46,1.28-1.62,1.57l-.31.53.63-.48.6-.48-.6.84c-.55.8-.99,1.64-2.06,3.93-.23.53-.68,1.04-.99,1.16-.34.1-.76.51-.97.87-.47.84-1.1,4.51-.86,5.07.16.36.26.31.78-.29l.6-.7.57,1.01c.55.99,1.07,1.33,1.07.7.03-.14.23.1.52.56.63,1.06.7,2.7.13,2.51-.23-.1-.47.02-.57.29-.1.24-.05.46.13.53.21.05.21.24,0,.68-.26.48-.21.68.29,1.13.7.72.94,1.5,1.17,3.81.18,1.74.16,1.96-.76,4.1-.63,1.47-.99,2.8-1.07,3.81-.13,1.86-.86,3.16-2.58,4.56-1.28,1.04-1.41,1.26-.76,1.26.6,0,2.19,1.54,2.19,2.15,0,.31.16.51.44.51.34,0,.37.07.13.29-.44.41-.39.75.05.6.26-.1.34-.02.26.19-.1.22.18.53.73.84.65.36.73.48.37.48-.29,0-.7-.17-.97-.39-.42-.34-.47-.34-.73.1-.16.27-.21.53-.1.63.08.07.13.89.1,1.83-.05,1.52,0,1.76.55,2.17.34.27.73.46.86.48.16,0,.29.24.31.51.03.29.18.65.34.8.31.29,2.03.31,2.71.02.39-.14.44-.12.29.1-.23.39.29.72,1.17.77.55.02.57.05.13.14-.29.07-.68.24-.86.36-.37.29-.42.77-.05.56.16-.07.26.02.26.24,0,.43.6,1.09,1.02,1.09.13,0,.34.22.42.48.21.6.63.63,1.07.05.31-.36.34-.34.37.27,0,.46.1.63.31.51.18-.1.21-.07.1.1-.1.14.03.56.26.89.47.68,2.61,2.15,3.47,2.41.42.12.55.31.47.6-.08.27.13.65.47.97.34.29.68.8.76,1.11.1.31.29.58.44.58s.13.19-.05.53c-.26.43-.21.58.18.87.47.31.44.34-.23.19l-.76-.17.47.72c.23.39.73.82,1.07.97s.6.41.55.6.21.58.55.84c.6.48.6.51.08.51-.89,0-.91.43,0,.6,1.49.31,5.4,2.17,5.89,2.82.18.24.81.65,1.38.92.55.27,1.02.6,1.02.75,0,.12.55.46,1.2.7.68.29,2.09,1.28,3.34,2.39,1.75,1.54,2.61,2.1,4.75,3.04,1.41.63,2.9,1.28,3.31,1.47.65.34.86.31,3-.41,1.25-.41,2.4-.84,2.56-.97.7-.53,2.84-.99,5.97-1.33,3.39-.36,7.96-.39,7.96-.05,0,.12.5.19,1.12.19.6.02,1.57.19,2.14.39,1.85.65,1.98.65,2.74.14.39-.27,1.43-.68,2.3-.89.89-.19,2.58-.8,3.76-1.33,1.2-.53,2.61-1.04,3.16-1.13.52-.07.97-.22.97-.34,0-.27-.78-.94-1.1-.94-.16,0-.23-.07-.16-.14.26-.24,1.2.36,1.38.87.21.63,1.04.46,1.88-.39.81-.8,3.42-1.33,6.7-1.33,1.93,0,2.79-.1,3.23-.36.34-.22.68-.31.78-.24.08.07,0,.14-.16.14-.18,0-.31.07-.31.17,0,.12.68.19,1.51.22,1.9,0,3.63.84,4.36,2.12.29.48.68.87.86.87s.26.12.18.27c-.1.14.05.31.37.39.47.12.5.19.23.51-.26.29-.26.39,0,.46.16.07.31.34.31.58,0,1.06,1.36,2.66,2.53,2.97.31.1.63.07.7-.07.08-.12.39-.17.68-.1s.94.05,1.46-.02c.76-.14.86-.24.63-.53-.39-.41.03-.46.47-.05.23.22.39.22.63,0,.44-.41,1.02-.36.83.07-.1.19-.03.36.13.36.18,0,.37-.14.44-.31.08-.24.7-.36,1.88-.39.97-.02,1.8-.14,1.83-.29.16-.36.57-.24.57.14,0,.24.26.36.73.36.55,0,.81.19,1.1.77.5.99,1.93,1.81,2.45,1.42.26-.19.42-.22.55-.02.08.12.03.24-.1.24-.5,0-.31.63.52,1.69l.81,1.01-.39,1.76c-.21.97-.31,2.05-.26,2.39.1.41-.1,1.01-.6,1.76-1.1,1.67-1.2,2-.76,2.15.21.1.39.41.39.72,0,.41-.18.6-.65.72l-.68.14.57.89c.29.48.39.72.21.56-.57-.51-.68-.34-.65,1.04,0,1.21-.08,1.42-.78,2.03-.57.48-.91.63-1.17.48-.21-.12-.44-.22-.57-.22-.23,0,.47,1.57,1.07,2.41.42.58.47.7.55,1.21,0,.12.29.24.6.24.44,0,.5.07.26.29-.5.46-.39.65.55,1.04.47.19.57.29.23.22l-.6-.14.7,1.01c.57.8.86.99,1.33.89.31-.05.52-.02.47.1-.08.1.08.24.31.29.26.05.16.07-.26.05-1.02-.05-.78.31.97,1.52.81.58,2.11,1.79,2.87,2.66.78.89,1.83,2,2.37,2.46.52.46,1.17,1.23,1.41,1.69.26.46.7,1.26,1.02,1.76s.55,1.21.52,1.57.63,1.98,1.43,3.6,1.59,3.36,1.72,3.86c.16.51.63,1.57,1.07,2.34,1.02,1.86,1.02,2.63,0,3.21-.42.22-.78.58-.78.75,0,.56,2.14,5.38,2.82,6.42.63.92.63,1.04.39,3.28-.29,2.7-.78,3.57-2.45,4.35-.6.29-1.02.68-1.02.92s-.42.8-.91,1.26c-.63.56-.91,1.04-.91,1.52,0,.36-.13.92-.31,1.21-.16.29-.39,1.06-.5,1.74-.29,1.98-1.23,4.59-1.9,5.26-.55.56-.6.7-.37,1.98.13.77.18,1.52.1,1.67-.05.14-.13.07-.13-.17-.03-.22-.16-.41-.31-.41-.18,0-.21.17-.08.41.1.24.23,1.47.26,2.73.03,1.91.16,2.51.7,3.62.39.75,1.07,1.67,1.51,2.05.44.41,1.07,1.21,1.41,1.81s1.02,1.71,1.54,2.51c.5.77,1.12,1.96,1.36,2.63s.97,1.93,1.57,2.78c.63.84,1.15,1.67,1.15,1.83s.31.56.68.89c.37.31.89.89,1.15,1.3.55.82.99,2.68.6,2.46-.16-.1-.21.87-.13,2.56.1,2.2.23,2.92.73,3.81.37.68.68,1.91.86,3.26.34,2.82.55,3.74.97,4.35.21.27.29.56.21.65-.23.22.78,2.53,1.77,4.1.7,1.11,2.97,3.26,3.78,3.6.57.22,1.72,2.05,2.58,4.08,1.23,2.92,1.72,3.81,3.29,5.96.7.99,1.46,2.15,1.67,2.58.76,1.67.29,3.26-.97,3.26-.7,0-.63.72.16,1.42.37.31.65.68.65.8s.23.56.55.94c.47.63.5.82.23,1.57-.18.46-.23.99-.16,1.18.21.53.86.43,1.02-.12.18-.65.91-.6,1.02.05.05.43.29.58.94.63.47.05.94.24,1.02.43.31.77,3.44,1.45,3.86.82s2.56-1.18,4.59-1.18c1.9,0,2.22-.07,3.16-.65.97-.63,1.28-.68,3.7-.75,4.54-.1,5.14-.07,6.63.29,1.28.29,1.51.29,1.88,0,.29-.24.97-.36,1.9-.36,1.3,0,1.46-.05,1.54-.56.08-.48.21-.53,2.03-.56,1.72,0,2.19-.12,3.78-.87,2.56-1.21,5.37-3.14,7.83-5.31,1.15-1.01,2.71-2.27,3.47-2.78,1.41-.94,4.56-4.66,5.5-6.47.63-1.21,1.8-2.32,3.73-3.55,1.7-1.06,2.09-1.64,2.56-3.69.18-.8.55-1.98.83-2.66.29-.65.44-1.38.39-1.59-.08-.22-.05-1.13.05-2,.16-1.42.13-1.64-.31-1.91-.5-.29-.5-.34-.08-1.09.6-1.06,1.43-1.5,5.24-2.68,2.35-.75,3.52-1.26,4.3-1.91,1.41-1.11,2.45-3.21,1.41-2.85-.34.12-.39,0-.23-.87.1-.58.34-1.35.55-1.74.23-.46.29-.77.13-.87-.16-.07-.23-.75-.21-1.5.05-1.4-.34-1.93-.63-.87-.08.31-.16-.05-.13-.77,0-.87-.18-1.67-.55-2.29-.34-.63-.5-1.23-.42-1.74.1-.65,0-.92-.68-1.5-.76-.65-.83-.84-.78-1.93.05-1.04.16-1.23.57-1.23.31,0,1.3-.75,2.37-1.76,1.04-.97,2.22-1.83,2.69-1.98.55-.17,1.46-.92,2.61-2.17.99-1.06,2.24-2.22,2.82-2.58,1.2-.75,4.51-2.05,5.87-2.27.5-.1,1.2-.41,1.57-.7.37-.31,1.15-.77,1.77-1.06s1.2-.72,1.28-.94c.23-.56,1.98-2.73,2.66-3.28,1.02-.84,1.75-4.13.97-4.39-.21-.07-.31-.31-.23-.6.08-.24.03-.46-.1-.46-.1,0-.23-1.06-.26-2.37-.05-1.74-.16-2.32-.39-2.27-.18.05-.1-.14.16-.41.37-.36.42-.58.21-.8-.13-.17-.34-1.35-.44-2.61-.13-1.79-.08-2.53.23-3.38.21-.6.29-1.11.16-1.16s-.16-.24-.08-.43c.18-.46-.76-1.38-2.19-2.17-.63-.31-1.12-.63-1.12-.65-.03-.77-.6-2.97-.83-3.23-.18-.22-.34-.51-.34-.65-.03-.14-.18-.56-.39-.92-.29-.56-.29-.89,0-1.96.29-1.16.29-1.38-.13-1.93-.42-.6-.42-.68.1-1.45.31-.46.55-.97.55-1.13s-.63-.89-1.41-1.62-1.49-1.57-1.57-1.88c-.1-.34.13-1.26.6-2.34.42-.97.86-2.05.94-2.41.1-.36.42-.72.7-.82.34-.1.97-1.01,1.83-2.66.7-1.38,1.41-2.56,1.54-2.63.13-.1.23-.51.23-.92,0-1.01.6-1.79,1.51-1.96.86-.19,2.61-1.62,2.45-2.03-.05-.17.13-.29.39-.29.65,0,1.3-.68,2.58-2.66,1.12-1.74,5.97-6.61,9.44-9.46,1.54-1.26,3.13-2.29,4.88-3.14,2.32-1.11,2.97-1.59,6-4.39,4.04-3.77,5.58-5.33,6.21-6.45.23-.46,1.2-1.83,2.14-3.07.91-1.21,1.75-2.49,1.83-2.82s.18-.84.26-1.16c.05-.29.6-1.21,1.17-2.05.6-.82,1.28-1.98,1.54-2.53s.68-1.18.91-1.38c.26-.17.89-1.11,1.38-2.03.5-.94,1.12-1.93,1.41-2.2.29-.29.6-1.21.78-2.29.18-.99.5-2,.7-2.24.5-.53.86-3.11.5-3.36-.18-.1-.1-.56.18-1.28.29-.68.39-1.21.23-1.35-.13-.12-.78-.29-1.49-.36-1.15-.14-1.28-.12-1.98.58-.39.41-1.07.82-1.49.89-.39.07-1.38.31-2.16.53s-2.19.41-3.13.41c-.94.02-1.98.17-2.32.36-.44.22-1.1.29-2.22.17-1.49-.14-1.62-.1-3.34.84l-1.8,1.01-1.57-.41-1.54-.39-1.38.7c-.73.39-1.9.84-2.56.99-1.07.24-1.38.22-2.37-.19-.65-.27-1.57-.92-2.06-1.5-.5-.56-1.15-1.3-1.46-1.64-.5-.58-.73-.65-2.11-.65-1.7,0-1.67-.1.42-.97,1.57-.68,1.77-.99,1.38-2.1-.31-.84-1.43-2.15-1.77-2.1-.55.1-.86-.05-.86-.41,0-.22-.34-.51-.78-.65-.5-.17-.81-.48-.91-.92-.18-.72-.94-1.42-2.16-2-.44-.22-1.12-.82-1.46-1.33-.86-1.26-1.75-1.86-3.05-2.05-1.17-.17-2.58-.77-2.58-1.09,0-.1-.23-.43-.5-.72-.29-.31-.57-.68-.63-.82-.18-.53-.76.14-.6.77.1.56.08.53-.23-.14-.21-.41-.52-.84-.7-.97-.47-.27-.99-1.59-1.38-3.57-.37-1.83-.52-2.22-1.88-4.9-.52-1.04-1.04-1.74-1.28-1.74-.21,0-.94-.48-1.62-1.06s-1.49-1.11-1.8-1.21-.68-.48-.83-.89c-.37-.97-.89-5.62-.73-6.57.05-.46-.03-.89-.23-1.09-.5-.46-.47-.92.03-.53.78.6.68.05-.13-.82-.52-.53-.89-1.23-.99-1.88-.16-.84-.44-1.26-1.62-2.27-.78-.68-1.83-1.42-2.27-1.64-1.04-.48-2.16-2.39-2.16-3.67,0-.82.05-.87.65-.72.37.1.65.1.65.02,0-.05-.55-.58-1.2-1.13-.7-.6-1.57-1.69-2.03-2.61-.47-.87-1.57-2.66-2.43-3.98-.89-1.33-1.85-3.11-2.16-3.96s-.86-1.91-1.23-2.37c-.57-.7-.63-.87-.31-1.06.29-.17.1-.43-.89-1.3-.68-.63-1.51-1.54-1.88-2.05-.34-.51-.76-.99-.89-1.06-.16-.1-.21-.31-.13-.51s-.08-.72-.39-1.16c-.6-.89-.7-1.74-.29-1.98.16-.07.26.05.26.29s.52,1.09,1.17,1.88c.7.87,1.17,1.69,1.17,2.08,0,.48.44,1.04,1.8,2.2.97.87,2.01,1.62,2.32,1.69.76.19,1.49-.63,1.51-1.71.03-.82.29-1.67,1.46-4.56.37-.87.44-1.35.26-1.57-.16-.14-.78-1.5-1.43-2.99l-1.17-2.7.63-.53c.34-.29.63-.63.63-.75,0-.36-.7-.19-1.2.31-.97.99-1.88,1.26-3.78,1.09-1.12-.12-1.8-.07-1.93.07-.23.39-1.59.31-1.96-.1-.16-.19-.57-.41-.86-.51-.31-.07-.73-.29-.94-.43-.37-.27-1.62-.39-4.2-.39-2.79,0-3.13.05-3.13.53,0,.34-.16.46-.6.39-.31-.02-.94.17-1.36.43-1.17.77-2.4,1.3-2.95,1.3-.29,0-1.02-.22-1.64-.48s-1.59-.48-2.11-.48-1.04-.12-1.12-.24c-.08-.14-.52-.24-.94-.24s-1.04-.17-1.36-.36c-.34-.19-1.46-.46-2.5-.6s-2.4-.36-3.03-.51c-.78-.19-1.38-.19-2.11,0-1.43.36-1.62.34-1.83-.29-.37-1.13-.86-1.38-2.76-1.38-.99,0-2.06-.12-2.37-.29-.31-.14-1.15-.39-1.88-.53-1.15-.24-1.3-.36-1.38-.94s-.29-.7-2.27-1.28c-2.45-.7-3.6-.7-6.42.07-2.3.63-3.89,1.47-4.59,2.46-.73,1.01-.76,1.93-.08,3.16.6,1.11.44,1.71-.68,2.68-1.17,1.01-2.4,1.5-3.34,1.33-.44-.1-1.46-.58-2.27-1.11-1.9-1.23-5.53-2.34-8.53-2.63-1.43-.14-2.63-.39-3.05-.65-.76-.46-1.43-1.52-1.43-2.22,0-.89-.97-1.67-2.27-1.86-.68-.1-1.64-.36-2.16-.6-.5-.22-1.49-.51-2.22-.6-.7-.1-1.51-.27-1.77-.41-.31-.14-1.07-.14-2.24.07-1.72.27-1.85.27-3.23-.36-1.67-.72-2.4-.8-2.74-.22-.37.56-1.1.22-1.1-.53,0-.65-.81-1.16-.99-.65-.13.39-.86.36-.78,0,.05-.17-.21-.34-.57-.39-1.43-.17-2.5-1.06-2.22-1.81.08-.17.55-.51,1.04-.72s1.2-.63,1.57-.94c.97-.75,2.27-2.56,1.98-2.7-.1-.07-.29-.46-.37-.84-.13-.53-.44-.87-1.23-1.23-.86-.41-1.04-.6-1.04-1.21,0-.41.1-.72.23-.72.6,0,1.85-1.3,2.01-2.08.08-.46.1-.92,0-.99-.08-.07-.6.12-1.12.46-1.38.82-1.9.99-1.9.53,0-.19-.18-.41-.42-.51-.29-.1-.31-.19-.1-.31.55-.31-.03-.77-.81-.68-.42.07-.7,0-.68-.14.08-.31-.81-.41-1.64-.17ZM31.52,92.06c-.26.05-.68.05-.91,0-.26-.07-.05-.12.44-.12s.7.05.47.12ZM34.97,98.17c0,.12-.23.24-.55.24-.29,0-.44-.12-.37-.24.08-.14.34-.24.55-.24s.37.1.37.24Z"/>
      <path class="cls-1" d="M38.44,31.64c-.63.48-.65.63-.37.97.47.51.6.48,1.43-.22,1.36-1.18.37-1.88-1.07-.75Z"/>
      <path class="cls-1" d="M20.46,32.87c-.21.46.6,1.64,1.02,1.5.31-.1.73-1.52.5-1.74-.29-.27-1.38-.1-1.51.24Z"/>
      <path class="cls-1" d="M36.9,33.76c-.23.43-.73,1.09-1.1,1.45l-.68.68h.73c1.15,0,2.22-.65,2.45-1.52.13-.41.18-.92.1-1.09-.21-.58-1.07-.29-1.51.48Z"/>
      <path class="cls-1" d="M27.27,33.81c-.29.17-.91.41-1.36.51-.47.07-.86.22-.86.29,0,.43,1.12,1.71,1.41,1.62.55-.19,2.3-2.24,2.11-2.51-.23-.34-.7-.29-1.3.1Z"/>
      <path class="cls-1" d="M23.49,35.28c-.39.43-.13.84.52.84.26,0,.57-.12.65-.24.18-.27-.31-.97-.65-.97-.1,0-.34.17-.52.36Z"/>
      <path class="cls-1" d="M30.06,35.45c-.86.8.16,2.2,1.23,1.67.63-.31.78-.75.52-1.42-.23-.58-1.23-.72-1.75-.24Z"/>
      <path class="cls-1" d="M20.13,36.63c-.5.19-.55.29-.29.58.44.51,1.12.46,1.49-.1.26-.39.23-.48-.08-.6-.23-.07-.42-.14-.44-.12-.03,0-.34.12-.68.24Z"/>
      <path class="cls-1" d="M240.24,37.29c0,.12.18.31.42.39.26.1.37.02.31-.14-.13-.36-.73-.56-.73-.24Z"/>
      <path class="cls-1" d="M.35,78.52c-.29.12-.5,1.06-.23,1.06.5,0,1.72-.6,1.64-.82-.1-.29-.91-.43-1.41-.24Z"/>
      <path class="cls-1" d="M1.4,79.51c-.52.19-.39.56.18.56.29,0,.52-.17.52-.36,0-.36-.16-.41-.7-.19Z"/>
      <path class="cls-1" d="M9.82,79.53c-.21.31.26,1.26.63,1.26s.31-.56-.08-1.09c-.26-.29-.42-.34-.55-.17Z"/>
      <path class="cls-1" d="M2.49,80.06c-.08.12-.03.24.1.24.16,0,.29-.12.29-.24,0-.14-.05-.24-.1-.24-.08,0-.21.1-.29.24Z"/>
      <path class="cls-1" d="M4.11,80.45c-.37.34.16.72.86.63.94-.12,1.02-.41.21-.63-.76-.17-.86-.17-1.07,0Z"/>
      <path class="cls-1" d="M265.54,81.94c0,.14.13.29.29.34.21.07.16.24-.13.51-.26.22-.34.41-.18.41s.21.17.13.36c-.21.46.26.46.68,0,.16-.19.21-.48.1-.65-.13-.17-.23-.46-.23-.65,0-.39-.65-.68-.65-.31Z"/>
      <path class="cls-1" d="M10.08,82.38c-.31.77.55,1.13,1.12.48.26-.29.21-.41-.21-.6-.68-.34-.73-.34-.91.12Z"/>
      <path class="cls-1" d="M266.98,83.44c-.21.31-.03.58.37.46.16-.07.18-.24.05-.43-.16-.24-.26-.24-.42-.02Z"/>
      <path class="cls-1" d="M8.88,86.1c0,.27.13.48.26.48.16,0,.26-.22.26-.48s-.1-.48-.26-.48c-.13,0-.26.22-.26.48Z"/>
      <path class="cls-1" d="M6.72,86.02c-.63.56.42,1.74,1.28,1.42.5-.17.47-.53-.16-1.11-.55-.51-.83-.58-1.12-.31Z"/>
      <path class="cls-1" d="M277.15,89.72c-.18.29.05.72.42.72.31,0,.31-.65,0-.84-.13-.07-.31-.02-.42.12Z"/>
      <path class="cls-1" d="M276.76,91.17c0,.12.1.24.23.24.16,0,.34-.12.42-.24.08-.14-.03-.24-.23-.24-.23,0-.42.1-.42.24Z"/>
      <path class="cls-1" d="M322.15,95.15c-.23.24-.16.46.23.82.7.65,2.14.65,3.68,0,1.1-.46,1.12-.51.65-.77-.78-.41-4.2-.43-4.56-.05Z"/>
      <path class="cls-1" d="M316.67,96.69c0,.24,1.3.6,1.51.39.21-.17.03-.27-.78-.46-.42-.07-.73-.05-.73.07Z"/>
      <path class="cls-1" d="M320.58,96.96c0,.12.13.24.26.24.16,0,.26-.12.26-.24,0-.14-.1-.24-.26-.24-.13,0-.26.1-.26.24Z"/>
      <path class="cls-1" d="M29.07,99.66c-.13.19-.05.22.23.12.26-.1.44-.05.44.1s.16.22.37.14c.18-.07.5,0,.65.14.23.22.37.19.55-.07.37-.51.31-.72-.13-.72-.21,0-.39.1-.39.24s-.23.14-.68,0c-.83-.29-.81-.29-1.04.05Z"/>
      <path class="cls-1" d="M31.97,99.86c-.08.12-.05.24.1.24.13,0,.34-.12.42-.24.08-.14.05-.24-.1-.24-.13,0-.34.1-.42.24Z"/>
      <path class="cls-1" d="M29.88,100.58c-.08.12-.03.24.1.24.16,0,.29-.12.29-.24,0-.14-.05-.24-.1-.24-.08,0-.21.1-.29.24Z"/>
      <path class="cls-1" d="M32.1,100.56c0,.14-.16.19-.31.14-.52-.17-1.02.24-.83.68s.63.56.63.17c0-.14-.13-.24-.29-.24-.13,0-.18-.12-.1-.24.13-.19.29-.19.52,0,.23.17.42.14.63-.1s.23-.39.03-.51c-.13-.07-.26-.05-.26.1Z"/>
      <path class="cls-1" d="M29.8,101.35c.13.36.73.43.76.07,0-.14-.18-.29-.44-.31-.26-.07-.39.02-.31.24Z"/>
      <path class="cls-1" d="M134.94,129.48c-.18.07-.34.24-.34.41,0,.19-.26.63-.57.99-.55.65-.55.68-.08.99.78.53,1.12.41,1.7-.6.68-1.23.31-2.12-.7-1.79Z"/>
      <path class="cls-1" d="M129.23,138.02c-.08.14-.03.39.13.53.21.19.29.12.29-.27,0-.58-.13-.68-.42-.27Z"/>
      <path class="cls-1" d="M264.4,164.24c.03.65.13,1.13.21,1.09.08-.02.26-.05.39-.05.34,0,.52-1.52.23-1.88-.57-.63-.89-.29-.83.84Z"/>
      <path class="cls-1" d="M262.52,166.82c-.21.51,0,1.96.26,1.88.13-.05.34.07.47.29s.34.39.44.39c.44,0,.55-.8.21-1.18-.21-.22-.44-.68-.55-1.06-.18-.7-.6-.87-.83-.31Z"/>
      <path class="cls-1" d="M264.71,174.54c-.42.29-.73.6-.73.7,0,.34.7.17,1.15-.29.7-.72.39-1.01-.42-.41Z"/>
      <path class="cls-1" d="M292.93,181.93c0,.12.13.24.26.24.16,0,.26-.12.26-.24,0-.14-.1-.24-.26-.24-.13,0-.26.1-.26.24Z"/>
      <path class="cls-1" d="M279.26,188.59c-.29.68-.16,1.23.37,1.67.81.68,1.17.19.76-1.06-.31-1.01-.83-1.28-1.12-.6Z"/>
      <path class="cls-1" d="M304.23,191.03c-.26.72-.91,1.28-1.46,1.28-.5,0-.5.02-.1.43.26.24.44.7.44,1.04,0,.87-.83,2.2-1.49,2.41-.52.17-.6.12-.6-.39,0-.34-.13-.6-.26-.6-.42,0-.68.8-.31.92.37.1.42.92.08,1.13-.13.07-.31-.1-.42-.36-.08-.27-.26-.48-.39-.48-.42,0-1.1,1.16-.89,1.5.13.17.23.6.26.97.03.51-.08.68-.44.68-.63,0-.83.36-.55.89.29.48-.31,1.23-.6.8s-.63-.24-1.33.72c-.5.68-.63,1.13-.52,1.57.1.34.05.6-.1.6-.13,0-.26-.19-.26-.43,0-.68-.26-.8-1.02-.43-1.1.53-1.93,1.5-1.77,2.08.08.27.03.43-.1.34-.13-.07-.23-.29-.23-.48,0-.27-.1-.29-.5-.1-.29.12-.81.24-1.17.24s-.76.14-.86.31c-.29.43-1.33.68-1.46.34-.05-.17-.39-.07-.83.27s-1.1.53-1.67.53c-1.2,0-1.59.34-1.59,1.45,0,.58-.29,1.21-.91,2.03q-.91,1.21-.76,3.14c.1,1.13.39,2.34.65,2.85.29.51.5,1.21.5,1.57s.18.89.42,1.16c.26.34.34.75.23,1.35-.1.51-.05.97.1,1.04.16.1,0,.51-.39,1.04-.34.48-1.02,1.59-1.49,2.49-.44.89-1.04,1.71-1.33,1.83-.26.12-.78.87-1.12,1.67-.91,2.03-.78,3.65.52,5.55.78,1.13.89,1.5.65,1.88-.44.77-.13,2.99.52,3.62.31.31.57.7.57.87,0,.51,2.09,2.2,2.69,2.2.31,0,1.12.27,1.8.6s1.38.6,1.57.6c.21,0,1.17-.36,2.16-.8,1.02-.46,2.4-.89,3.1-.97,1.8-.24,2.37-.68,2.9-2.15.26-.7.68-1.69.94-2.17.29-.51.83-2.24,1.25-3.86.42-1.64,1.15-3.74,1.59-4.66.44-.94.99-2.37,1.2-3.21s.63-2.08.91-2.78c.31-.7,1.25-3.14,2.09-5.41,1.3-3.52,1.54-4.42,1.54-5.84s.08-1.74.5-2c.26-.17.63-.77.81-1.33.29-.89.29-1.11-.1-1.64-.23-.34-.37-.72-.29-.84s0-.43-.16-.68c-.31-.48-.18-1.26.23-1.26.13,0,.42.43.65.97.44,1.04,1.15,1.47,1.51.94.13-.19.42-.87.65-1.5q.42-1.16-.29-2.1c-.52-.68-.68-1.16-.63-1.86.05-.51,0-1.06-.1-1.21-.1-.17-.13-.56-.05-.87.1-.39-.03-.97-.37-1.57-.31-.56-.55-1.3-.55-1.71,0-.43-.29-.97-.78-1.47-.42-.43-.78-.92-.78-1.09,0-.19-.21-.48-.5-.65-.26-.17-.52-.53-.57-.77-.13-.63-.7-.77-.94-.22Z"/>
      <path class="cls-1" d="M284.14,191.06c-.76.1-.76.41-.03.87.7.46,1.2.14.83-.51-.16-.29-.44-.41-.81-.36Z"/>
      <path class="cls-1" d="M280.93,191.83c0,.31.73.6.99.39.08-.1,0-.27-.21-.39-.52-.31-.78-.29-.78,0Z"/>
      <path class="cls-1" d="M287.01,193.88c0,.36.13.6.34.6s.37-.17.37-.36.16-.36.34-.36c.21,0,.18-.1-.08-.24-.65-.39-.97-.27-.97.36Z"/>
      <path class="cls-1" d="M307.44,209.43c-.26.27-.42.68-.37.92.08.34.21.27.57-.36.52-.97.44-1.21-.21-.56Z"/>
      <path class="cls-1" d="M277.15,210.42c.08.12.21.24.29.24.05,0,.1-.12.1-.24,0-.14-.13-.24-.29-.24-.13,0-.18.1-.1.24Z"/>
      <path class="cls-1" d="M246.5,228.28c0,.27.13.48.26.48.16,0,.26-.22.26-.48s-.1-.48-.26-.48c-.13,0-.26.22-.26.48Z"/>
    </g>
  </g>
</svg>