<?xml version="1.0" encoding="UTF-8"?>
<svg id="Calque_2" data-name="Calque 2" xmlns="http://www.w3.org/2000/svg" viewBox="0 0 612.92 475.38">
  <defs>
    <style>
      .cls-1 {
        stroke-width: 0px;
      }
    </style>
  </defs>
  <g id="Calque_1-2" data-name="Calque 1">
    <g>
      <path class="cls-1" d="M163.1.55c-.72.43-2.2.77-3.21.77-2.11,0-2.59.53-1.82,1.96.53,1.01.77,1.01,5.41.77,2.63-.19,5.94-.43,7.23-.57,2.2-.19,2.11-.14-1.15.72-4.07,1.1-4.12,1.1-3.69,2.2.24.57.67.72,1.77.48.81-.14,2.15,0,3.06.38.86.38,3.26.81,5.32,1.01,2.11.19,5.27.62,7.09,1.01,4.26.81,6.51-.1,4.26-1.82-.48-.34-1.1-1.05-1.39-1.58-.48-.81-1.05-.96-3.59-.96-1.68,0-3.54-.29-4.07-.57-.57-.34-1.92-.72-2.97-.91-1.48-.24-1.87-.48-1.68-1.1.34-1.39-.86-1.87-5.12-2.2-3.21-.24-4.36-.14-5.46.43Z"/>
      <path class="cls-1" d="M193.55,7.11c-1.25.48-2.2,2.59-1.82,4.07.38,1.39,1.82,1.82,3.83,1.15.86-.29,3.3-.48,5.46-.43,4.26.14,5.7-.43,4.88-1.96-.48-.86-2.97-1.34-8-1.58-1.2-.05-2.06-.29-2.06-.62,0-.81-1.01-1.1-2.3-.62Z"/>
      <path class="cls-1" d="M203.56,14.68c-.38.62-.38,1.34-.05,2.2q.67,1.82-1.63,1.48c-1.82-.29-2.11-.19-2.35.67-.19.72-.62.96-1.96.96-.91,0-2.73.24-4.07.53-1.92.38-2.63.34-3.83-.24-2.11-1.1-6.85-1.01-7.57.1-.43.77-1.39.96-5.41,1.25-3.21.19-5.36.57-6.37,1.15-.86.43-2.3.91-3.21,1.05-2.59.38-2.01,1.34,1.87,3.3,1.96.96,3.5,1.92,3.35,2.2-.1.29-1.68.43-3.78.34-1.96-.1-3.93-.14-4.31-.1s-3.26.14-6.37.24c-3.06.05-5.75.24-5.89.38-.53.53.77,2.2,1.82,2.35.67.1,1.15.57,1.34,1.34.29,1.1.48,1.2,2.54,1.05,1.39-.1,2.68.1,3.54.57.72.43,2.54,1.2,3.97,1.72s2.54.96,2.39.96c-.14.05-1.87.05-3.83.05-4.07,0-7.57-.43-7.95-1.05-.14-.24-.96-.43-1.77-.43-.86,0-2.63-.43-4.02-.96-2.68-1.01-3.74-.62-2.35.91,1.05,1.15.96,1.63-.14,1.01-1.44-.72-4.41-.62-4.07.19.43,1.05,2.35,1.68,5.08,1.53,2.2-.1,2.87.05,3.97,1.01.72.62,1.2,1.29,1.05,1.44-.34.29-11.11-1.63-12.64-2.25-.62-.24-1.1-.86-1.1-1.39,0-1.58-1.01-3.26-2.25-3.83-1.82-.81-2.35-.62-1.2.48,1.2,1.05,1.01,1.87-.38,1.87-.53,0-1.15.43-1.44.91-.38.81-.19,1.2,1.05,2.39.86.81,1.82,1.48,2.15,1.48.96,0,2.06,1.44,2.06,2.78.05.81.77,2.11,1.87,3.4l1.87,2.06,5.75.1c4.79.1,5.94.24,7.09,1.01.77.53,1.82,1.15,2.35,1.44s1.01.91,1.1,1.44c.24,1.29,1.05,2.15,2.35,2.68,1.63.62,1.34,1.39-.48,1.39-1.72,0-2.87-.91-3.45-2.83-.24-.72-1.2-1.48-2.97-2.3-2.39-1.1-2.97-1.2-5.36-.81-1.92.29-2.73.67-2.83,1.25-.1.43.24.91.77,1.1.77.19,1.01.81,1.15,2.78.24,2.63-.14,3.5-1.77,4.21-.53.24-1.48.81-2.15,1.34-1.1.86-1.48.86-5.65.34-2.44-.34-4.69-.86-4.98-1.15-.34-.34-.96-.57-1.44-.57s-.86-.24-.86-.48c0-.62,1.25-.62,2.49.05.53.29,2.15.67,3.59.86,2.78.38,3.02.24,5.27-3.54,1.15-1.92,1.2-2.2.43-3.06-.43-.48-.77-1.15-.67-1.53.1-.34-.72-1.05-1.77-1.63s-2.39-1.77-2.97-2.68-1.48-2.06-1.96-2.59c-.53-.53-1.05-1.53-1.25-2.25-.14-.67-1.39-2.25-2.73-3.45s-2.3-2.39-2.11-2.68c.48-.77-.62-3.21-1.58-3.64-.48-.19-3.06-.57-5.79-.86-4.36-.48-5.08-.48-5.89.19s-.86.91-.34,2.06c.81,1.82,0,3.5-1.96,3.93-1.72.38-1.87,1.82-.19,2.06,1.15.14,2.59,2.39,2.59,4.12,0,1.39,1.2,2.2,3.26,2.2.77,0,1.77.43,2.25.96s1.34.96,1.92.96c1.25,0,2.63,1.39,2.63,2.59q0,.96-5.89-.38c-1.82-.43-3.69-.96-4.17-1.25-1.72-.96-1.87-.43-.48,1.77.81,1.25,1.44,2.63,1.44,3.06,0,.53-1.05,1.44-2.73,2.39-3.3,1.92-6.37,4.6-6.37,5.55,0,.43.67,2.06,1.44,3.69.81,1.58,1.87,4.41,2.39,6.27,2.01,6.99,5.27,22.07,5.27,24.47,0,1.68.24,2.68.77,3.11,1.2.96,3.3,4.31,4.21,6.61.72,1.87.72,2.2.05,3.21-.43.67-1.68,1.39-3.06,1.82-5.7,1.68-6.37,2.78-3.88,6.66,1.96,3.11,4.93,4.55,7.57,3.78,1.15-.38,2.63-1.39,3.88-2.73l2.01-2.15,1.15,1.15c.91.91,1.2,1.72,1.2,3.21,0,1.1.24,3.4.53,5.08s.38,4.21.19,5.65c-.29,2.35-.53,2.83-2.35,4.31l-2.06,1.68-3.78-1.58c-2.11-.91-4.84-2.2-6.18-2.87-3.45-1.82-6.08-2.11-8.38-1.01l-1.87.91.96,1.53c.81,1.25.86,1.68.38,2.49-.67,1.01-2.15,1.34-7.37,1.77-3.83.34-4.6.86-6.23,4.02-.62,1.2-1.68,2.68-2.35,3.35-1.05.96-1.44,1.05-2.11.57-1.48-1.05-2.01-1.15-2.78-.53-.57.48-.72,1.2-.53,2.97.19,2.01.48,2.63,2.2,4.17,1.87,1.72,1.96,1.96,1.96,4.6.05,1.77.38,3.45.91,4.45l.86,1.63,1.01-1.44c.81-1.15,1.48-1.48,3.3-1.72,1.77-.19,2.49-.53,3.5-1.82l1.29-1.53,2.15,1.01c1.82.91,2.3.96,3.69.43s1.63-.48,2.25.34c.38.57.67,2.06.67,3.69,0,1.53.24,2.92.48,3.06,1.2.77.24.96-2.3.53-1.58-.24-3.16-.29-3.59-.14-1.01.38-1.05,2.54-.1,2.92.96.34.91,1.72-.05,1.72-.38,0-1.15-.24-1.68-.53-.72-.34-1.15-.34-1.63.05-.91.77-.1,2.39,1.2,2.39.48,0,1.01.43,1.2.91.14.53.81,1.25,1.44,1.68.67.43,1.2,1.1,1.2,1.48,0,.43.43.72,1.1.72s1.25.43,1.53,1.05c.34.77.91,1.1,1.92,1.1,1.29.05,1.44.19,1.77,2.15.48,2.83,2.35,7.23,2.97,7.04.53-.19.62-1.68.24-3.45-.14-.67.19-1.05,1.15-1.39,1.25-.43,1.48-.34,3.26,1.77,1.05,1.25,2.25,2.25,2.59,2.25s1.01.34,1.39.77c.57.57.67.96.24,1.72-.43.81-.81.91-2.25.67-1.01-.19-2.68-.43-3.78-.57l-2.06-.29v1.96c0,1.82.1,2.01,1.48,2.3,1.77.34,2.15,1.1,1.44,3.02-.62,1.87-.38,2.39,1.68,3.74,1.72,1.15,2.25,2.06,3.35,6.23,1.29,4.88,1.58,4.64-5.89,4.79-6.27.14-6.56.1-7.76-1.01-2.15-1.96-3.54-2.73-5.08-2.73-2.01,0-3.4-1.1-3.78-2.97-.86-4.21-.86-4.69,0-6.03.53-.72,1.01-2.06,1.15-2.97.24-1.58.34-1.68,2.06-1.63,3.02.1,1.77-2.06-1.68-2.87-.72-.14-2.06-1.25-3.02-2.39-1.87-2.3-1.48-2.15-9.67-3.11-4.41-.48-8.52-2.2-12.02-5.08-2.06-1.68-4.5-2.2-5.12-1.2-.62.96-3.06.48-4.69-.96-2.73-2.39-6.32-3.16-8.28-1.72-1.01.77-1.05.67,1.34,2.15,1.39.81,1.92,1.58,2.44,3.3.86,2.92.43,3.69-2.68,5.08-2.01.86-3.26,1.05-6.56,1.01-2.25-.05-4.64-.34-5.41-.62-.72-.34-2.3-.53-3.5-.48-1.87.1-2.39-.1-3.26-1.15-1.29-1.58-3.26-1.96-10.82-2.01-5.32-.05-6.23.1-8,1.01-1.1.62-2.3,1.53-2.73,2.11-.67.96-1.01,1.01-3.97.77-1.82-.14-3.59-.34-3.97-.43-.96-.19-1.2,1.58-.29,2.11,2.2,1.25-.48,2.2-6.75,2.39-2.73.1-5.12.38-5.36.62-.19.29-.53,1.29-.67,2.3-.29,1.77-.24,1.87,1.87,2.73,2.39,1.05,2.73,2.25,1.1,3.88-.67.67-1.29.91-2.01.67-2.59-.81-3.21-.81-3.21-.14,0,1.2,1.72,2.35,3.93,2.63,2.39.34,3.26.86,3.26,2.06,0,.48.43.96,1.01,1.1.86.24.91.38.38,1.25-.53.81-.48,1.1.24,1.92.72.77,1.48,1.01,3.45,1.01,2.3,0,2.68.14,3.64,1.44s1.29,1.44,3.69,1.44,2.73-.14,3.5-1.44c1.2-2.11,2.92-2.35,5.84-.72,1.34.72,2.78,1.63,3.21,1.96,1.15,1.05,5.03.29,7.42-1.39,1.77-1.25,2.2-1.34,3.5-.91,1.15.43,1.87.38,3.16-.19,1.48-.57,1.68-.57,1.68,0,0,.38-.24.86-.53,1.05-.34.19-.48,2.35-.48,5.89.05,7.28-.38,11.97-1.15,13.17-.38.57-1.01,2.39-1.44,4.12-.81,3.21-1.82,5.51-2.59,5.99-.24.14-2.35.05-4.64-.24-2.3-.24-4.31-.38-4.41-.29-.24.29,3.06,7.28,3.64,7.66.29.14.86,1.44,1.25,2.83s1.48,3.4,2.35,4.41c.91,1.05,1.72,2.35,1.82,2.87.34,1.58,1.77,1.44,2.83-.34.67-1.1.96-2.39.96-4.36,0-1.48.19-2.73.43-2.73.72,0,1.05,1.44.53,2.39-.53,1.01-.62,4.26-.19,5.46.14.43.77.77,1.34.77,1.53,0,2.97,1.2,4.84,3.97.91,1.39,2.63,3.78,3.78,5.36s2.25,3.64,2.39,4.6c.14.91.72,2.11,1.25,2.59s.96,1.15.96,1.53c0,.34.57.86,1.29,1.15,2.97,1.1,6.03,5.36,6.23,8.57.29,5.84.62,7.18,2.44,9.96,1.39,2.11,2.11,2.78,3.16,2.87,2.11.24,4.02,2.49,4.69,5.46.34,1.63.96,2.87,1.68,3.4.57.48,1.1,1.15,1.1,1.48s.96,1.72,2.15,3.11,2.15,2.92,2.15,3.45.53,1.15,1.15,1.44c1.15.53,2.2,2.25,2.2,3.54,0,.38-.43.91-.96,1.2-1.25.67-1.25,2.35.05,4.79.53,1.05,1.1,2.83,1.25,3.93.19,1.15.57,2.54.96,3.11.43.67.57,1.58.38,2.63-.29,1.44-.14,1.77.91,2.44,1.87,1.25,3.59,1.01,8.95-1.34,2.73-1.15,5.46-2.15,6.08-2.15,1.44,0,4.02-1.1,4.84-2.06.48-.57.86-.67,1.48-.34,1.1.57,2.92-.05,4.21-1.48,1.15-1.2,7.52-4.21,8.95-4.26.53,0,2.11-.53,3.54-1.2l2.59-1.2-.24-2.11c-.24-2.01-.19-2.15,1.63-3.35,1.05-.67,2.83-1.39,3.88-1.53,1.1-.19,2.83-.72,3.83-1.25,1.34-.67,2.01-.77,2.68-.38,1.2.62,2.78.62,3.16,0,.19-.29-.05-1.05-.48-1.72-1.1-1.72-.62-2.44,1.77-2.83,2.49-.43,3.26-.96,3.26-2.35,0-.62.91-1.92,2.15-3.16,2.11-2.06,3.59-5.17,3.59-7.52,0-.81.29-1.1,1.1-1.1,1.25,0,2.25-.81,2.25-1.87,0-.38.91-1.63,2.01-2.78,1.68-1.68,1.96-2.35,2.01-4.07.05-1.53-.14-2.06-.67-2.06-1.2,0-3.45-2.59-3.11-3.64.24-.67,0-1.01-.96-1.39-.67-.24-1.72-.48-2.3-.48-2.25,0-4.5-1.1-6.9-3.3-2.2-2.01-2.59-2.59-2.83-4.64-.19-1.29-.72-2.83-1.25-3.4-.86-.91-.86-1.05-.14-1.48.43-.24.72-.81.67-1.29-.24-1.05-1.39-1.53-1.39-.57,0,.38-.62,1.44-1.44,2.3-.77.91-1.44,1.87-1.44,2.15s-.43.91-.96,1.39-.96,1.25-.96,1.68c0,1.2-2.44,3.26-4.93,4.12-2.06.72-2.3.67-3.64-.1-1.15-.67-1.58-.77-2.06-.29-.67.67-2.01.77-3.16.14-.43-.24-1.2-.57-1.68-.72-.77-.24-.81-.67-.53-4.31q.34-4.07-.96-4.64c-.67-.34-1.39-.43-1.58-.24s-.29,1.58-.24,3.16c.05,1.53-.1,2.92-.34,3.06-.72.48-2.06-1.2-1.77-2.25.14-.67-.24-1.39-1.2-2.3-1.1-1.05-1.48-1.87-1.68-3.64-.14-1.68-.48-2.54-1.29-3.11-2.15-1.63-4.17-4.07-5.51-6.66-2.39-4.6-3.26-5.84-4.31-6.23-1.58-.62-1.29-1.29,1.34-2.92,1.34-.81,2.39-1.68,2.39-1.87,0-.77,1.87-.43,2.35.38.34.67.57.72,1.15.24.67-.57,2.25-.34,2.25.34,0,.14.86,1.44,1.92,2.78,1.01,1.39,2.54,4.07,3.35,5.99s1.72,3.64,2.06,3.83,1.39.38,2.35.38,1.87.19,2.01.43c.48.72,5.46,3.4,6.37,3.4.48,0,1.58.43,2.44.96,2.15,1.29,2.68,1.25,4.93-.81,1.72-1.53,2.25-1.77,4.36-1.77s2.59.19,3.78,1.53c1.01,1.1,1.39,2.06,1.39,3.26,0,2.35,2.11,4.21,4.88,4.31,3.4.14,9.58,1.15,11.88,1.96,2.54.91,4.02.91,9.82.14,2.39-.34,4.88-.57,5.65-.53.72,0,2.54.1,4.07.14,2.01.1,3.16-.1,4.07-.72,2.39-1.58,4.93-.86,4.36,1.29-.24,1.1-.1,1.34,1.44,1.96,1.15.48,2.01,1.34,2.68,2.63.53,1.05,1.63,2.25,2.44,2.68.81.38,2.44,1.63,3.64,2.68,2.2,2.06,5.22,2.97,7.23,2.25,1.58-.57,1.68.34.24,1.48-.96.72-1.72.96-2.78.77-.77-.14-1.77-.05-2.15.19-.57.38.14,1.29,3.78,4.79,2.44,2.35,4.74,4.31,5.03,4.31.34,0,1.68-.34,3.02-.72,2.73-.81,3.5-2.06,3.16-5.08-.14-1.1,0-1.87.48-2.25.62-.53.86-.29,1.53,1.53.43,1.15.67,2.35.48,2.63-.14.29.14,1.1.67,1.77,1.2,1.53,1.29,3.16.29,4.69-.91,1.34-.62,2.63,1.87,9.62,1.2,3.4,1.72,5.6,1.72,7.52,0,2.35.19,2.97,1.39,4.31.72.86,2.06,2.97,2.92,4.69s2.11,3.74,2.78,4.45c1.25,1.29,1.44,1.92,2.92,10.3.29,1.44.86,2.49,2.01,3.59,2.01,1.82,5.7,10.34,6.08,13.84.14,1.53.57,2.59,1.34,3.3.62.57,1.15,1.48,1.15,1.92,0,1.1,1.39,1.87,3.5,1.87,1.48,0,1.72-.19,2.49-2.15.43-1.25,1.53-2.78,2.44-3.5.96-.77,1.63-1.72,1.63-2.35,0-.57.24-1.2.48-1.34.29-.19.38-.72.24-1.25-.24-.72-.05-.91.86-.91,1.87,0,2.49-1.15,1.82-3.3-.77-2.68-.67-5.22.48-8.57.81-2.39.91-3.26.48-4.31-.24-.72-.48-2.3-.48-3.5s-.24-3.11-.53-4.26c-.86-3.21.57-5.75,3.26-5.75.67,0,1.01-.43,1.25-1.48.24-1.29.43-1.44,1.44-1.2,1.48.38,3.4-1.15,4.12-3.3.29-.91,1.1-2.11,1.82-2.68.72-.53,1.39-1.44,1.53-2.01.14-.62.72-1.1,1.29-1.2.62-.1,1.63-1.1,2.54-2.54,1.58-2.44,7.09-7.61,8.09-7.61.34,0,1.1-.53,1.72-1.2.96-.96,1.2-1.63,1.2-3.74,0-1.92.24-2.78.86-3.35.48-.48,1.05-.81,1.29-.81s.81-.38,1.29-.81c.77-.67,1.01-.72,1.29-.19.29.48.67.53,1.25.14.48-.24,1.68-.34,2.68-.24,2.25.34,4.26-.14,4.26-1.01,0-.43.38-.57,1.15-.43.62.14,1.29,0,1.44-.29.19-.29.77-.53,1.25-.53.67,0,.96-.43,1.05-1.77.1-1.44.34-1.82,1.1-1.82,1.53,0,3.21,4.02,3.3,7.85.05,2.87.24,3.4,1.92,5.55,1.01,1.29,1.92,2.49,1.96,2.54.1.1.81-.19,1.63-.67,1.82-1.05,3.5-.43,4.6,1.68.67,1.34.67,1.48-.24,1.96-1.87,1.01-.72,3.3,1.25,2.54,1.25-.48,2.92,1.68,4.02,5.17.96,2.87,1.01,3.64.53,5.17-.72,2.44-.67,4.6.14,5.27.38.34,1.92.48,3.88.38,2.87-.14,3.4-.34,4.31-1.44.53-.72,1.34-1.29,1.82-1.29.62,0,.81-.43.81-1.92,0-2.39,1.15-3.11,2.49-1.48.48.62.86,1.44.86,1.87s.57,1.34,1.25,2.06c.96,1.01,1.34,2.01,1.63,4.36.19,1.68.72,3.88,1.2,4.93.53,1.2.72,2.44.53,3.54-.24,1.44-.05,1.87.96,2.68,1.1.91,1.2,1.29,1.25,5.32.1,3.88.19,4.41,1.05,4.79,1.39.57,1.53,2.06.34,2.87-1.29.91-1.34,3.5-.1,5.03.91,1.1.91,1.15-.19,3.06-.77,1.34-1.15,2.83-1.25,4.79-.1,2.83-.1,2.87,1.15,2.73,1.01-.1,1.87.48,4.21,2.87,1.58,1.68,3.26,3.64,3.64,4.45.38.77,1.29,2.01,1.96,2.78,1.01,1.05,1.34,2.01,1.68,5.03.24,2.01.38,4.21.38,4.84-.05.62.57,1.82,1.34,2.68s1.87,3.02,2.44,4.79c.81,2.39,1.34,3.3,2.3,3.74.72.34,2.2,1.48,3.3,2.59,1.15,1.1,3.06,2.3,4.31,2.73,2.01.67,2.35.67,3.35.05.81-.53,1.1-1.2,1.1-2.44,0-1.63-.48-2.35-3.06-4.41-.62-.48-.77-1.63-.77-5.75,0-4.41-.19-5.46-1.15-7.61-.67-1.34-1.72-2.83-2.35-3.26-.67-.43-1.29-1.2-1.44-1.68-.14-.57-.67-.96-1.2-.96-.62,0-1.15-.48-1.44-1.39-.38-1.01-.96-1.53-2.35-1.96-3.06-.91-3.88-1.48-4.74-3.3-.43-.96-1.44-2.78-2.25-4.02-.77-1.25-1.58-2.97-1.72-3.83-.24-1.05-.67-1.58-1.44-1.77-.81-.19-1.39-.91-2.01-2.54-1.05-2.68-.77-4.5,1.25-8.33,1.01-1.87,1.2-2.87,1.2-6.42,0-3.78.1-4.26,1.05-4.93.57-.43,1.58-.77,2.15-.77,1.01,0,1.1.19,1.01,2.01l-.14,2.01,2.35.38c1.63.24,2.73.72,3.5,1.53.62.67,1.63,1.25,2.25,1.25.72,0,1.29.43,1.63,1.2.29.67.77,1.2,1.05,1.2.24,0,.48.86.48,1.92,0,1.53.19,1.92.86,1.92.48,0,1.25.62,1.68,1.44.67,1.1,1.2,1.44,2.39,1.44,1.05.05,2.11.57,3.3,1.63,1.72,1.48,1.77,1.63,1.25,3.26-.67,2.25-.14,5.17.96,5.17s1.77-.53,2.44-1.82c.29-.57.86-1.05,1.25-1.05.86,0,4.55-4.64,4.55-5.75,0-1.2.86-1.72,3.3-2.11,2.87-.43,3.45-.81,5.75-3.78,1.96-2.59,1.96-2.68,2.06-6.61.05-4.88-.43-7.47-1.58-9-.53-.62-.91-1.68-.91-2.3,0-1.34-1.05-3.54-2.11-4.41-.43-.38-.77-1.15-.77-1.82,0-.81-.48-1.39-1.48-1.96-.81-.43-2.39-1.53-3.5-2.39-1.05-.86-2.49-1.92-3.11-2.39-2.59-1.92-3.88-3.4-3.88-4.6,0-.91-.24-1.25-.96-1.25-.53,0-.96-.19-.96-.43s-.38-.81-.81-1.25c-.43-.48-.96-2.11-1.2-3.69-.38-2.78-.34-2.97,1.05-4.55,1.01-1.1,1.44-2.11,1.44-3.26,0-1.39.19-1.68,1.05-1.68.57,0,1.58-.53,2.25-1.15,1.82-1.63,5.12-2.83,6.27-2.2.48.24,1.39.43,2.01.34,1.01-.1,1.1.05.96,1.68-.14,1.72.53,3.64,1.53,4.31.86.57,3.02.43,3.59-.29.34-.38.43-1.48.24-2.83-.43-3.06.19-3.69,3.59-3.69,1.63,0,3.5-.38,4.79-.96,1.15-.53,2.35-.96,2.73-.96.34,0,1.01-.53,1.44-1.2.67-1.01,1.01-1.15,2.78-.91,2.11.29,4.02-.38,6.46-2.25.62-.53,1.87-.91,2.78-.91,1.25,0,1.72-.24,2.01-1.1.24-.57,1.53-1.96,2.87-3.11s2.44-2.39,2.44-2.78.77-1.15,1.68-1.68c1.15-.72,1.68-1.34,1.68-2.15,0-.67.48-1.44,1.15-1.87,1.1-.72,1.15-1.05,1.2-5.27,0-2.92.24-4.98.67-5.84.38-.72.81-1.96,1.01-2.68.19-.81.77-1.48,1.48-1.77.62-.24,1.29-.96,1.39-1.53.43-2.2.77-7.47.48-8.19-.19-.48-1.29-.81-3.59-1.05-3.64-.38-4.07-1.01-1.34-1.92,1.25-.43,1.68-.86,1.77-1.87.1-.72-.05-1.58-.29-1.87-.24-.34-.57-1.53-.77-2.68-.43-2.78-1.05-3.88-2.25-3.88-2.3,0-4.74-2.01-6.46-5.32-2.2-4.21-4.45-6.75-6.85-7.85-3.06-1.34-3.06-1.68.57-8.09.86-1.58,1.44-1.96,3.21-2.39,1.63-.38,2.3-.86,2.78-1.87,1.01-2.11.43-2.92-1.77-2.54-1.25.19-2.35.05-3.21-.43-2.59-1.34-6.56-.67-7.04,1.15-.14.57-.57,1.01-1.01,1.01-.96,0-4.45-3.11-4.84-4.36-.19-.62-.77-.91-1.72-.91-1.72,0-5.7-3.02-5.7-4.31,0-.67.48-.81,2.97-.86,2.01-.05,3.16-.29,3.69-.81.72-.72.72-.81-.05-1.39-1.2-.86-1.1-1.39.53-2.59.77-.57,1.63-1.72,1.92-2.59.43-1.34.91-1.72,2.68-2.25,2.44-.72,3.11-.43,4.31,1.87.57,1.15.57,1.44-.29,2.87-.81,1.29-.91,1.77-.43,2.92.34.72.43,1.96.24,2.78-.53,2.54,1.15,1.87,3.59-1.44.48-.67,1.92-1.63,3.21-2.11,2.01-.77,2.63-.81,5.89-.29,1.96.34,3.93.81,4.36,1.05,1.15.57,1.48,2.49.91,4.88-.38,1.44-.38,2.44-.05,3.35.48,1.29.62,1.34,3.74,1.25,4.07-.14,6.08.67,6.27,2.63.1.77-.05,1.58-.34,1.87-.96.96-.57,2.63.86,3.64,1.44,1.05,2.44,3.83,2.44,6.9,0,4.02,1.39,6.56,3.59,6.56,1.48,0,1.82-.57,1.2-2.15-1.1-2.87.43-4.02,5.99-4.5,2.97-.24,3.4-.43,3.93-1.48.77-1.68.1-4.55-1.48-6.18-.67-.72-1.25-1.63-1.25-2.01s-2.44-3.11-5.41-6.08c-4.12-4.07-5.75-5.36-6.7-5.36-1.39,0-2.06-.77-1.87-2.06.1-.53-.14-.81-.81-.81-.53,0-1.25-.48-1.53-1.05-.48-.91-.43-1.15.53-1.77.62-.43,1.82-1.44,2.68-2.3,1.92-1.77,2.15-3.88.67-6.13-1.15-1.72-1.2-2.92-.19-3.3.43-.19.67-.62.48-1.01-.14-.38,0-.72.34-.72s.81-.67,1.05-1.53c.29-.81.91-1.77,1.44-2.11.81-.53,1.25-.43,3.06.77,3.4,2.3,5.75,1.92,9.43-1.53,1.34-1.25,1.48-1.63,1.29-3.45-.19-1.39,0-2.44.48-3.21.38-.62.86-1.92,1.05-2.83.14-.91.67-2.59,1.05-3.74.62-1.72.67-2.54.19-5.36-.77-4.64-.67-5.75.53-7.04.86-.96.96-1.29.48-1.96-.29-.43-1.25-2.2-2.01-3.93-.81-1.72-2.2-3.88-3.06-4.79-1.96-2.01-2.92-3.88-3.69-6.99-.38-1.68-1.1-2.87-2.54-4.26-1.05-1.05-2.68-2.92-3.5-4.21-.96-1.34-1.92-2.25-2.44-2.25s-1.63-.48-2.54-1.1c-1.92-1.29-7.37-3.11-9-3.02-1.1.05-1.63.62-2.15,2.3-.38,1.34-1.87,1.01-2.78-.57-.67-1.15-1.15-1.44-2.44-1.44-1.15,0-1.96-.38-2.97-1.44-1.29-1.34-1.63-1.44-4.69-1.44s-3.3-.05-3.02-1.1c.14-.57.29-1.44.29-1.87,0-.53.67-1.15,1.68-1.53,1.25-.53,1.68-1.01,1.68-1.82,0-.62.19-1.39.43-1.77.29-.43.24-1.01-.05-1.48-.72-1.1-.14-2.39,1.05-2.39.62,0,.96-.34.96-.96,0-.53.24-1.39.57-1.92.43-.72.43-1.15-.05-2.06-.53-.96-.48-1.44.29-3.02l.86-1.87h6.7c3.69-.05,6.99-.19,7.33-.43.34-.19,1.05-.19,1.68.05.57.19,2.15.38,3.45.43,1.34.05,2.83.14,3.35.24.77.14.91-.05.81-.81-.05-.57.19-1.29.57-1.58.62-.53,1.05-.43,2.39.43,1.39.81,2.11.96,3.93.67,2.49-.38,3.69.43,3.21,2.2-.24.86,0,.96,1.96.96,1.25,0,2.63-.19,3.11-.43.48-.29,1.1-.29,1.48-.05.48.29,1.01.19,1.53-.34.53-.43,1.87-.77,3.59-.81,2.15-.05,2.83-.24,2.92-.86.14-.81-.96-1.2-4.69-1.44-1.44-.14-1.68-.34-1.82-1.48-.1-.77.1-1.68.48-2.11.38-.48.57-1.77.43-3.78l-.14-3.06h2.35c1.25.05,3.54-.1,5.03-.29,2.68-.29,2.73-.24,4.74,1.68,1.15,1.1,2.54,1.96,3.11,1.96s1.15.34,1.34.72c.43,1.2,2.15.86,2.78-.62.34-.72.96-1.82,1.44-2.44,1.2-1.58,1.1-1.82-1.05-2.92-1.05-.53-1.92-1.15-1.92-1.39,0-.48,3.74-1.15,4.36-.72.24.14,1.29,1.39,2.35,2.73,1.05,1.39,2.39,3.06,2.97,3.78l1.05,1.34-1.1,1.15c-1.34,1.39-1.92,4.07-1.96,8.57,0,4.02-.53,5.12-2.39,5.12-1.58,0-1.68.14-.96,1.44.29.53.57,1.87.62,2.97.19,2.97,3.59,7.13,10.49,12.64,3.11,2.49,6.13,5.27,6.7,6.18.62.91,2.44,2.39,4.17,3.35,1.77,1.05,4.64,3.4,6.85,5.7,4.31,4.45,4.84,4.41,4.6-.48-.14-2.3-.48-3.3-1.48-4.64-.72-.96-1.29-1.82-1.29-1.96,0-.1.57-.29,1.34-.38,1.92-.19,2.06-2.39.29-4.26-1.68-1.77-1.29-2.73,1.34-2.92,2.68-.19,3.02-1.44.77-2.59-.86-.43-2.59-1.68-3.83-2.78-2.39-2.01-2.35-2.68.24-2.68.77,0,1.44-.34,1.63-.77.38-1.01-2.11-3.02-3.78-3.06-.86,0-1.63-.48-2.39-1.48-2.49-3.35-4.21-4.84-5.22-4.6-2.2.57-5.7-1.82-5.7-3.93,0-.67-.62-1.82-1.44-2.68-1.68-1.72-1.58-3.45.19-2.87,2.44.81,3.4.53,3.88-1.1.57-1.96,2.06-1.96,3.02,0,.86,1.82,1.77,1.68,2.83-.48.67-1.34,1.2-1.82,2.25-1.92,2.68-.34,5.55.43,7.13,1.77,1.63,1.39,4.41,2.25,4.88,1.48.14-.24-.05-1.1-.48-1.92-.67-1.29-.67-1.48,0-1.72.38-.14.72-.81.72-1.48,0-1.96.86-3.02,2.44-3.02,1.05,0,1.53-.29,1.87-1.15.24-.67.86-1.44,1.44-1.72.53-.29.96-.96.96-1.44,0-1.01,1.15-1.29,1.68-.48.14.24,1.29.48,2.54.48s2.97.19,3.78.43c.86.24,2.15.29,2.87.1,1.29-.34,1.05-.57-5.12-5.17-7.66-5.7-22.41-15.71-33.76-22.89l-8.14-5.17-5.51-.05c-4.45-.05-5.84-.24-7.18-.96-1.82-1.01-5.6-1.1-10.34-.38-1.68.29-3.11.19-4.5-.19-2.68-.81-7.81-1.01-8-.34-.34.91,1.92,2.06,3.93,2.06,2.25,0,4.07,1.1,4.07,2.44,0,1.2-1.63,1.2-4.07-.05-1.05-.53-2.73-.96-3.74-.96s-2.68-.48-3.74-1.1c-1.63-.91-1.87-1.2-1.58-2.35.24-1.15.14-1.29-.62-1.01-.48.14-1.48.81-2.2,1.44-1.63,1.29-1.72,1.29-10.1.34-4.88-.57-6.94-.62-8.04-.24-.81.29-2.87.53-4.5.53-2.78,0-3.21-.14-4.84-1.63-2.59-2.25-3.21-2.49-9.29-3.78-7.28-1.58-16.33-2.01-19.2-1.01-2.49.91-5.51.67-8.52-.72-1.2-.53-2.92-1.01-3.83-1.01s-2.92-.34-4.41-.67c-1.48-.38-2.83-.57-2.97-.43-.1.14-.48.1-.77-.1-.38-.24-.38-.53.05-1.01.29-.38.48-.77.38-.86-.1-.14-1.82-.43-3.83-.72-1.96-.29-3.97-.62-4.41-.81-.62-.24-1.01.14-1.53,1.44-.86,2.01-2.39,2.44-2.06.53.38-1.92-.67-2.35-6.23-2.49-2.83-.1-7.47-.48-10.39-.91-4.98-.67-5.32-.67-5.89.14-.34.48-1.01.81-1.53.72-.48-.1-1.01.1-1.2.38-.48.81.67,1.92,2.06,1.92.67,0,1.68.53,2.3,1.25l1.15,1.2-7.04-.14c-3.93-.05-8.28.05-9.72.29-2.39.34-2.97.29-5.17-.86-1.34-.67-2.59-1.25-2.73-1.25-.53,0-.19,1.15.57,2.01.67.77.72.96.1,1.58-1.01,1.01-7.13.19-8.86-1.15-.72-.53-1.63-1.01-2.01-1.01-.43,0-2.15-.72-3.88-1.58-2.59-1.25-3.69-1.53-6.13-1.48-3.74.05-4.5-.91-1.58-2.06,2.83-1.1,2.39-2.2-.96-2.59-1.44-.14-3.02-.43-3.45-.62s-1.34-.05-2.06.29c-1.05.57-1.77.53-5.65-.43-4.12-1.05-6.56-1.1-6.56-.24,0,.53,3.16,2.01,4.21,2.01s2.87,1.25,2.44,1.63c-.14.19-1.44,0-2.87-.34-1.44-.38-5.46-.67-8.95-.72-6.03-.1-6.51-.19-9.24-1.53-2.68-1.29-3.21-1.39-9.19-1.48-4.12-.05-6.75.1-7.42.48-.91.48-1.29.38-2.68-.67-1.82-1.39-2.35-1.48-3.16-.48s-2.54.91-3.97-.24c-1.58-1.25-5.6-.86-5.6.53,0,.43.38.96.86,1.05.53.14.38.24-.43.29-.72,0-2.2.38-3.3.77-2.97,1.05-3.93.96-3.74-.34.1-.62.53-1.15,1.1-1.25.53-.1,1.63-.81,2.39-1.58.81-.72,2.2-1.63,3.11-1.96,3.83-1.29,5.75-3.11,4.26-3.97-.24-.19-.67-.86-.91-1.44-.34-.86-.91-1.2-2.25-1.44-1.01-.14-3.54-.81-5.65-1.44-4.17-1.34-7.47-1.48-12.93-.67q-5.75.86-5.6-.72.19-1.39-1.96-1.1c-3.06.43-5.6-.1-6.03-1.25-.34-.86-.91-.96-5.46-1.15-4.69-.19-5.08-.14-5.55.77ZM144.23,162.21c.34.53.86.96,1.2.96s.81-.43,1.1-.96.81-.96,1.2-.96c.86,0,.86.38,0,1.92-1.25,2.15-.91,4.12.91,5.51,2.25,1.68,2.44,2.49.96,3.83-1.01.91-1.2,1.48-1.1,3.3.1,1.2.05,2.25-.1,2.35-.1.14-1.1.34-2.15.53-1.58.24-2.06.14-2.3-.48s-.77-.72-2.92-.43c-2.59.29-2.63.29-2.63-.91,0-.72-.38-1.44-.96-1.72-.91-.48-1.01-.91-.86-4.45l.14-3.93,1.39-.14c.86-.1,1.44-.53,1.58-1.1.14-.48.67-.91,1.2-.91.72,0,.86-.24.62-.96-.34-1.1.48-2.39,1.48-2.39.38,0,.91.43,1.25.96Z"/>
      <path class="cls-1" d="M185.36,15.16c-.34.24-.48.67-.34.96.38.62,2.2-.14,2.2-.91,0-.57-.96-.62-1.87-.05Z"/>
      <path class="cls-1" d="M323.41,20.23c-.19.38.29,1.48.96,2.39,1.1,1.39,1.58,1.68,3.11,1.68,1.05,0,2.35.38,2.97.86,1.82,1.39,2.63,1.53,5.32.86,4.07-1.05,7.9-1.34,9.62-.81,1.68.57,5.17-.29,5.51-1.34.29-.91-.91-2.01-2.01-1.87-1.92.24-11.06-1.1-12.88-1.87-2.01-.86-2.73-.53-1.87.81.72,1.2.77,1.2-3.06-.24-3.64-1.39-7.23-1.58-7.66-.48Z"/>
      <path class="cls-1" d="M318.91,21.67c0,.81,1.05,2.15,1.72,2.15,1.2,0,.62-2.11-.62-2.3-.62-.1-1.1-.05-1.1.14Z"/>
      <path class="cls-1" d="M353.87,23.35c0,.91,1.48,1.44,4.12,1.44,1.92,0,3.69.34,5.03.96,2.39,1.05,7.09,1.29,8,.38,1.25-1.25.62-1.82-2.01-1.82-1.39,0-3.3-.34-4.26-.72-1.63-.67-10.87-.91-10.87-.24Z"/>
      <path class="cls-1" d="M343.33,28.37c0,.53.53.72,1.82.72,1.68-.05,1.72-.1.86-.72-1.25-.91-2.68-.91-2.68,0Z"/>
      <path class="cls-1" d="M347.88,30.53c-.48.53-.77,1.05-.67,1.15s2.35.43,4.93.72c2.63.29,5.27.67,5.94.86.91.19,1.1.1.96-.57-.19-1.01-3.93-2.35-7.76-2.83-2.15-.29-2.63-.19-3.4.67Z"/>
      <path class="cls-1" d="M469.17,47.34c-1.15.67-1.05,1.2.19,1.58,1.44.34,2.25-.48,1.34-1.39-.53-.48-.96-.53-1.53-.19Z"/>
      <path class="cls-1" d="M548.28,119.45c0,.62,2.54,3.02,3.21,3.02,1.29,0,.57-1.29-1.39-2.54-1.44-.86-1.82-1.01-1.82-.48Z"/>
      <path class="cls-1" d="M555.94,120.74c0,.67,1.72,2.2,2.54,2.2.19,0-.1-.67-.72-1.44-1.15-1.58-1.82-1.82-1.82-.77Z"/>
      <path class="cls-1" d="M458.45,122.71c-.19.48.14,1.25.91,2.06.91.91,1.2,1.63.96,2.39-.19.86.48,1.82,3.5,5.03,2.01,2.15,4.55,4.5,5.6,5.22,1.87,1.29,5.08,5.75,5.12,7.04,0,.34.86,1.44,1.92,2.39,1.2,1.1,2.39,2.83,3.11,4.6.91,2.35,1.39,2.92,2.54,3.21,1.2.34,1.44.67,1.72,2.25.14,1.05,1.01,2.87,1.96,4.07.91,1.25,1.68,2.49,1.68,2.87,0,.86,1.58,2.2,2.54,2.2.53,0,.81-.38.81-1.2,0-1.39.72-1.53,3.21-.62,1.15.43,1.72.43,2.11.05s.05-.81-1.29-1.48c-2.87-1.48-8.33-6.7-8.33-8,0-.57-.43-1.63-.96-2.3-1.15-1.44-1.2-2.06-.24-2.44,1.05-.38,2.83.43,4.17,1.87.77.81,1.44,1.15,1.96.91,1.2-.43,1.01-.96-.72-2.15-.86-.57-2.68-2.11-4.07-3.4-1.34-1.25-2.73-2.3-3.06-2.3-1.25,0-3.69-2.44-5.17-5.22-1.25-2.39-1.87-3.02-2.97-3.26-.77-.14-1.63-.67-1.92-1.15-.24-.53-.77-.91-1.1-.91-.38,0-1.15-.96-1.72-2.15-1.05-2.2-5.08-5.99-6.37-5.99-.43,0-1.25-.62-1.87-1.39-.62-.72-1.68-1.72-2.39-2.2-1.25-.77-1.34-.77-1.63,0Z"/>
      <path class="cls-1" d="M586.78,131.13c-.34.62.62,1.39,1.72,1.39.81,0,2.25-.81,1.92-1.1-.62-.53-3.35-.72-3.64-.29Z"/>
      <path class="cls-1" d="M592.81,133.24c0,.86,1.15,1.44,1.87,1.01.77-.48.05-1.72-.96-1.72-.48,0-.91.34-.91.72Z"/>
      <path class="cls-1" d="M611.77,135.73c-.53.53-.29,1.1.43,1.1.38,0,.72-.19.72-.43,0-.62-.77-1.05-1.15-.67Z"/>
      <path class="cls-1" d="M527.35,140.52c-.77.29-.81,1.58-.14,1.58.53,0,1.25-1.34.91-1.63-.1-.1-.48-.05-.77.05Z"/>
      <path class="cls-1" d="M529.46,142.34c-1.01,1.01-1.48,2.63-.96,3.16.86.86,3.02-.38,3.02-1.68,0-1.63-1.1-2.44-2.06-1.48Z"/>
      <path class="cls-1" d="M529.89,147.75c-.14.29-.05.67.24.81.72.48,1.2-.14.57-.77-.34-.34-.62-.34-.81-.05Z"/>
      <path class="cls-1" d="M523.09,166.81c-.53.77-.67,1.34-.34,1.68.67.67,2.06,0,2.06-1.05,0-.48.24-.91.48-.91.29,0,.48-.24.48-.48,0-.96-1.92-.43-2.68.77Z"/>
      <path class="cls-1" d="M516.87,170.64c-.86,1.25-1.1,3.74-.48,4.36.53.53,1.96-.57,2.11-1.63.1-.57.57-1.39,1.1-1.87,1.34-1.2,1.15-2.11-.53-2.11-1.01,0-1.68.38-2.2,1.25Z"/>
      <path class="cls-1" d="M491.78,170.59c-.53.62-.34,1.01,1.15,2.35,1.1,1.1,1.72,2.11,1.72,2.87,0,.67.24,1.25.48,1.25.53,0,1.25,1.53,1.53,3.16.1.62-.14.91-.86.96-1.72.1-2.15.62-1.58,1.72.43.77.34,1.25-.48,2.35-.57.72-1.01,1.63-1.01,2.01,0,.91,1.01,1.77,2.06,1.77.48,0,1.48.67,2.2,1.44,1.2,1.34,1.39,1.44,2.97.91.91-.34,1.82-.77,2.06-.96.67-.57-1.01-2.2-2.83-2.83-1.48-.48-2.49-1.72-1.92-2.3.14-.14.81,0,1.48.34,1.05.48,1.44.43,2.11-.19,1.15-1.05,1.82-.91,4.02.86,4.21,3.45,5.55,3.5,5.55.19,0-2.39.53-3.06,2.63-3.3,1.05-.1,1.48-.43,1.58-1.25.1-.62-.05-1.39-.34-1.72s-.38-1.29-.24-2.11c.38-1.96-.1-3.26-.91-2.59-.34.29-2.06.67-3.78.86-2.92.29-3.45.19-6.32-1.15-1.77-.81-4.41-2.35-5.89-3.45-2.83-2.01-4.41-2.39-5.41-1.2Z"/>
      <path class="cls-1" d="M502.31,192.09c-.91.34-1.68.86-1.68,1.2,0,.29-.34.77-.72,1.01-.57.34-.57.57-.1,1.05.29.29.57,1.48.57,2.54,0,1.96,1.05,3.59,2.25,3.59.57,0,1.1,3.35,1.15,7.33.05,1.92-.19,3.06-.72,3.64-.43.48-.77,1.1-.77,1.39,0,.77-1.87,1.68-2.73,1.34-.43-.19-.62-.67-.48-1.25.29-1.05-.53-1.48-1.68-.86-.62.29-.86,1.01-.86,2.35,0,1.05-.34,2.68-.72,3.59-.38.96-.57,2.25-.43,2.87.34,1.34.24,1.39-1.92.38-1.48-.72-2.06-.77-5.41-.14-3.64.62-3.83.72-6.37,3.35-1.44,1.53-3.06,2.83-3.54,2.92-1.2.19-1.44.91-.62,2.01.96,1.29,6.13,1.48,7.71.24.62-.48,1.58-.91,2.11-.91.48,0,1.44-.38,2.06-.91.77-.57,2.25-.96,4.64-1.1l3.45-.24v2.01c0,2.06.72,3.11,2.59,3.78,1.05.38,3.16-.86,3.16-1.87,0-.34.38-1.01.81-1.48.77-.77.72-.86-.53-1.87-.77-.62-1.2-1.34-1.05-1.63.57-.91,2.06-.57,2.87.72.81,1.15.96,1.2,4.26.86,3.64-.34,5.03-.96,4.17-1.82-1.44-1.44.43-2.83,1.96-1.44.96.86,1.01.86,1.92-.24,1.2-1.48,1.15-2.59-.29-4.26-.77-.91-1.44-2.54-1.72-4.26-.29-1.53-.81-3.5-1.2-4.41-.62-1.44-.57-1.72.1-2.49.72-.81.72-1.05-.29-3.64-2.01-5.08-3.21-7.09-5.22-8.67-1.05-.86-2.35-1.53-2.78-1.44-.72.1-.86-.19-.86-1.77,0-2.15-.53-2.44-3.11-1.48Z"/>
      <path class="cls-1" d="M37.35,222.31c-.34.38-1.29.72-2.15.72-1.72,0-3.4,1.48-2.97,2.63.19.48.91.72,2.15.72,3.54,0,7.71-4.26,4.6-4.69-.53-.1-1.29.19-1.63.62Z"/>
      <path class="cls-1" d="M490.53,230.45c-.19.43-.91.72-1.82.72-1.25,0-1.63.29-2.3,1.82-.72,1.53-.77,2.06-.29,3.35.96,2.44,4.17,2.73,3.54.34-.43-1.72.72-2.35,2.83-1.63,2.06.77,2.63.24,2.63-2.59,0-1.48-.19-1.87-1.25-2.25-1.77-.67-3.06-.57-3.35.24Z"/>
      <path class="cls-1" d="M475.11,233.46c-1.01.86-1.39,1.48-1.1,1.77.24.29.53,1.01.62,1.68.19,1.68,1.58,1.77,2.39.14.72-1.53,2.15-1.77,2.97-.53.38.62.38,1.1-.05,1.77-.38.57-.38,1.05-.05,1.39.29.29.29.77-.14,1.39-.48.81-.43,1.15.19,2.11.48.62.81,1.48.81,1.96,0,.81,1.72,2.3,2.63,2.3.57-.05,2.63-3.16,2.63-4.07,0-.38-.24-.81-.53-.96-.29-.19-.48-1.44-.43-2.83.1-3.5.14-3.4-1.25-5.03-.91-1.1-1.63-1.48-2.83-1.48-.91,0-1.77-.24-1.92-.48-.53-.86-2.35-.48-3.97.86Z"/>
      <path class="cls-1" d="M458.74,233.8c-.34.38-.53.86-.38.96.43.48,3.3-.38,3.11-.91-.29-.86-2.01-.86-2.73-.05Z"/>
      <path class="cls-1" d="M483.59,250.61c-.53.67-.48.72.53.57.62-.05,1.2-.43,1.34-.77.24-.81-1.1-.72-1.87.19Z"/>
      <path class="cls-1" d="M481.24,261.81c-1.68,1.68-1.15,2.25,1.34,1.63,1.2-.34,1.44-1.87.34-2.3-.43-.14-1.15.14-1.68.67Z"/>
      <path class="cls-1" d="M143.03,268.9c-.77.86-.77.96-.05,1.53.96.81,2.35.1,2.35-1.25,0-1.25-1.29-1.39-2.3-.29Z"/>
      <path class="cls-1" d="M477.7,271.01c-.53.77-.62,1.2-.19,1.68.72.91,1.34.77,1.34-.29,0-.48.34-1.05.77-1.2.38-.14.57-.48.43-.77-.48-.81-1.58-.53-2.35.57Z"/>
      <path class="cls-1" d="M118.75,272.06c0,.38.19.81.43.96.48.34,1.1-.91.67-1.34-.53-.53-1.1-.29-1.1.38Z"/>
      <path class="cls-1" d="M448.58,279.39c-1.44,1.72-2.87,6.85-2.68,9.53.24,2.83,2.39,6.56,3.64,6.32.38-.1.96-1.15,1.29-2.44s.81-2.54,1.15-2.87c.77-.77.67-2.06-.24-2.97-.67-.62-.72-1.01-.24-1.96,1.68-3.69-.67-8.24-2.92-5.6Z"/>
      <path class="cls-1" d="M399.31,307.78c-3.64,1.92-5.17,5.17-3.54,7.52,1.39,2.01,7.9,1.96,7.9-.05,0-.38.34-.91.72-1.25.43-.34.62-1.01.48-1.48-.19-.57-.05-1.01.43-1.2.77-.29,1.01-2.3.48-3.74-.43-1.1-4.26-.96-6.46.19Z"/>
      <path class="cls-1" d="M452.61,315.59c-.96,1.1-1.1,3.06-.62,6.61.29,1.96.67,4.07.81,4.74.29,1.01.19,1.1-.34.57-.86-.77-2.11-.72-2.83.14-.43.53-.19,1.34,1.29,4.07,1.15,2.11,2.15,3.45,2.78,3.59,3.88.77,3.74.67,3.5,2.3-.38,2.49-.1,2.73,3.26,2.73,2.83,0,3.11.1,4.12,1.44,1.25,1.72,2.11,1.82,2.44.38.29-1.01.34-1.01,1.29-.14,1.01.91,1.29,2.15.48,2.15-.77,0-.53,1.34.34,1.87.77.43.77.53-.1,2.15-.53.91-.81,1.77-.72,1.87.14.14,1.25.38,2.54.53l2.25.34v-1.72c0-.96.24-2.15.53-2.73.43-.77.34-1.15-.48-1.87-.57-.53-1.01-1.53-1.01-2.35,0-1.53-2.25-3.54-3.5-3.06-.38.14-.81-.1-.96-.48-.24-.57-1.01-.77-2.97-.77-2.3,0-2.63-.1-2.63-.96,0-.48-.38-1.15-.91-1.39-.57-.34-.96-1.25-1.15-2.63-.29-1.82-.05-2.59,1.68-5.79l1.92-3.74-1.44-2.92c-.81-1.63-1.68-3.5-1.92-4.17-.48-1.15-.72-1.25-3.83-1.29-2.15-.05-3.54.14-3.83.53Z"/>
      <path class="cls-1" d="M324.04,342.45c-1.05,1.05-1.44,7.61-.57,9.67.48,1.2.96,1.63,1.53,1.53.72-.14.86-.91,1.01-6.03.14-4.98.05-5.84-.53-5.84-.43,0-1.05.29-1.44.67Z"/>
      <path class="cls-1" d="M456.34,342.35c0,.29.53,1.1,1.2,1.92,1.25,1.48,1.53,2.97.72,3.5-.86.53-.53,1.2.62,1.2.62,0,1.48-.38,1.92-.86,1.01-1.1,1.05-4.07.1-4.88s-4.55-1.44-4.55-.86Z"/>
      <path class="cls-1" d="M137.57,345.9c-.34.14-.62.67-.62,1.2,0,.72.34.91,1.68.91.91,0,1.68-.19,1.68-.43s.53-.53,1.2-.62c2.2-.24,1.48-1.1-.96-1.2-1.29-.05-2.68,0-2.97.14Z"/>
      <path class="cls-1" d="M476.07,347.86c-.29.77-.81,2.39-1.1,3.74-.86,3.78-1.48,4.45-4.12,4.64-2.2.14-2.3.19-2.54,1.87-.19.91-.67,2.2-1.1,2.83-1.2,1.68-1.01,2.78.67,4.36,2.25,2.11,3.02,1.87,4.69-1.77.81-1.72,1.72-3.97,2.01-5.03.34-1.05.86-2.11,1.15-2.35.57-.48.91.1,1.87,2.97.34,1.05,2.11,1.15,2.54.1.14-.38.05-1.25-.24-1.82-.38-.86-.34-1.39.19-2.15.77-1.05.57-4.21-.38-6.75-.86-2.25-2.87-2.59-3.64-.62Z"/>
      <path class="cls-1" d="M463.81,347.91c-.19.34-.1,1.39.19,2.44.34,1.29.34,2.3,0,3.16-.72,1.92-.57,3.93.29,4.26.96.38,4.84-2.01,5.12-3.16.38-1.29-1.01-2.83-2.44-2.68-1.05.14-1.29-.1-1.53-1.29-.43-2.06-1.25-3.35-1.63-2.73Z"/>
      <path class="cls-1" d="M453.66,348.72c-.48,1.2.19,2.25,1.34,2.06,1.34-.19,1.58-1.01.62-2.01-.96-.96-1.63-.96-1.96-.05Z"/>
      <path class="cls-1" d="M451.07,356.1c0,.81-.24,1.58-.48,1.72-.29.19-1.1,1.2-1.77,2.3-.72,1.1-2.54,3.3-4.07,4.88-2.63,2.73-3.35,4.17-2.35,4.79.77.43,3.78-1.29,4.07-2.35.14-.57.86-1.34,1.63-1.77,1.01-.57,1.48-1.29,1.72-2.49.19-1.05.62-1.77,1.2-1.92.48-.1,1.25-.96,1.72-1.92.72-1.53.72-1.82,0-3.16-.96-1.87-1.68-1.92-1.68-.1Z"/>
      <path class="cls-1" d="M323.46,356.62c.14.24.62.48,1.01.48s.67-.24.67-.48c0-.29-.43-.48-1.01-.48-.53,0-.81.19-.67.48Z"/>
      <path class="cls-1" d="M474.92,360.98c-1.05.57-1.1,2.63-.1,3.02.38.14,1.25-.1,1.92-.53,2.3-1.48.53-3.93-1.82-2.49Z"/>
      <path class="cls-1" d="M265.28,362.13c-.48.57-.48.91.14,1.82.77,1.2.67,4.5-.24,6.18-.24.53-.24,1.25.1,1.82.38.67.34,1.2-.1,1.87-.48.77-.48,1.29,0,2.59.34.86.57,2.25.57,3.02,0,1.96.77,2.59,3.21,2.59,1.77,0,2.35-.29,4.02-1.92,1.87-1.82,1.96-2.01,1.63-3.93-.19-1.15-.62-2.39-.91-2.78-1.1-1.34-3.16-5.36-3.16-6.23,0-.48-.34-1.1-.77-1.48-.43-.34-1.1-1.39-1.53-2.3-.91-1.92-2.01-2.39-2.97-1.25Z"/>
      <path class="cls-1" d="M481.1,362.71c-.19.14-.34.96-.34,1.82,0,1.82-.62,2.63-3.02,3.97-2.15,1.25-2.73,1.29-2.73.38,0-1.1-.86-1.34-2.63-.77-1.05.34-1.96,1.1-2.39,1.96-.43.77-1.05,1.39-1.39,1.39s-1.2.43-1.92,1.01c-.96.77-1.25,1.39-1.25,2.83,0,2.44,1.44,3.45,2.59,1.82.43-.57.77-1.44.77-1.92,0-1.15.67-1.44,2.06-.91.86.34,1.44.29,2.06-.19,1.05-.77,5.75-.96,6.18-.24.14.24-.24.72-.91,1.01-1.58.72-1.92,1.82-1.25,4.21.43,1.58.91,2.15,3.06,3.35,4.17,2.39,5.27,1.87,3.64-1.72-.53-1.2-.86-2.63-.67-3.11.38-1.34,1.82-.86,2.01.67s1.25,2.54,2.25,2.11c.57-.19.72-1.15.72-4.26,0-3.64-.1-4.12-1.2-5.12-.86-.81-1.1-1.44-.91-2.2.29-1.15-.81-3.35-2.68-5.36-1.05-1.1-1.53-1.29-2.06-.72Z"/>
      <path class="cls-1" d="M525.15,373.72c-.48.43-.43,3.02.05,3.02.38,0,.77-.67,1.92-3.02.24-.43-1.53-.48-1.96,0Z"/>
      <path class="cls-1" d="M330.74,375.87c-.24.77.48,2.3,1.15,2.3s.34-2.49-.34-2.73c-.34-.1-.67.1-.81.43Z"/>
      <path class="cls-1" d="M440.16,377.98c-.62.43-1.05,1.25-1.05,1.96,0,.77-.72,2.15-1.87,3.5-1.01,1.2-1.92,2.63-2.06,3.11-.14.77-.57.96-2.01.96s-1.92.19-2.25,1.05c-.24.62-.72,1.1-1.15,1.1-.38,0-1.1.72-1.53,1.58-1.68,3.11-4.07,6.56-4.93,7.04-.48.29-1.87.48-3.02.48-2.06,0-2.2.1-3.4,2.11-.67,1.2-1.25,2.78-1.25,3.59,0,1.82-.77,2.3-1.92,1.25-.53-.48-1.25-.67-1.82-.53-.57.19-1.2-.05-1.77-.67-1.1-1.25-1.58-1.2-3.3.24-1.25,1.01-1.44,1.53-1.63,4.21-.14,2.2,0,3.5.62,4.6.57,1.15.62,1.72.24,2.2s-.24.91.57,1.82c2.97,3.16,3.26,3.74,3.45,6.85.14,1.96.53,3.35,1.01,3.88.48.48.67,1.2.53,1.87-.19.62-.05,1.15.29,1.25.53.19,4.21-.24,5.6-.62.43-.1.81.29,1.01,1.01.24,1.01.57,1.2,2.15,1.25,1.05.05,2.44-.19,3.11-.53,1.01-.53,1.48-.53,2.87.1.91.38,2.3.72,3.06.77,1.2.1,1.48.38,1.92,2.01.72,2.54,1.82,2.63,4.74.43,2.83-2.06,5.12-6.42,5.12-9.72,0-1.96.19-2.3,2.44-4.31l2.49-2.2.05-3.69c.1-4.64.62-5.36,3.69-5.03,1.44.19,2.54.05,3.06-.34.77-.57.72-.72-.77-2.39-.86-1.01-2.06-2.01-2.63-2.2-.91-.38-1.05-.67-.81-2.35.24-1.63.1-2.06-.96-3.02-1.68-1.58-2.3-5.7-1.05-7.09.48-.53,1.15-.96,1.44-.96.34,0,1.1-.38,1.68-.86l1.1-.91-1.05-.72c-.96-.67-1.01-.81-.29-1.53.43-.43,1.29-.77,1.87-.77.62,0,1.39-.34,1.72-.72.53-.62.43-.96-.48-1.92-.62-.67-1.53-1.2-2.01-1.2-.86,0-3.64-1.68-4.31-2.63-.19-.24-.19-.62-.1-.81.14-.24-.43-1.05-1.25-1.82-1.72-1.63-3.5-1.82-5.17-.67Z"/>
      <path class="cls-1" d="M465.53,380.18c.29.86,1.05.96,2.06.14.91-.67.86-.67-.62-.72-1.05,0-1.53.19-1.44.57Z"/>
      <path class="cls-1" d="M462.18,382.05c-.62.24-.96.62-.81.91.38.62,2.01.62,2.44-.05.48-.81-.43-1.34-1.63-.86Z"/>
      <path class="cls-1" d="M339.69,384.16c-.53,1.29.29,4.07,1.68,5.65.72.81,1.63,2.01,1.92,2.63.34.62,1.53,1.53,2.68,2.01s2.35,1.39,2.68,2.01.96,1.39,1.48,1.72c.53.43.86,1.25.86,2.3,0,2.39.72,3.45,2.68,3.83,2.11.38,2.73,1.39,3.83,6.13.81,3.3,1.05,3.83,2.25,4.21.72.29,1.29.67,1.29.91s.48.91,1.05,1.48,1.53,2.39,2.11,4.02,1.58,3.88,2.25,5.03,1.77,3.16,2.39,4.5c.62,1.29,1.63,2.83,2.25,3.35.57.53,1.34,1.53,1.72,2.25.38.77,1.39,1.63,2.25,2.01,1.68.72,6.56,5.36,6.56,6.27,0,.29.43.96.91,1.39.86.77,1.01.77,2.44.05,1.39-.72,1.58-.72,2.73,0,1.77,1.15,2.06.43,2.06-5.46,0-4.6.1-5.12,1.25-6.61l1.2-1.58-2.06-2.39c-1.29-1.48-2.44-2.39-3.06-2.39-1.29,0-4.02-4.02-4.02-5.84,0-1.39-1.01-2.44-2.15-2.2-1.48.29-1.92-1.2-1.05-3.74.67-2.15.67-2.39,0-3.16-.43-.53-1.44-.86-2.39-.86-1.58,0-1.63-.05-1.34-1.58.38-2.06-.67-3.21-2.87-3.21-1.48,0-1.63-.14-1.77-1.58-.14-1.39-.29-1.53-1.63-1.44-1.15.1-1.72-.14-2.3-1.05-.48-.77-1.25-1.2-2.01-1.2s-1.72-.57-2.49-1.39c-.72-.81-1.96-2.15-2.78-3.06-.86-.91-1.77-2.11-2.06-2.68-.34-.53-.91-1.01-1.29-1.01-1.05,0-4.02-2.49-4.02-3.4,0-.43-.72-1.58-1.58-2.54-1.53-1.63-1.72-1.72-4.74-1.72-2.68,0-3.4-.19-4.6-1.2-1.68-1.39-1.96-1.44-2.3-.48Z"/>
      <path class="cls-1" d="M518.59,389.9c0,.38.43.91.96,1.2.77.43,1.05.38,1.25-.19.14-.38.14-.96-.05-1.25-.43-.72-2.15-.57-2.15.24Z"/>
      <path class="cls-1" d="M489.09,391.34c-.34.81.19,1.77.81,1.44.57-.38.57-2.15-.05-2.15-.29,0-.62.34-.77.72Z"/>
      <path class="cls-1" d="M341.37,399.53c-.48.62-.48.81.1,1.2.38.24,1.05.43,1.48.43s1.1.14,1.53.29c1.05.43,1.01-.91-.1-1.87-1.1-1.01-2.2-1.05-3.02-.05Z"/>
      <path class="cls-1" d="M497.57,401.35c-.48.57-.48,1.05-.1,1.96.77,1.72,1.25,1.68,1.39-.19.19-1.92-.48-2.78-1.29-1.77Z"/>
      <path class="cls-1" d="M494.98,404.41c-.48.48-1.15,1.92-1.58,3.16-.72,2.01-.72,2.39,0,4.12,1.05,2.68.96,3.69-.53,5.46l-1.25,1.48,1.63.14c.91.1,2.01.53,2.44.91.67.62,1.01.62,1.53.14.62-.48.62-.72-.24-1.87-.62-.81-.91-1.87-.81-2.73.1-1.15.38-1.44,1.58-1.53,2.49-.24,2.73-.43,2.11-1.58-.38-.77-.38-1.29.05-2.11.29-.57.48-1.68.38-2.44-.14-1.39-.72-1.63-2.39-.91-.67.24-.86.1-.86-.62,0-1.25-.48-2.49-.96-2.49-.19,0-.67.38-1.1.86Z"/>
      <path class="cls-1" d="M480.67,406.66c-.29.67-.81,1.2-1.2,1.2-.34,0-.86.53-1.1,1.2-.43,1.1-.62,1.2-3.93,1.1-1.92,0-3.93-.24-4.45-.53s-2.35-.81-4.02-1.15c-3.06-.62-3.11-.62-4.21.53-.62.67-1.96,1.48-3.02,1.77-1.87.57-2.49,1.44-2.3,3.3.19,2.35-.19,5.27-.81,5.84-.38.34-1.01.91-1.44,1.25-.48.43-.72,1.48-.72,3.21s-.34,3.11-1.01,4.26c-.57,1.01-.91,2.3-.81,3.26.14,1.44.29,1.58,1.68,1.48,3.02-.24,3.88,3.26,2.01,8.24-.53,1.48-.86,2.97-.72,3.35.34.91,4.36,1.01,4.88.14.24-.34.43-3.88.43-7.95.1-7.47.34-8.48,1.96-8.14.77.14.91.62.91,3.5,0,3.11.05,3.3,1.2,3.59.86.24,1.15.57,1.05,1.25-.1.48-.24,1.53-.24,2.35-.1,1.25.1,1.44,1.2,1.58,1.05.14,1.44-.1,1.82-1.1.38-1.05.72-1.25,2.01-1.1,1.34.14,1.58-.05,1.72-1.01.14-.72-.29-1.58-1.15-2.49-1.2-1.25-1.25-1.48-.67-2.59s.48-1.34-1.63-3.83c-2.59-2.97-2.63-4.17-.14-4.98.81-.34,2.25-1.25,3.11-2.11s2.06-1.53,2.63-1.53c1.25,0,1.72-1.72.72-2.49-.86-.72-5.65-.19-5.65.62,0,.38-.77.67-2.01.77-1.63.1-2.06.34-2.06,1.05,0,1.34-1.39,2.06-2.39,1.25-.43-.34-.67-.91-.53-1.25s-.24-1.01-.86-1.48c-.77-.57-1.2-1.53-1.39-2.87-.34-2.83.24-3.21,4.17-2.49,2.63.48,3.4.48,5.03-.14,1.1-.43,2.11-.57,2.49-.34.96.57,7.47.53,8.62-.05.96-.53,3.78-5.7,3.78-6.94s-2.35-.91-2.97.48Z"/>
      <path class="cls-1" d="M232.58,411.79c-.34,1.29-.05,1.87.86,1.48.91-.34.96-2.54.05-2.54-.34,0-.77.48-.91,1.05Z"/>
      <path class="cls-1" d="M383.75,415.57c-.14.29-.1.72.19,1.01.72.72,2.2.24,2.39-.72.14-.57-.14-.81-1.05-.81-.67,0-1.34.24-1.53.53Z"/>
      <path class="cls-1" d="M354.2,416.29c-.67.67-.34,1.68.53,1.53.43-.1.81-.48.81-.81,0-.77-.86-1.2-1.34-.72Z"/>
      <path class="cls-1" d="M507.86,419.21c-.43.43-.34,1.58.14,1.58.57,0,1.05-1.34.57-1.63-.24-.14-.53-.14-.72.05Z"/>
      <path class="cls-1" d="M355.45,420.17c-1.53.53.14,3.5,1.92,3.5.96,0,.96.05.29-1.82-.53-1.53-1.2-2.01-2.2-1.68Z"/>
      <path class="cls-1" d="M472,422.13c-1.15,1.25-1.01,1.53.77,1.53,1.87,0,3.16-.72,2.49-1.34-1.05-1.01-2.49-1.05-3.26-.19Z"/>
      <path class="cls-1" d="M493.31,422.8c-.67.67-.77,2.11-.14,2.54.24.14.62,0,.77-.29.19-.24,1.05-.43,1.96-.34.86.05,1.63-.05,1.63-.24v-.72c0-.48-2.11-1.53-3.02-1.53-.34,0-.86.24-1.2.57Z"/>
      <path class="cls-1" d="M388.58,423.71c-1.25.77-2.01,1.82-2.11,2.92-.05.19.77.38,1.72.48,1.48.1,1.82.38,2.11,1.48.38,1.48,3.11,4.5,3.59,4.02.19-.14.43-1.2.53-2.35.24-1.87.1-2.15-1.01-2.73-.67-.38-1.25-1.1-1.25-1.58,0-1.2-.77-2.59-1.53-2.87-.34-.14-1.25.14-2.06.62Z"/>
      <path class="cls-1" d="M478.22,424.09c-.1.53,0,1.15.29,1.44.67.67,3.45.67,4.69,0,.96-.48.96-.53.14-1.44-1.15-1.29-4.79-1.29-5.12,0Z"/>
      <path class="cls-1" d="M504.9,424.33c-.43,1.2.14,2.15,1.48,2.49,1.48.38,2.73-.57,2.54-1.92-.1-.77-.53-1.05-1.96-1.15-1.25-.1-1.87.05-2.06.57Z"/>
      <path class="cls-1" d="M360.81,427.06c-.48.72.05,1.1.96.72.43-.14.62-.48.48-.77-.38-.62-1.05-.62-1.44.05Z"/>
      <path class="cls-1" d="M486.36,427.35c-.57.53-.38,1.1.38,1.1.38,0,.72-.34.72-.72,0-.77-.57-.96-1.1-.38Z"/>
      <path class="cls-1" d="M398.45,429.22c-.96,1.01-1.05,1.34-.62,2.35.62,1.34.96,1.44,2.68.67,1.72-.81,1.87-2.15.34-3.26q-1.29-.91-2.39.24Z"/>
      <path class="cls-1" d="M497.62,430.41c-.91.34-1.1.72-.96,2.2l.14,1.82,3.64-.14c3.35-.14,3.74-.1,5.12,1.1,1.87,1.58,4.07,1.53,4.31-.1.38-2.59-2.54-4.6-6.85-4.69-1.29-.05-2.83-.19-3.35-.34-.53-.19-1.44-.1-2.06.14Z"/>
      <path class="cls-1" d="M487.61,431.71c-.29.19-.43.91-.29,1.68.34,1.72,2.59,2.97,3.97,2.25,1.05-.57,1.29-2.49.38-3.26-.86-.67-3.4-1.1-4.07-.67Z"/>
      <path class="cls-1" d="M471.95,439.7c-.14.38-.67.72-1.1.72-2.83,0-3.97,3.26-1.87,5.22,1.77,1.68,2.97,1.01,3.3-1.72.14-1.48.57-2.49,1.25-2.97.81-.62.91-.91.43-1.39-.77-.77-1.68-.72-2.01.14Z"/>
      <path class="cls-1" d="M518.59,445.16c-.34.67-.34,1.05.05,1.25.62.38.72.29,1.1-1.1.43-1.29-.43-1.44-1.15-.14Z"/>
      <path class="cls-1" d="M526.3,445.79c-.24.62-.86,1.48-1.39,2.01-1.15,1.01-2.25,3.83-1.77,4.6.53.86,2.06.53,3.02-.67.48-.67,1.29-2.15,1.72-3.4.67-1.72.72-2.35.29-2.87-.81-1.01-1.39-.91-1.87.34Z"/>
      <path class="cls-1" d="M458.74,447.37c-.77.91-.29,2.2.72,1.87.77-.34,1.01-1.87.29-2.3-.24-.14-.67.05-1.01.43Z"/>
      <path class="cls-1" d="M389.45,447.65c-.29.38-.67,1.25-.86,2.01-.24.96-.62,1.29-1.48,1.29-1.01,0-1.15.14-.86,1.29.48,1.92.67,2.11,1.68,1.82.48-.14,1.34-.34,1.82-.53.72-.19,1.15.14,1.72,1.25.67,1.29.91,1.44,2.35,1.2.96-.19,2.25-.05,3.4.43s3.21.77,5.75.77,4.5.24,5.36.67c4.74,2.35,5.65,2.59,10.34,2.63,2.83,0,5.55.34,6.8.77,2.68.91,3.45.57,4.12-1.72.53-1.63.48-2.01-.29-2.83-.72-.81-1.39-.96-3.5-.86q-2.59.14-3.11-1.53c-.48-1.39-.86-1.68-2.49-2.01-1.05-.24-2.15-.77-2.49-1.15-.38-.53-.96-.67-1.77-.48-.91.24-1.25.1-1.25-.43,0-1.2-1.29-.81-2.39.72-1.15,1.63-1.82,1.77-3.97.62-.86-.43-2.59-.81-3.93-.86-2.06-.05-2.39-.24-2.54-1.1-.24-1.53-1.29-1.92-6.85-2.25-3.97-.29-5.12-.24-5.55.29Z"/>
      <path class="cls-1" d="M422.97,451.67c-.38,1.05,1.2,2.63,2.68,2.63s3.4-1.2,3.4-2.11c0-1.34-5.55-1.77-6.08-.53Z"/>
      <path class="cls-1" d="M510.35,454.79c-2.68,3.45-3.11,4.12-2.92,4.64.43,1.25,1.96.57,4.02-1.82,1.15-1.34,2.2-2.49,2.3-2.63.34-.29-1.01-1.63-1.63-1.63-.34,0-1.15.62-1.77,1.44Z"/>
      <path class="cls-1" d="M486.22,456.08c-.86.1-1.92.62-2.35,1.1-.77.86-.77.96-.05,1.25,1.1.43,3.93-.19,4.6-1.01.53-.67.29-1.77-.38-1.58-.19,0-1.01.14-1.82.24Z"/>
      <path class="cls-1" d="M442.69,460.58c-2.92,1.96-3.64,2.92-2.63,3.54.77.48,9.91-1.2,10.92-1.96,1.15-.86.19-2.3-1.63-2.49-.77-.1-1.58-.38-1.82-.62-.81-.77-1.92-.43-4.84,1.53Z"/>
      <path class="cls-1" d="M430.48,459.67c0,.34.38,1.1.86,1.72.81,1.05.91,1.05,2.39.34.91-.48,1.53-1.15,1.53-1.72,0-.77-.34-.91-2.39-.91-1.58,0-2.39.19-2.39.57Z"/>
      <path class="cls-1" d="M436.47,461.01c-1.53,2.44-1.48,2.73.24,2.97,1.77.29,2.39-.38,2.73-2.97.24-1.72.14-1.92-.77-1.92-.62,0-1.39.67-2.2,1.92Z"/>
      <path class="cls-1" d="M455.96,460.63c-3.69,2.3-3.26,3.4,1.53,3.88,2.3.24,3.16.1,4.79-.77,1.1-.53,3.06-1.15,4.36-1.29,2.3-.24,2.39-.29,2.39-1.68,0-1.63.05-1.63-3.69-.48-2.68.81-2.73.81-4.02-.19-1.72-1.34-2.39-1.29-5.36.53Z"/>
      <path class="cls-1" d="M471.76,459.67c-1.01,1.01-.62,1.82.86,1.82,1.1,0,1.44-.24,1.44-.91,0-.48-.34-1.05-.77-1.2-.96-.38-.86-.38-1.53.29Z"/>
      <path class="cls-1" d="M483.68,460.49c-3.5.72-4.21,1.05-5.36,2.44-.77.86-2.73,2.39-4.36,3.35-2.73,1.53-3.02,1.87-3.16,3.4-.29,3.11,2.11,3.5,4.64.72.67-.67,1.53-1.25,2.01-1.25.43,0,1.1-.48,1.53-1.1.38-.57,1.63-1.53,2.78-2.11,3.93-1.92,7.57-3.5,8.04-3.5.91,0,.57-1.34-.53-2.11-.57-.43-1.2-.77-1.34-.72-.14,0-2.06.38-4.26.86Z"/>
      <path class="cls-1" d="M450.93,465.51c-.38.91,1.01,2.68,2.06,2.68.48,0,1.34.53,1.96,1.2,1.48,1.53,2.73,1.53,3.11,0,.38-1.58-.05-2.63-1.1-2.63-.48,0-1.1-.38-1.44-.91-.67-1.05-4.21-1.34-4.6-.34Z"/>
      <path class="cls-1" d="M467.64,473.22c-1.1.81-.67,2.15.67,2.15,1.15,0,3.02-1.72,2.63-2.39-.43-.67-2.25-.57-3.3.24Z"/>
    </g>
  </g>
</svg>