<?xml version="1.0" encoding="UTF-8"?>
<svg id="Calque_2" data-name="Calque 2" xmlns="http://www.w3.org/2000/svg" viewBox="0 0 181 169.89">
  <defs>
    <style>
      .cls-1 {
        stroke-width: 0px;
      }
    </style>
  </defs>
  <g id="Calque_1-2" data-name="Calque 1">
    <g>
      <path class="cls-1" d="M142.61.35c-.37.2-.86.61-1.12.91s-.5.56-.55.56-.2-.25-.33-.56c-.24-.63-.78-.94-1.23-.7-.2.11-.28.32-.31.87-.03.46-.11.75-.25.82-.11.06-.42.2-.68.32-.82.41-.93.34-.82-.48.18-1.31-.5-1.48-1.87-.46-.71.52-1.03.66-1.73.76-1.5.21-2.83,1.27-3.34,2.66-.44,1.18-1.02,1.6-1.92,1.39-.5-.11-.62-.07-1.43.46-1.26.84-1.78,1.38-1.95,2.01-.11.41-.44.82-1.29,1.62-.64.59-1.64,1.67-2.25,2.42-1.1,1.36-2.25,2.48-2.97,2.9-.23.13-.5.48-.61.76-.13.3-.92,1.27-1.8,2.19-1.81,1.89-2.19,2.55-2.05,3.55l.08.66-.78.38c-1.27.62-1.64,1.6-1.1,2.93.27.68.31.59-1.15,1.65-.58.41-.65.52-.65.98,0,.51-.03.55-1.23,1.24-1.61.94-3.14,2.14-3.64,2.84-.38.56-.67,1.72-.42,1.72.07,0,.61-.35,1.19-.79,1.67-1.24,2.41-1.55,2.8-1.15.35.35.17.79-.68,1.56-1.13,1.06-1.95,1.32-3.26,1.1-.86-.15-1.03-.14-1.85.13-2,.66-4.74,2.11-8.73,4.61-2.01,1.27-2.15,1.39-2.08,1.72.35,1.35.2,1.97-.69,2.86-.3.31-.5.66-.57,1.03-.04.3-.2,1.1-.33,1.76-.3,1.56-.25,1.67.69,1.67.76,0,1.39.27,1.39.61,0,.1-.62.76-1.37,1.48l-1.39,1.31.34.27c.38.32.85.35,1.53.11,1.09-.39.96.59-.23,1.72-.91.84-1.08,1.27-.86,2.19.16.7.64,1.1,1.66,1.39.45.13,1.05.37,1.34.52.4.23.65.27,1.13.2,1.47-.23,3.71-1.49,6.69-3.8,1.42-1.1,1.6-1.31,2.12-2.29.31-.59.64-1.07.71-1.07.35.01.65,1.08.78,2.83.21,2.65.76,4.38,1.83,5.71.28.35.41.63.35.77-.06.13-.13.42-.17.68-.06.39,0,.48.52.8.37.24.58.48.58.66,0,.45.25.83,1.15,1.74l.82.84.16,2.04c.21,2.81.24,2.95.65,2.95.5,0,1.8-.3,2.01-.45.08-.08.17-.38.17-.66,0-.69.38-2.27.65-2.66.2-.3.27-.31,1.12-.23s.99.06,1.83-.35c1.7-.83,3.67-3.52,3.86-5.28.04-.35-.03-1.49-.17-2.5-.38-2.88-.24-3.15,2.34-4.54,1.67-.9,2.41-1.41,2.41-1.67,0-.08.3-.76.65-1.46.35-.72.62-1.41.59-1.53s-.31-.31-.71-.42c-.38-.1-.68-.27-.68-.35,0-.1.2-.38.45-.63.37-.37.41-.49.27-.66-.18-.21-1.05-.42-2.42-.58-1.12-.13-1.26-.18-1.49-.63-.27-.52-.27-1.17,0-2.67.11-.66.21-1.48.21-1.82,0-.55.16-.83,1.59-2.88,4.36-6.26,7.18-9.79,7.78-9.79.34,0,.33-.34-.1-1.65-.2-.61-.35-1.21-.35-1.34,0-.34.45-.59,1.81-.97.64-.17,1.16-.35,1.16-.39s-.13-.28-.28-.51c-.54-.8-.45-.98,1.08-2.03l.85-.58,1.42.63c2.11.96,2.6,1.24,2.9,1.6.41.51.34.82-.17.93-1.08.24-2.24,2.01-2.86,4.38-.33,1.2-.42,1.35-1,1.52-.18.06-.23.15-.16.34.25.61.24.72-.17.91-.23.13-.85.72-1.42,1.32-.55.61-1.23,1.22-1.51,1.38-.38.2-.51.37-.51.63,0,.2-.16.69-.35,1.1q-.35.76-.14,2.11c.11.76.34,2.27.5,3.36.31,2.17.67,3.4,1.08,3.87.16.15,1.16.73,2.25,1.27,1.9.93,2.02.97,2.83.93,1.2-.07,2.55-.75,4.95-2.49,3.06-2.22,4.46-2.97,5.58-2.97.48,0,1.61-.87,3.2-2.45,2.25-2.25,4.03-5.23,4.03-6.73s-1.53-3.04-3.31-3.42c-.37-.08-.4-.11-.28-.53.06-.25.11-.77.13-1.18,0-.52.1-.86.33-1.15.17-.24.31-.45.31-.48,0-.04-.54-.11-1.2-.17-1.32-.1-1.39-.15-1.56-1.08-.08-.42-.18-.53-.65-.72-.38-.15-.62-.37-.79-.73-.27-.56-.33-.31.91-3.81.03-.08-.67-.93-1.54-1.89-.88-.94-1.67-1.86-1.77-2.03-.24-.41-.23-.83.06-2.04l.24-1.04-.91-.86c-.65-.61-1.12-.91-1.61-1.07l-.71-.23-.47-1.82c-.25-1.01-.45-1.96-.42-2.1.01-.21.21-.32.72-.45.54-.14.89-.37,1.53-1,.45-.44.82-.89.82-.97,0-.23-.34-.34-1.08-.34-1.12,0-1.59-.51-.79-.87.3-.14.4-.31.45-.73.07-.53.1-.56.75-.73.89-.23.95-.3.52-.63-.48-.39-2.32-1.25-2.65-1.25-.14.01-.55.17-.92.35Z"/>
      <path class="cls-1" d="M43.24,11.21c-.06.04-.1.2-.1.32,0,.32-.37.63-.5.44-.3-.48-.61-.44-2.02.28-1.34.68-2.01,1.13-2.01,1.38,0,.35.62.83,1.4,1.07,1.19.35,1.27.51.62,1.04-.51.42-.57.44-1.46.34-1.08-.13-1.51-.13-2.04.01-.42.1-.68.59-.55,1.06.07.25.18.3.82.3,1.03,0,1.68.44,1.74,1.17.04.46-.03.61-.52,1.11-.58.56-.59.56-1.36.46q-.76-.08-.85.31c-.23,1.07-.27.98.52,1.08,1.15.15,1.97.69,3.37,2.21,1.33,1.42,2.12,1.96,2.94,1.96.24,0,1.3-.2,2.34-.42,2-.44,2.94-.52,3.57-.28.28.11.5.08.93-.14.3-.15,1.56-.58,2.79-.91,3.79-1.07,4.84-1.82,4.95-3.5.04-.73,0-1-.31-1.6-.44-.87-.47-1.31-.08-1.65.35-.31.35-.65.03-1.06-.23-.27-.31-.3-.57-.15-.41.21-.54.13-.65-.46-.14-.77-1.15-1.38-1.46-.9-.06.1-.18.39-.25.66-.18.63-.37.68-.67.15-.28-.48-.47-.52-1.16-.18-.5.23-.51.23-.85-.14-.45-.48-.85-.56-2.25-.49-.98.06-1.17.11-1.34.37-.33.48-.45.37-.37-.31.11-.75-.01-.84-.86-.7-.59.08-.68.14-.99.77-.38.73-.69.97-1.26.97-.47,0-.47-.24-.01-1.13.57-1.13.41-2.5-.37-3.15-.41-.35-.96-.48-1.16-.27Z"/>
      <path class="cls-1" d="M147.1,48.13c-1.39.18-3.81.79-4.74,1.2-.42.2-1.2.65-1.73,1-1.19.8-1.25,1.08-.37,1.89.58.53.59.55.61,1.49,0,.93.01.96.38,1,.2.03.65-.1.98-.27l.61-.3.27.32c.17.23.24.44.17.69-.33,1.36-.34,1.62-.14,2.97.27,1.74.11,2.28-.69,2.5-.98.27-2.02-.31-2.92-1.6l-.41-.59-1.39-.08-1.39-.08-.38.45c-.72.84-2.52,4.61-2.52,5.28,0,.15.16.62.35,1.04.21.45.44,1.38.57,2.24.18,1.27.27,1.51.59,1.8.37.31.45.32,1.61.24,1.17-.08,1.25-.07,1.46.23.33.46.27,1.34-.14,2.22-.3.66-.34.89-.27,1.56.1.89-.03,1.08-.81,1.2-.41.07-.5.03-.71-.37l-.25-.45-1.3.1c-1.68.11-3.93.44-4.88.72-.92.25-1.27.13-2.58-.9-.5-.41-1.03-.73-1.19-.73-1.05,0-3.01.84-7.25,3.1-1.16.62-2.36,1.2-2.65,1.29-.3.08-.88.46-1.32.84-.42.38-.84.66-.91.62-.06-.04-.16-.25-.2-.48-.07-.31-.27-.51-.93-.86-.47-.24-.89-.49-.92-.56-.04-.06.08-.27.27-.44.42-.41.44-.72.06-1.51-.57-1.17-1.32-1.52-2-.91-.37.31-.31.66.13.98l.4.28-.33.35c-.69.73-2.8,1.52-3.52,1.31-.14-.03-.4-.1-.57-.15-.25-.07-.37.03-.68.56-.31.51-.45.63-.75.62-.84-.03-1.09-.18-1.16-.69l-.07-.49-1.59-.42c-.88-.24-1.63-.46-1.67-.52-.06-.04.01-.28.14-.53.13-.24.21-.65.18-.89-.04-.39-.14-.51-.92-.89-.5-.24-.93-.48-.99-.52-.06-.06.16-.37.47-.7,1.12-1.15,2.62-3.48,2.83-4.36.07-.32.31-.51,1.2-.96.62-.3,1.12-.62,1.12-.69,0-.21-.42-.38-1.37-.56-.5-.1-.96-.25-1.03-.37-.13-.13-.03-.52.34-1.52.57-1.48.67-2.48.27-2.48-.35,0-1.12.56-1.39,1.01-.21.37-.3.39-1.1.39-.48,0-1.22.04-1.63.08-.72.1-.76.13-1.46,1.07-.42.56-.68,1.03-.61,1.1s.4,0,.76-.17c.35-.17.89-.32,1.2-.37.65-.07,1.63.27,1.63.56s-1.23.83-2.05.91c-.4.03-1.05-.03-1.49-.15-.42-.11-.81-.17-.85-.14-.03.04-.07,1.32-.07,2.86,0,2.53.03,2.8.28,3.18.23.34.3.73.35,1.98.07,1.46.1,1.62.62,2.63.61,1.2.59,1.6-.1,2.12-.33.24-.44.25-.68.11-.31-.2-.33-.18-.48.75-.16.89-.3,1.06-.91,1.06-.47,0-.64-.1-1.3-.77l-.76-.77-.91.73-.91.75h-1.43c-1.46.04-2.77.35-3.57.87-.38.24-.44.73-.18,1.59.33,1.1-.18,1.83-1.26,1.83-.84,0-1.02-.17-1.03-.97-.03-1.51-.14-1.49-1.1.23-1.09,1.94-1.87,2.81-3.34,3.77-.62.39-1.33.94-1.57,1.22-.24.27-.61.53-.81.59-.2.04-1.16.42-2.14.83-1.05.45-1.84.72-1.95.65-.1-.06-.78-.06-1.5,0-1.73.14-1.92.3-2.65,2.04-.31.75-.75,1.58-.96,1.84-.69.86-2.34,1.49-3.07,1.2-.54-.23-.82-.04-1.63.98-.72.93-.93,1-1.91.62-.74-.3-1.15-.87-1.17-1.67-.03-.69-.11-.73-.91-.51-.35.1-.57.07-.95-.14-.69-.37-.86-.34-1.3.23-.47.62-.51,1.65-.08,2.36.25.44.27.56.11,1.22-.1.41-.31.89-.48,1.08-.3.34-.35.35-1.56.25-1.91-.14-1.97-.15-2.38-.86l-.37-.62-3.27.07-3.28.07-.42.44-.42.42.3.24c.17.13.42.31.57.39.38.23.11.49-.78.82-.4.14-.72.28-.72.32,0,.23.5.91.92,1.29.48.41.55.44,1.27.35.67-.08.88-.04,1.56.28.95.48,1.64,1.24,2.48,2.77.48.89.75,1.24,1.1,1.42q.68.32.25.97l-.4.58.42.94c.48,1.06.54,1.27.74,3.11.08.73.24,1.66.37,2.05l.21.73-.57.89c-.31.49-1.12,2.14-1.78,3.64-1.06,2.38-1.32,2.84-1.95,3.5-.72.73-3.27,2.84-3.75,3.1-.17.08-.64,0-1.51-.27-.71-.21-2.62-.69-4.25-1.06-2.73-.61-3.14-.75-5.04-1.63-2.08-.97-3.26-1.34-3.91-1.21-.2.04-.65-.06-.99-.21-.35-.15-1.17-.37-1.81-.46-1.27-.21-1.76-.41-2.77-1.14-.48-.35-.81-.48-1.2-.48-.65,0-.71.04-1.32.8-.45.59-.48.61-1.29.61-1.88,0-2.86.52-3.26,1.73-.16.48-.13.58.2,1.14.2.35.37.75.37.89s-.28.58-.62.96c-.33.39-.71.9-.84,1.14-.21.41-.85.94-2.51,2.1-.42.3-.95.69-1.16.89l-.38.34.28.59c.4.8.23,1.14-.99,2.11-1.08.86-1.43,1.36-1.43,2.04,0,.37-.52.94-3.75,4.19l-3.75,3.77.08.56c.14.9.59,1.97,1.13,2.66l.5.66-.25.52c-.14.28-.59.76-.99,1.07-.81.59-.89.84-.51,1.49.37.63-.04,1.51-1.33,2.79-.58.58-1.03,1.07-1,1.08.03.03,1.6.31,3.51.63l3.45.59.75.68c.42.38,1.26,1.04,1.87,1.46,2.26,1.59,3.09,2.59,3.43,4.15.18.84.35.97,1.5,1.08.62.06,1.47-.06,3.44-.44,3.33-.63,5.27-.75,7.57-.42,1.25.17,1.77.3,2,.51.38.35.61.34,1.16-.07.33-.24.72-.35,1.43-.41.74-.06,1.59-.31,3.43-1.01,1.36-.52,2.99-1.06,3.64-1.2,1.46-.32,1.61-.44,1.5-1.14l-.08-.53,1-.65c.57-.37,1.8-1.07,2.76-1.56,1.91-.98,2.04-1.13,2.17-2.39.06-.51-.01-1.03-.24-1.79-.82-2.76-.06-4.07,4.32-7.39,1.08-.83,2.35-1.86,2.83-2.29,1.09-1.01,1.49-1.21,2.83-1.38.95-.11,1.43-.3,3.52-1.31l2.42-1.17h2.97l.21-.63c.3-.89.38-.98.85-.98.23,0,.51-.1.62-.23.34-.32.28-1.01-.1-1.32-.28-.24-.31-.38-.31-1.65,0-1.14.06-1.51.33-2.08.38-.83,1-1.51,1.83-1.98l.59-.35,1.39.59c3.2,1.35,2.84,1.25,3.79,1.03.47-.1.92-.2,1.02-.2.08,0,.54.32.99.72,1.1.97,1.49,1.11,3.03,1.11,1.64,0,1.74-.06,3.71-2.21,1.78-1.96,2.42-2.49,2.8-2.39.47.13,1.13-.14,2.93-1.17,2.92-1.66,2.77-1.6,3.4-1.28.28.14.98.41,1.51.58l.99.31,1.09,1.63c1.27,1.91,1.49,2.45,1.61,4.01.06.73.18,1.31.35,1.59.48.8,1.88,1.97,4.23,3.53,1.91,1.28,2.55,1.8,3.51,2.84,1.53,1.66,2.15,2.03,3.48,2.05.64.01,1.17.11,1.47.27.55.28,1.16,1.08,1.5,1.97.31.82.89,1.14,2.69,1.51.69.14,1.32.34,1.37.44.07.1.13.41.13.68.01.27.13.77.25,1.11.23.59.28.63,1.05.8,1.43.32,2.41,1.22,3.1,2.83.27.63,1.4,4.21,1.4,4.43,0,.06-.34.31-.76.53-.71.41-.78.49-.93,1.17-.1.41-.34,1.14-.54,1.63-.4,1-.34,1.14.5,1.14.98,0,1.7-1.03,2.58-3.69q.5-1.48,2.42-2.55l.45-.24-.1-1.03c-.11-1.32-.18-1.51-.5-1.51-.14,0-.71-.3-1.27-.68-.99-.65-1.02-.68-.95-1.17.1-.72,1.16-2.83,1.78-3.52l.51-.58.89.23c.48.11,1.17.37,1.54.56,1.02.51,2.39,1.58,2.75,2.14.35.58.57.56.75-.06.44-1.52-.76-2.8-3.98-4.24-2.25-1.01-6.38-3.05-6.82-3.38-.3-.23-.31-.3-.16-.59.1-.18.38-.58.61-.87.64-.79.47-.86-2.07-.96-1.91-.07-2.25-.11-3.06-.45-2.42-1-3.86-2.91-4.32-5.7-.3-1.84-.67-2.38-2.9-4.09-2.63-2.03-3.06-2.81-2.43-4.52.3-.79.3-.87.08-1.48-.11-.35-.21-.94-.21-1.32,0-.86.11-.96,2.53-2.34l1.91-1.08.52.3c.28.17.62.3.76.3.13,0,.35.07.51.14.25.14.25.18-.17,1.01l-.44.87.35.73c.2.39.41.96.45,1.24.06.28.16.51.21.51.23,0,.84-.86.98-1.36.17-.59.67-1.17,1.02-1.17.14,0,.45.28.71.63.25.34.57.66.69.7s.42.27.65.51c.4.41.41.49.41,1.7v1.27l.81.73c.47.41.85.89.91,1.11.11.46.69.94,1.77,1.41.68.3.84.44.98.86l.17.51h.86c1.44.01,2.87.73,4.61,2.32.45.42.95.77,1.09.77.74.01,3.03,1.24,4.42,2.36.79.63.85.65,1.83.37.23-.06.33-.01.4.25.06.17.24.44.4.56.27.21.3.35.25,1.27-.03.8.03,1.2.27,1.8.17.42.47,1.2.64,1.72l.33.93-.4.76c-.82,1.49-.52,2.19,1.94,4.56,1.64,1.58,1.78,1.76,1.9,2.38.07.38.23.79.34.91.38.42,1.94,1.11,2.9,1.28,1.17.23,1.3.35.82.73-1.08.87-.54,2.14,1.1,2.63.67.2,2.75.14,5.69-.15,1.68-.17,1.9-.17,2.09.04.21.21.21.27-.03.77-.21.41-.41.58-.86.75-.55.18-.78.17-2.56-.13-2.49-.42-3.81-.38-4.36.13-.5.46-.76,1.11-.76,1.9,0,.52.07.72.37.98.33.3,1.57.77,2.02.77.1,0,.33.15.51.35.33.31.35.46.37,1.58.01,2,.13,2.45.68,2.81.67.44,1.36.42,1.66-.03.13-.2.28-.56.33-.82.06-.24.18-.46.3-.48.13-.01.62.51,1.13,1.2.51.68.99,1.22,1.06,1.22.16,0,.3-.44.42-1.24.13-.83.4-.8,1.42.17,1.23,1.18,1.4,1.15,1.32-.2-.08-1.29-.37-1.76-1.73-2.76-.89-.68-.96-.75-.88-1.14.04-.24.08-.58.08-.76,0-.45.24-.44,1.39.14,1.4.7,2.09.86,2.52.58.44-.28.45-.84.03-1.08-.18-.1-.81-.37-1.39-.61l-1.06-.42-.04-1.1c-.03-.66.01-1.08.1-1.08s.62.15,1.2.34c.72.24,1.37.59,2,1.06.95.73,1.29.83,1.78.58.44-.24.33-.53-.58-1.46-.47-.49-.85-.98-.85-1.1,0-.41-1.19-1.32-2.82-2.17-.89-.45-1.91-1.1-2.28-1.42-.96-.86-2.22-3.38-1.87-3.73.1-.1.5-.03,1.26.23,1.4.46,1.6.46,1.6.01,0-.38.03-.35-2.36-1.91-1.76-1.13-1.95-1.44-1.92-2.84s.27-2.45.59-2.53c.67-.17,1.12.34,2.34,2.57,1.13,2.08,1.64,2.55,2.22,2.03.42-.38.34-1-.23-1.63-.45-.49-.54-.82-.21-.82.06,0,.54.38,1.05.84.52.46,1.06.84,1.23.84.57,0,.45-.41-.42-1.44-.48-.56-.86-1.08-.86-1.18,0-.39.47-.27,1.64.44.71.42,1.32.7,1.39.63.2-.2-.03-.8-.48-1.22-.24-.21-.52-.53-.64-.7q-.21-.31.13-.17c.54.25.74.08,1.08-.93.42-1.29.82-1.69,1.94-2.04.51-.15,1.09-.28,1.3-.28s.92-.14,1.57-.3c.92-.24,1.44-.28,2.24-.23.64.04,1.19.01,1.39-.07.67-.31.69.04.14,1.27s-.61,1.44-.33,1.44c.3,0,2.73-1.65,3.06-2.05.17-.21.3-.58.3-.83,0-.41.08-.52.79-.94,1.47-.87,2.01-1.08,4.09-1.66,2.65-.72,2.89-.86,2.9-1.45,0-.18-.42-.45-1.59-1.01-.89-.41-1.78-.94-2.02-1.2-.23-.24-.86-.79-1.42-1.21-.54-.41-1.3-1.11-1.68-1.55l-.71-.8.45-.83c.42-.75.47-.94.51-2.27.03-1,.17-1.91.44-2.98l.4-1.53-.24-2.05c-.13-1.13-.28-2.15-.31-2.29-.06-.2.33-.65,1.5-1.76,1.83-1.72,1.77-1.49.86-3.52-.33-.72-.58-1.34-.58-1.38,0-.06.4-.04.89,0l.89.1.23-1.34c.4-2.38,1.32-3.81,2.93-4.57.68-.31.98-.37,2.18-.37h1.37v-.42c.04-2.5.3-11.09.37-12.44.1-1.69.1-1.74-.17-1.62-.57.27-2.36.1-4.32-.41-2.66-.7-3.13-.75-4.15-.39-1.06.38-1.22.37-2.05-.06-.38-.18-.99-.41-1.36-.51l-.68-.17.08-.8c.08-.76.06-.84-.33-1.28-.24-.28-.55-.89-.71-1.42-.21-.69-.41-1.03-.72-1.27-1.17-.9-1.1-.77-1.2-2.24-.07-.96-.04-1.38.07-1.45.08-.06.65.2,1.23.56l1.09.68.31-.37c.17-.2.45-.44.62-.52.58-.32.27-1.44-.64-2.28-.31-.28-.96-.79-1.47-1.14-1.94-1.35-2.14-1.79-2.02-4.36.07-1.53.06-1.84-.16-2.15-.34-.51-1.46-1.18-3.2-1.91-1.71-.72-2.45-1.32-4.9-4.09-2.07-2.32-1.95-2.07-1.53-3.49.51-1.67.42-2.55-.27-3.18-.58-.53-1.56-.86-3.09-1.03-1.13-.13-2.25-.59-2.25-.93,0-.11.06-.21.11-.21.25,0,1.87-1.59,1.87-1.84,0-.14-.17-.35-.38-.46-.47-.24-1.17-.89-1.17-1.07,0-.06.16-.31.34-.53.33-.38.93-1.69.93-2.01,0-.45-2.11-.75-3.75-.53Z"/>
      <path class="cls-1" d="M58.72,52.34c-.93.23-1.57.97-1.8,2.11l-.1.46.89-.08c1.81-.2,2.92-1.03,2.8-2.11-.04-.42-.07-.45-.68-.48-.35-.01-.85.03-1.12.1Z"/>
      <path class="cls-1" d="M62.93,53.71c-.58.07-1.88,1.1-3.69,2.93-.57.58-1.1,1.06-1.17,1.06-.08,0-.3-.17-.5-.37-.45-.51-1.19-.8-1.7-.69-.23.06-.44.14-.48.21-.13.21.93,1.97,1.43,2.36.27.21.48.45.48.53s-.55.42-1.23.76c-1.8.89-2.87,1.98-2.87,2.93,0,.24.14.28,1.25.35,1.43.08,1.73.17,1.73.52,0,.14-.48.98-1.08,1.89s-1.05,1.67-1,1.72.2.01.34-.06.59-.21,1-.31c.65-.15.79-.14.98.04s.18.25-.01.63c-.13.24-.48.65-.79.89-.31.25-.57.53-.57.63s.2.34.44.53c.51.44,1.32.48,2.53.15,1.06-.28,1.74-.27,2.02.04.37.39.3.87-.27,1.79l-.5.84.28.89c.17.48.3,1.01.3,1.18,0,.59-.59,1.53-1.39,2.17q-.91.75-2.7-.08c-1.44-.66-1.64-.62-1.5.27.2,1.34.18,1.35-.35,1.42-.27.04-.5.14-.5.24s.3.37.68.59c.74.48.81.7.4,1.36-.47.76-1.22,1.21-2.82,1.67l-1.51.45-.38.76c-.64,1.25-.71,1.2,1.83,1.29,1.27.06,2.25.15,2.28.24.18.52.57.73,1.49.8.58.06.95.14.95.24,0,.2-.79.97-1.23,1.2s-.89.2-2.05-.13c-.57-.15-1.08-.28-1.13-.28-.2,0-1.12.9-1.53,1.48-.41.59-.45.61-3.33,1.56-1.6.53-2.89,1.03-2.86,1.11.03.07.27.25.54.38.69.35,2.17.32,3.95-.1,1.9-.45,2.19-.44,2.62.01l.34.37.54-.42c1.3-1.01,2.19-1.17,3.13-.55.75.48,1.02.48,2.77-.06l1.43-.44.42.53c.67.86,1.34,1.46,1.63,1.46.38,0,.71-.53.71-1.14,0-.3.07-.55.17-.58.1-.04.52.01.96.13,1.81.42,4.05.1,5.53-.79,1.47-.89,1.46-1.2-.08-1.7-1.37-.45-1.39-.53-.11-1.53.59-.46,1.19-.86,1.32-.86.51,0,2.22-1,2.89-1.67s.69-.72.51-1.13c-.24-.58-1-1.24-1.66-1.41-.3-.08-1.23-.15-2.07-.15-1.15,0-1.54-.04-1.6-.18-.04-.11.27-1.01.67-2.01,1.26-3.1,1.13-4.35-.59-5.87l-.84-.73.08-.66.08-.66-.76.08c-1.22.13-1.27-.07-.55-1.79.33-.77.62-1.69.67-2.03.08-.58.06-.68-.34-1.06-.24-.24-.57-.44-.74-.44s-.48-.13-.71-.28c-.21-.15-.55-.34-.76-.42-.92-.34-.03-1.76,2.89-4.61,2.28-2.24,2.52-2.62,1.77-2.95-.48-.23-2.48-.2-4.25.04-.85.11-1.47.13-1.56.06-.2-.2,1.17-1.49,3.14-2.97.96-.72,1.74-1.38,1.74-1.46,0-.1-.1-.21-.23-.25-.23-.08-4.01-.07-4.9.01Z"/>
      <path class="cls-1" d="M47.88,66.89c-.88.21-1.29.42-1.84.94-.25.24-.62.41-.92.44-.68.06-.69.52-.01.75.54.18.65.34.52.83-.06.23-.27.41-.64.56-.55.21-.58.21-1.44-.24-.79-.41-1-.45-2.11-.45s-1.29.04-1.83.39c-.74.49-.84.73-.47,1.13.16.17.37.49.45.72.21.58-.11.89-1.16,1.08-.45.08-.86.23-.91.3-.16.24.38.84.98,1.1.33.14.93.31,1.34.37.41.04.78.15.82.21.1.17-1.05.69-1.54.69-.25,0-.52-.14-.75-.38-.4-.42-.51-.35-.75.41-.21.63-.42.72-1.16.46-.75-.27-1.05-.27-1.32.01-.34.32-.27.79.17,1.13l.38.31-.4.15c-.23.08-.51.15-.65.15-.13,0-.37.08-.51.2-.28.2-.23.45.24,1.1.14.2.08.34-.35.9-.28.37-.52.7-.52.76,0,.17.3.35,1.59.9,1.19.52,1.29.53,2.26.45,6.33-.59,8.69-1.15,10.63-2.52,1.51-1.07,2.34-2.57,2.48-4.57l.1-1.22,1.29-.87,1.29-.87-.03-1.73c-.01-1.28-.07-1.87-.25-2.28-.24-.56-.37-.59-1.3-.35-.07.01-.54-.08-1.03-.23-.69-.21-.91-.32-.96-.59-.1-.38-.52-.41-1.68-.13Z"/>
      <path class="cls-1" d="M89.04,134.49c-2.02,1.62-2.11,1.73-2.45,3.11-.47,1.94-.35,3.07.38,3.84.42.44,1.32.94,1.66.94.11,0,.5-.32.85-.7,1.43-1.59,2.19-5.16,1.57-7.27-.35-1.2-.42-1.18-2.01.08Z"/>
      <path class="cls-1" d="M87.97,144.13c-.45.34-1.25.84-1.77,1.11-1.66.87-1.77,1.11-1.78,4.04-.01,1.83-.08,2.48-.42,4.05-.51,2.35-.44,2.8.41,2.73.74-.06,1.17-.31,1.87-1.07.67-.73.84-.77,1.37-.35.21.17.41.28.42.25.13-.14.65-1.29,1.08-2.35l.47-1.17-.4-.97c-.47-1.15-.41-1.56.27-2,.59-.39.72-1,.51-2.49-.14-1.04-.75-2.41-1.05-2.41-.08,0-.52.28-.98.62Z"/>
      <path class="cls-1" d="M113.7,160.33c-.54.1-1.78.42-2.76.7-2.24.65-3.41.65-4.73.01-.82-.39-.85-.41-1.49-.18-.35.11-1.16.32-1.78.45-.95.21-1.22.32-1.64.76-.65.65-.86,1.56-.45,2.01.98,1.1,2.7,1.98,7.26,3.73,1.91.73,3.82,1.49,4.26,1.7l.78.38.45-.53c.68-.82.79-1.42.58-3.21-.21-1.91-.14-2.52.41-3.66.51-1.03.67-2.28.31-2.32-.11-.01-.65.06-1.2.15Z"/>
    </g>
  </g>
</svg>