<?xml version="1.0" encoding="UTF-8"?>
<svg id="Calque_2" data-name="Calque 2" xmlns="http://www.w3.org/2000/svg" viewBox="0 0 719 371.99">
  <defs>
    <style>
      .cls-1 {
        stroke-width: 0px;
      }
    </style>
  </defs>
  <g id="Calque_1-2" data-name="Calque 1">
    <g>
      <path class="cls-1" d="M639.84.55c-7.08.27-12.11.75-13.29,1.29-1.49.75-2.67.75-5.9.14-2.99-.61-6.13-.61-12.66-.07-4.72.41-12.27.75-16.67.75-7.24,0-8.26.14-10.93,1.76-2.83,1.63-3.07,1.63-5.11.61-3.3-1.69-5.9-1.36-7.79.95-2.04,2.44-2.83,2.51-7.55.34-4.8-2.17-5.9-2.1-7.79.54-1.97,2.71-3.85,3.05-6.76,1.22-1.81-1.15-2.52-1.29-3.7-.68-1.18.68-1.89.54-3.77-.68-2.2-1.36-2.67-1.42-13.29-.81-9.83.61-11.8.95-18.48,3.18-7,2.3-8.1,2.51-16.91,2.64-10.22.14-18.95,1.36-19.58,2.71-.16.47.16,1.69.79,2.71s1.1,1.9,1.1,2.03c0,.54-7.47,1.69-10.7,1.69-4.95,0-28.08,2.71-28.86,3.39-.39.27-.47,1.15-.16,1.9.47,1.36,1.02,1.42,12.5,1.36,6.53-.07,12.43.14,13.05.47.71.41-1.34,1.08-6.13,2.1-6.61,1.42-7.55,1.49-10.46.61-4.17-1.29-7.94-.68-7.63,1.29.24,1.22.71,1.42,3.54,1.22q3.38-.27,2.91,1.76c-.47,1.9-.31,1.97,2.83,2.44,2.44.34,3.85.14,5.19-.61,2.52-1.36,6.29-1.29,7.39.14.71,1.08.94,1.02,2.75-.81s2.12-1.9,2.83-.88c1.02,1.63,3.15,1.56,5.66-.14,2.44-1.63,3.85-1.76,3.54-.27-.24.95.63,1.15,4.95,1.22,3.62.07,5.74.41,6.68,1.15.87.61,2.52,1.29,3.7,1.56,1.73.34,2.12.81,1.97,1.97s.24,1.56,1.81,1.69c1.73.2,2.12.68,2.99,4.07,1.18,4.54.24,8.88-2.75,13.42-2.75,4-2.52,5.22.71,4.68,1.34-.2,3.46-.75,4.56-1.08,1.65-.54,2.67-.34,5.66,1.22,4.17,2.17,4.8,2.98,3.3,4.68-.94,1.15-1.18,1.15-4.01.07-4.01-1.49-10.14-1.83-10.14-.54,0,.54,1.49,1.29,3.54,1.69,9.12,2.03,12.11,4.68,9.83,8.47q-1.26,2.17-5.82,1.69c-4.33-.41-4.64-.34-7.08,1.69-1.34,1.15-2.83,2.1-3.22,2.1-.31,0-1.73.81-3.07,1.76-2.99,2.1-3.46,5.62-.87,6.17,1.73.41,2.12,1.56.55,1.56-1.42,0-3.7,2.24-3.7,3.59,0,.61.94,1.83,2.12,2.78,2.12,1.69,2.12,1.76,1.26,6.23-1.1,5.29-.16,8.2,3.22,10.1,1.65.95,1.81,1.36,1.02,2.37-.71,1.08-.63,1.63.71,3.18.94,1.02,2.04,3.05,2.6,4.47.55,1.36,1.65,2.85,2.44,3.18,2.2,1.02,9.12.81,10.14-.27.79-.81,1.42-.75,4.01.54,2.36,1.08,3.22,1.97,3.62,3.59.55,2.44,1.18,2.78,2.67,1.22.79-.81,1.89-.95,4.25-.68,3.15.41,3.3.34,6.92-3.52,2.04-2.17,4.56-4.61,5.43-5.42,1.34-1.15,1.65-1.97,1.26-3.86-.47-2.44,1.1-4.68,2.2-3.12.87,1.15,1.89.75,3.15-1.36.71-1.15,1.81-2.03,2.6-2.03,2.12,0,4.88-1.97,4.88-3.46,0-.81-.55-1.29-1.57-1.29-2.44,0-1.89-1.36.71-1.76,2.12-.41,2.28-.61,1.89-2.71q-.47-2.3,2.75-2.3c1.89,0,3.3-.34,3.54-.95.24-.54,2.36-1.08,5.35-1.36,5.98-.61,7.63-1.29,7.94-3.25.16-.88.87-1.63,1.65-1.76,1.18-.2,1.42,0,.94,1.22-.47,1.36-.31,1.42,3.7,1.22,3.07-.14,4.17-.47,4.17-1.22s.94-1.02,3.38-1.15c4.01-.14,5.66-.95,11.32-5.9,2.83-2.44,5.11-3.79,6.61-3.93,1.97-.14,2.28-.54,2.52-2.44.31-2.64.63-2.64,3.38-.41q2.12,1.76,6.29.68c2.36-.54,7.31-1.29,11.09-1.69,4.4-.41,8.18-1.29,10.62-2.3,3.38-1.49,9.36-3.59,20.13-6.91,3.85-1.15,4.56-1.97,2.44-2.64-2.28-.75-19.5.41-21.39,1.42-1.02.54-2.44.81-3.07.61-1.97-.68,1.02-2.98,4.4-3.46,5.11-.75,6.37-1.49,6.37-3.73,0-2.03.16-2.1,2.91-1.9,2.28.14,3.15.61,4.17,2.24,1.1,1.69,1.81,2.03,4.4,2.1,1.65,0,3.7.27,4.4.54,2.83,1.08,4.17.2,4.09-2.64-.08-2.37-.31-2.71-1.81-2.51-1.18.14-1.65-.14-1.65-1.15,0-1.56-1.42-2.51-3.38-2.24-.79.14-2.28-.2-3.22-.81-1.89-1.02-4.88-5.62-4.09-6.3.39-.41,3.46.34,11.4,2.85,2.12.68,3.77.81,4.17.47.47-.41.47-.81-.08-1.08-2.75-1.49,2.12-5.08,7-5.22,1.49,0,4.33-.54,6.29-1.29,3.07-1.08,3.54-1.42,3.3-3.05l-.24-1.83,4.25.47c3.3.34,4.4.2,5.19-.61,1.26-1.36.47-2.44-1.81-2.44-1.02,0-2.28-.47-2.83-1.08-.87-.88-.79-1.08.55-1.36,1.26-.27,1.57-.88,1.49-2.85-.08-2.1.24-2.51,1.73-2.71,1.18-.14,1.73-.61,1.57-1.36-.16-.88-1.26-1.22-4.01-1.36-2.04-.14-3.7-.47-3.7-.88,0-.34.31-.61.71-.61.47,0,2.44-1.22,4.4-2.71s4.17-2.71,4.8-2.71c1.57,0,1.34-1.36-.55-3.12-1.97-1.83-1.26-3.25,1.34-2.78,1.02.14,2.28-.14,2.75-.61.47-.54,1.73-.95,2.75-.95.94,0,2.36-.47,2.99-1.08.87-.75,1.97-.95,3.54-.61,1.65.27,2.75,0,4.48-1.22,1.57-1.15,3.77-1.76,7-2.1,5.19-.47,7.24-1.49,4.25-2.03-9.83-1.76-15.18-1.97-19.27-.81-2.12.54-6.21,1.15-9.04,1.29-3.62.14-5.66.61-6.61,1.36-.71.61-1.89,1.15-2.67,1.15-.71,0-3.22.61-5.58,1.29-2.36.75-4.56,1.15-4.88,1.02-1.26-.68-.55-1.49,2.36-2.64,2.67-1.15,4.01-2.17,4.09-3.05,0-.2-3.38-.27-7.47-.14-7.31.27-8.81-.14-6.45-1.76.55-.41,4.56-.88,8.81-.95,5.03-.14,7.86-.47,8.02-1.02.24-.47-1.02-.95-3.46-1.22-8.02-.88-14.16-1.83-17.46-2.78-1.97-.54-4.25-.88-5.11-.81-.94.07-6.76.27-13.05.54Z"/>
      <path class="cls-1" d="M423.93,8.61c-.23.19-4.47.38-9.49.43l-9.12.1-1.09,1.25c-1.14,1.3-2.69,1.63-3.19.77-.36-.62-4.38-.19-6.66.72-1.09.43-4.24.72-9.03.82-4.01.05-7.34.24-7.34.43s.64.96,1.37,1.73l1.37,1.39,8.03.1c4.42.1,8.26.24,8.48.38s.18.58-.14.96c-.64.82-7.75.96-9.17.14-.73-.43-1.14-.29-2.14.67-.64.62-1.78,1.34-2.55,1.49q-1.32.34-.5-.62c.87-1.01.73-2.45-.27-2.45-.27,0-1,.48-1.6,1.06l-1.09,1.06-.27-1.06c-.18-.82-.59-1.06-1.78-1.06s-1.64-.24-2.01-1.15c-.23-.72-1-1.39-1.96-1.68-1.37-.48-2.1-.38-5.47.86-2.14.77-4.29,1.63-4.79,1.92s-1.64.53-2.51.53c-2.14,0-3.92,1.54-3.24,2.74.68,1.15,5.2,1.78,7.8,1.1,1.05-.24,2.28-.48,2.74-.48.73,0,.73.05.05.77-.55.58-1.69.82-4.42.86-3.19.05-3.69.14-3.69.86,0,1.34,1.82,2.16,5.52,2.5,3.1.29,3.51.19,4.29-.67.46-.53,1.28-.96,1.78-.96.55,0,2.46-.43,4.29-.96,1.78-.53,4.15-.96,5.25-.96,2.78,0,4.83-.86,5.15-2.11.23-.96.41-.86,2.51,1.25,1.23,1.3,2.23,2.35,2.23,2.45,0,.05-2.96.05-6.61-.05l-6.57-.19-1.09,1.25c-.68.77-1.6,1.25-2.42,1.25-1.6,0-2.23.43-2.65,1.68-.18.77-.68,1.01-1.96,1.06-2.42.14-6.7,1.82-6.89,2.74-.23,1.2,1.14,1.44,4.93.82,2.6-.48,3.79-.48,4.47-.1s1.32.34,2.65-.24c1.41-.62,2.05-.67,3.47-.24,1.37.43,2.19.43,3.92-.14,2.42-.72,3.97-.34,2.92.77-.27.29-.55.86-.55,1.25,0,.72.18.72,4.56-.62,1.37-.43,3.65-.91,5.02-1.1,2.23-.29,2.51-.48,2.65-1.54.23-1.54.91-2.4,1.92-2.4.41,0,1.14-.43,1.64-1.01.55-.62,1.23-.91,1.92-.77.64.14,1.78.05,2.55-.14.78-.24,1.96-.53,2.69-.67.82-.19,1.23-.62,1.23-1.25,0-.53.5-1.3,1.09-1.68.59-.43,1.64-1.63,2.28-2.64,1.46-2.3,2.87-2.5,6.11-.77,1.73.91,2.6,1.1,4.65.91,1.46-.14,2.87-.62,3.42-1.1.64-.58,1.96-.91,4.1-1.06,2.01-.14,3.92-.62,5.11-1.3,1.05-.53,2.55-1.01,3.28-1.01,1.96,0,2.78-.43,2.78-1.49,0-.91.36-.96,6.89-.86,4.29.05,7.07-.14,7.34-.43.91-.96,0-1.97-2.01-2.21-1.09-.14-3.69-.48-5.84-.82-2.14-.29-7.98-.62-13-.67s-9.53-.24-10.03-.43-1.09-.19-1.28.05Z"/>
      <path class="cls-1" d="M329.33,22.48c-.82.96-1.51,1.97-1.51,2.16,0,.77,2.05.96,4.79.53,3.1-.53,4.2-.14,4.61,1.58.14.67.32,1.2.41,1.2.36,0,4.38-2.54,4.61-2.93.14-.29-.05-.96-.36-1.49-.73-1.15-4.33-2.26-8.57-2.59-2.42-.24-2.55-.19-3.97,1.54Z"/>
      <path class="cls-1" d="M310.41,22.87c-.46.34-.82.91-.82,1.3,0,.53.78.67,3.56.62,4.88-.1,4.74-.05,4.56-1.3-.14-.96-.41-1.06-3.33-1.15-2.14-.1-3.47.1-3.97.53Z"/>
      <path class="cls-1" d="M346.98,23.88c-1.05,1.3.27,2.06,3.79,2.21,5.43.19,5.34-2.11-.14-2.69-2.51-.29-3.1-.19-3.65.48Z"/>
      <path class="cls-1" d="M300.83,25.41c-.46.1-.82.62-.82,1.15,0,.67.32.91,1.14.91,1.37,0,3.88-1.25,3.88-1.92,0-.48-2.69-.58-4.2-.14Z"/>
      <path class="cls-1" d="M310.95,25.55c-.36.24-1.73.48-2.96.48-2.33,0-4.33.96-4.33,2.11,0,.82,5.34.43,6.7-.48.55-.38,1.55-.67,2.19-.67,1.28,0,1.6-1.15.41-1.63-.96-.38-1.19-.34-2.01.19Z"/>
      <path class="cls-1" d="M321.17,27.23c-.59.91-.64,1.34-.23,1.87,1.09,1.39,2.74-.1,2.78-2.5,0-1.06-1.78-.62-2.55.62Z"/>
      <path class="cls-1" d="M289.52,27.43c-.64.24-2.46.67-4.06.96-2.46.53-2.96.48-3.65-.14-1.05-1.01-1.69-.96-2.42.1-.5.72-8.62,3.46-12,4.03-.55.1-.91.53-.91,1.06,0,.77.46.91,3.38,1.06,2.46.14,3.65,0,4.42-.53.59-.38,1.6-.72,2.28-.72s2.01-.24,2.96-.53c1.37-.43,1.92-.43,2.42,0,.59.53.96.43,2.05-.38.73-.58,1.92-1.01,2.65-1.01.68,0,1.92-.43,2.65-.96.78-.53,1.82-.96,2.37-.96,1.37,0,1.82-.96.82-1.78-.96-.72-1.32-.72-2.96-.19Z"/>
      <path class="cls-1" d="M348.81,27.67c0,.91,1.05,1.2,4.24,1.15,2.19,0,2.6-.14,2.51-.82-.18-1.1-6.75-1.44-6.75-.34Z"/>
      <path class="cls-1" d="M361.67,27.52c-1.96.62-1.64,1.68.41,1.54,2.55-.24,3.6-.62,3.6-1.34,0-.82-1.64-.91-4.01-.19Z"/>
      <path class="cls-1" d="M343.24,30.21c-1.41.38-.87,1.54.96,2.06,1,.29,2.92.38,4.24.19,2.01-.24,2.55-.14,3.1.53.68.86.73.86-2.33,3.17-1.41,1.06-.87,2.35,1,2.35.82,0,1.87.38,2.33.82.78.72.96.72,2.46,0,2.19-1.1,3.06-1.06,2.69.14s.46,1.25,4.1.1c3.69-1.15,10.95-1.1,12.68.14,1.6,1.1,7.34.82,9.03-.38.59-.48,1.41-.82,1.87-.82.55,0,.82-.38.82-1.1,0-2.93-4.24-4.13-10.63-2.98-2.19.38-4.56.72-5.29.72-.78,0-1.51.19-1.64.48-.41.72-3.15.58-4.15-.24-1.14-.91-2.46-.91-3.69,0-.87.67-.96.62-1.14-.48-.14-.62.05-1.44.41-1.82.55-.58.36-.77-1.19-1.54-1.05-.48-2.37-.72-3.06-.58s-2.19-.05-3.33-.43c-1.96-.62-7.53-.82-9.26-.34Z"/>
      <path class="cls-1" d="M303.11,31.12c-1.46.82-1.46.86-.73,2.06.78,1.3.14,2.45-1.32,2.45-2.19-.05-5.7-1.25-6.34-2.16-.87-1.25-7.48-1.63-9.08-.53-.59.43-1.51.77-1.96.77s-1.32.38-1.82.91c-.55.48-1.46.77-2.01.67-1.28-.24-4.15,1.58-3.88,2.4.09.34.5.48.82.38.36-.14,1.23-.24,1.92-.24.68-.05,1.41-.29,1.6-.58s1.82-.53,3.65-.58c2.55-.05,3.28.1,3.28.62,0,.82-1.51,1.3-3.19,1.1-.73-.1-1.14.14-1.28.67-.23,1.15,1.92,1.63,4.33.96,1.09-.34,2.55-.58,3.24-.58s2.69-.43,4.42-.96c2.23-.67,4.56-.96,7.66-.96,7.43,0,12.36-2.02,10.26-4.22-.78-.82-1.6-.72-3.1.48-1.78,1.39-2.74.62-1.6-1.2.41-.72.64-1.49.46-1.78-.41-.72-3.92-.58-5.34.29Z"/>
      <path class="cls-1" d="M328.79,31.36c-2.33.96-4.06,3.7-2.83,4.46.23.14.32.67.23,1.15-.18.67.14.82,2.28.96,2.01.1,3.01-.14,5.2-1.34,3.06-1.63,5.11-3.46,5.11-4.56s-1.14-1.39-2.42-.53c-1,.72-1.19.72-1.69.05-.64-.82-4.1-.96-5.88-.19Z"/>
      <path class="cls-1" d="M318.71,32.03c0,.43.32.86.68,1.01.36.19.68.72.68,1.2,0,1.2,1,1.63,2.23.96.91-.53,1.05-2.06.32-3.31-.5-.86-3.92-.77-3.92.14Z"/>
      <path class="cls-1" d="M313.32,36.21c-1.09,1.15-.64,1.97.91,1.63,1.51-.29,2.65-1.1,2.65-1.78,0-.62-2.92-.53-3.56.14Z"/>
      <path class="cls-1" d="M337.77,36.64c-1.09.67-1.05,1.73.14,2.4,1.32.72,5.02.24,5.66-.72.32-.43.91-.77,1.37-.77.64,0,.68-.14.23-.72-.68-.86-6.11-1.01-7.39-.19Z"/>
      <path class="cls-1" d="M251.25,40.38c-.5.53-.96,1.44-.96,1.92,0,.67-.5,1.1-1.69,1.49-.96.34-3.33,1.54-5.25,2.69-1.96,1.2-4.2,2.26-4.93,2.45-1.82.34-2.05.91-.91,1.92.5.48.91,1.2.91,1.63,0,1.78,1.23,2.06,4.06.96,1.46-.53,3.56-1.01,4.7-1.01,1.51,0,2.28-.29,2.92-1.01,1.19-1.39,3.19-2.4,4.01-2.06.41.14,1.69-.34,2.87-1.15,1.23-.77,3.1-1.58,4.24-1.78,1.14-.14,2.96-.58,4.1-.96,1.14-.34,3.19-.77,4.56-.96,4.2-.48,4.74-1.58,1.64-3.36-1.41-.82-1.87-.86-3.69-.34-2.74.77-3.92.72-5.15-.19-.68-.48-2.55-.82-5.75-1.01-4.38-.24-4.79-.19-5.7.77Z"/>
      <path class="cls-1" d="M339.23,41.87c-1.41.19-2.96.58-3.51.86-.55.34-1.51.58-2.14.58-.73,0-1.19.29-1.19.67s-.5.82-1.14.96c-1.51.38-2.55,3.79-1.55,4.85.91.96,3.51.19,4.74-1.39,1.09-1.39,1.69-1.54,4.06-1.01,1.6.34,2.23.14,5.25-1.44,1.92-1.01,3.97-2.06,4.61-2.35.64-.34,1.14-.86,1.14-1.25,0-.58-.78-.72-3.88-.77-2.14,0-5.02.1-6.39.29Z"/>
      <path class="cls-1" d="M359.76,42.35c-.64.19-3.51,1.2-6.39,2.16-4.83,1.58-5.43,1.92-7.89,4.37-2.65,2.74-2.92,3.55-1.05,3.55,1.28,0,3.97.91,4.61,1.58.32.29-.73.34-2.96.14-2.65-.24-3.65-.14-4.33.38-.87.67-.87.72.23,1.68.87.72,1.78.96,3.92,1.01,1.51,0,2.92.19,3.19.43.23.24,1.96.53,3.83.67,1.87.1,4.97.48,6.84.86s4.74.62,6.39.62c3.38-.1,6.48-1.25,6.11-2.3-.14-.38,0-.82.27-1.01.32-.19,1.32.58,2.46,1.97,1.05,1.25,2.65,2.54,3.51,2.88l1.55.58-1.41.05c-1.73.05-3.65,1.54-3.28,2.5.32.91,3.97.62,4.33-.34.27-.77,1.37-.91,1.6-.19.09.24,1.05.96,2.19,1.58,2.01,1.1,2.05,1.2,2.05,3.5,0,1.87-.14,2.35-.78,2.35-.41,0-1.14.38-1.6.86-.5.43-1.41.82-2.05.82s-1.28.29-1.41.67-1,.96-1.87,1.3c-1.64.62-2.1,1.68-1.14,2.69.73.77.09,1.01-3.69,1.58-2.65.38-3.65.34-5.29-.24-2.65-.91-3.06-.91-4.01.19-.46.53-1.46,1.01-2.28,1.1-1.23.14-1.46.34-1.64,1.82-.5,3.17.18,3.46,4.88,2.11,1.46-.38,4.56-.77,6.84-.82,3.69-.1,4.2,0,4.01.67-.27.91.59,1.82,2.33,2.3,1.6.43,1.92,1.34.55,1.58-.64.1-1.09.53-1.19,1.15-.09.82.14,1.01,1.37,1.01,2.69.1,4.42.67,4.7,1.63.32.96.91,1.15,4.33,1.58,1.09.1,2.23.58,2.55.96.64.91,2.46,1.01,3.56.14.78-.62.78-.72.09-2.16-.41-.86-.96-1.54-1.19-1.54-.78,0-4.56-3.07-4.56-3.7,0-.72,1.19-.86,1.6-.14.14.24.87.48,1.55.48.96,0,1.64.43,2.51,1.63.82,1.15,1.41,1.58,2.05,1.39.59-.14,1.05.1,1.41.86l.59,1.1.64-1.3c.32-.72.82-1.3,1.05-1.3.27,0,.46-.43.46-.96,0-.62.32-.96.91-.96,1.23,0,1.64-1.2.91-2.64-.32-.62-.46-1.49-.27-1.97.36-1.01-.5-2.11-1.64-2.11s-3.56-2.64-3.56-3.79c.05-1.06,2.05-3.41,3.01-3.41,1.64,0,4.24,2.06,5.15,4.13.82,1.78,1.09,2.02,2.74,2.21,2.19.19,2.78.05,2.78-.82,0-1.1,1.28-1.87,2.37-1.34.82.38,1.28.19,2.51-1.1.82-.86,1.51-1.82,1.51-2.06s.55-.43,1.19-.38c1.51.1,2.46-1.2,1.73-2.45-.36-.58-1.46-.96-3.74-1.25-2.87-.38-3.28-.58-3.28-1.44,0-1.82-.78-2.45-3.06-2.5-1.19-.05-3.19-.43-4.38-.91-3.74-1.44-3.33-3.26.55-2.83,1.19.14,2.37.05,2.69-.19.82-.58.18-2.02-1-2.06q-.96,0,.09-.43c1.23-.53,1.28-1.68.14-3.65-.73-1.25-1.23-1.54-3.24-1.78-1.87-.24-2.74-.67-4.2-2.06-1.82-1.73-2.1-1.78-4.79-.91-.82.29-1.19,0-2.14-1.63-1.55-2.54-2.96-3.46-5.11-3.31-1,.05-2.65-.1-3.69-.29-1.73-.34-1.96-.24-2.65.86-.82,1.3-2.42,1.63-3.28.72-.36-.38-1.05-.24-2.42.53-1.28.72-1.87.82-1.73.38.09-.34.96-1.01,1.87-1.49s1.69-1.06,1.69-1.2c0-.19-.41-1.01-.87-1.82-1.19-2.06-3.65-2.45-7.25-1.2-1.46.53-3.15.82-3.74.67-.68-.19-1.14-.05-1.46.48-.18.43-1.09.91-1.92,1.06-1.05.24-2.05,1.01-3.19,2.4-1.78,2.26-2.05,3.12-1,3.12.96,0,1.37.91.73,1.68-.41.53-.78.53-1.64.14-1.73-.86-1.82-2.45-.32-5.04,1.14-1.92,1.69-2.35,3.6-2.93,3.47-1.06,4.29-1.44,4.29-2.21,0-.34-.64-.77-1.41-.96-1.73-.34-2.14-.34-3.6.19Z"/>
      <path class="cls-1" d="M301.6,42.78c-.46.43-.18,1.39.59,2.45.78,1.01.91,1.01,3.42.43,1.92-.48,2.6-.86,2.6-1.49,0-.43-.27-.96-.55-1.2-.64-.38-5.75-.58-6.07-.19Z"/>
      <path class="cls-1" d="M321.9,42.88c-3.65.14-6.75.34-6.93.38-.87.14-.23.96,1.05,1.44,1.82.67,1.51,1.58-.68,2.16-1.37.38-2.01.29-3.24-.38-1.19-.67-1.69-.77-2.46-.29-1.32.72-1.05,1.44,1.09,2.74,1,.58,2.01,1.68,2.33,2.54.59,1.39.78,1.54,2.1,1.25.82-.14,2.78-.43,4.38-.72,4.52-.67,8.3-4.13,5.75-5.18-.68-.29-.68-.38.09-.96.46-.34,1.32-.62,1.96-.62,1.6,0,2.46-.67,2.23-1.68-.18-1.1.14-1.1-7.66-.67Z"/>
      <path class="cls-1" d="M377.68,43.36c-.87.96-.73,1.78.5,2.59.96.67,1.41.67,3.1.19,1.19-.34,3.19-.43,5.06-.24,2.78.29,3.06.24,3.06-.62,0-1.68-1.23-2.11-6.29-2.35-3.6-.14-5.02-.05-5.43.43Z"/>
      <path class="cls-1" d="M293.3,46.29c-.78.86-1.51,2.21-1.6,3.02-.18,1.73-2.28,3.22-3.15,2.3-.41-.43-.36-.86.23-1.78,1-1.68.91-2.45-.41-3.07-1.55-.77-2.28-.72-2.96.14-.36.43-1.32.72-2.51.72-1.32,0-2.05-.24-2.23-.72-.36-1.01-1.92-.91-4.24.29-2.23,1.15-2.96.91-1.73-.53,1.19-1.39.5-1.73-1.96-1.01-1.19.34-4.29,1.15-6.93,1.73-2.65.62-5.97,1.68-7.39,2.4-2.87,1.39-3.51,2.64-1.37,2.64,1.19,0,2.37.72,2.37,1.49,0,.19-1.23.43-2.74.53-3.01.24-3.42.48-3.01,1.58.27.82.5.82,11.49-.05,2.65-.19,3.42-.05,4.01.58,1.28,1.3.59,1.87-2.05,1.82-1.37-.05-5.29,0-8.76.14-5.11.19-6.39.38-6.57,1.01-.55,1.39,1.23,2.06,4.97,1.92,1.92-.05,3.65.05,3.83.24s-.14.91-.78,1.58c-.91,1.01-.96,1.3-.41,1.68.91.62,5.88.24,9.58-.77,1.64-.43,4.93-.96,7.3-1.15,2.65-.19,4.93-.67,5.84-1.2,1.41-.77,1.6-.77,2.51-.1.55.43,1.41,1.06,1.92,1.44.73.58,1.73.62,5.47.19,5.7-.58,5.97-.67,5.25-1.58-1.05-1.3.23-2.16,3.19-2.16,3.6,0,3.88-.96.78-2.45-1.28-.62-2.74-1.15-3.24-1.15-1.46,0-1.55-2.35-.14-3.36.91-.62,1.19-1.3,1.41-3.7.41-3.46-.14-4.22-2.92-4.22-1.28,0-1.96.38-3.06,1.54Z"/>
      <path class="cls-1" d="M326.23,51.32c-.5.14-1.28.58-1.69,1.01-.46.38-.82.53-.82.29s-.91.62-2.05,1.92c-1.09,1.3-2.46,2.59-3.01,2.88-1.46.77-1.23,1.39.78,2.21,2.69,1.1,3.06,1.39,2.42,2.21-.27.38-.96.67-1.51.67-1.28,0-2.28.72-1.92,1.39.18.29.82.53,1.46.53.59,0,1.09.19,1.09.48,0,.24-.59.48-1.32.48s-1.55.34-1.87.72-1.19.72-1.96.72-2.05.24-2.92.58c-1.14.43-1.41.77-1.28,1.54.32,1.34-.36,2.35-1.41,2.11-1.32-.24-1.32-1.78.09-3.31,1.37-1.49,1.37-1.54-2.1-2.3-2.28-.53-3.28-.1-5.52,2.45q-1.23,1.44-3.74.82c-1.96-.43-3.15-.43-5.15,0-2.51.53-2.74.48-4.38-.67-1.23-.86-2.05-1.15-2.92-.91-1.32.34-3.47-1.39-3.06-2.5.36-1.06-1.96-1.34-4.56-.53-1.32.43-3.33.91-4.52,1.1-1.51.19-2.19.53-2.19,1.01,0,.72,1.73.72,6.84,0,1.51-.19.87.91-.78,1.25-4.24,1.01-5.43,1.49-6.61,2.83l-1.28,1.44-1.78-2.06-1.73-2.06-2.23.53c-2.37.62-13.64,1.01-14.09.53-.18-.19-.18-.77,0-1.3.23-.86.64-1.01,2.69-1.01,3.06,0,4.01-.86,2.55-2.4-.87-.91-1.32-1.01-3.56-.72-1.78.19-3.47.05-5.34-.53-1.51-.43-3.6-.96-4.65-1.2-1.05-.19-2.69-.82-3.65-1.39-2.37-1.3-4.65-1.25-6.75.29-1.87,1.3-2.96,1.25-2.96-.19,0-.53-.32-1.2-.68-1.54-.59-.53-.96-.38-2.23.91-1.05,1.06-1.87,1.54-2.6,1.39-.91-.1-1.09-.48-1.23-2.21-.18-2.4-1.09-2.69-3.15-.86-1.41,1.25-3.47,2.02-6.61,2.5-1.19.14-2.83.82-3.6,1.44-1.23.91-2.05,1.15-4.38,1.15-2.51,0-3.06.19-4.06,1.25-1.46,1.49-3.1,1.39-3.28-.19-.14-.77.09-1.06.68-1.06.46,0,1.87-.53,3.1-1.2,1.55-.77,3.06-1.15,4.7-1.2,2.28,0,6.02-1.58,6.02-2.54,0-.48-4.97.14-6.66.86-1.64.72-4.65,1.3-7.25,1.44-3.97.24-6.7,1.06-7.84,2.4-1,1.1-1.41,1.25-2.83,1.01-.91-.14-2.87-.91-4.33-1.73-1.87-1.01-3.33-1.44-4.88-1.44-1.64,0-2.51-.29-3.51-1.2-1.6-1.39-2.19-1.49-4.15-.43-1.32.67-1.64.67-3.6,0-3.38-1.15-12.22-2.35-15.23-2.06-2.33.19-2.83.1-3.56-.72s-1.23-.96-2.92-.72c-1.64.24-2.23.1-3.19-.67-1.82-1.49-4.47-1.73-6.07-.53-1.05.77-2.19.96-6.29,1.15-4.24.14-5.29.34-6.93,1.34-1.73,1.01-2.1,1.06-3.06.48-1.23-.67-2.46-.43-7.21,1.39-1.46.58-3.15,1.01-3.83,1.01s-1.87.62-2.78,1.44c-1.09,1.06-2.01,1.44-3.24,1.44-.96,0-2.46.43-3.42.96-1.05.62-2.6.96-4.06.96-1.41.05-2.78.34-3.28.72s-1.28.72-1.73.72c-1.19,0-1,.91.32,1.44,1.55.62,2.33,2.45,1.64,3.79-.5.91-.41,1.01.87,1.01,1.6,0,1.73.58.55,2.64-.73,1.25-1.14,1.44-2.87,1.44-1.09.05-2.37.24-2.78.43-.59.29-.82.19-.82-.34,0-.43.41-.91.91-1.06,1.87-.62.82-1.2-2.14-1.2-2.37,0-3.47.24-4.7,1.06-.87.58-2.42,1.1-3.42,1.15-1.6.14-7.71,2.16-8.3,2.78-.55.58.5,1.25,2.05,1.3,1.23.05,1.41.14.55.29-.59.14-1.6.62-2.19,1.1-.91.82-.96.91-.27,1.34.91.53,11.04.14,12.18-.48.68-.38.78-.29.5.91-.46,2.06-.59,2.16-2.51,1.82-1.69-.29-1.82-.24-2.42,1.2-.96,2.5-5.93,4.08-9.53,3.12-1.05-.29-1.73-.05-3.69,1.39-1.32.96-2.92,1.73-3.56,1.73-.68,0-2.01.72-3.1,1.68-1.23,1.1-2.37,1.68-3.24,1.68-1.6,0-2.1,1.01-1.37,2.69.41,1.01.36,1.25-.32,1.44-2.19.72-2.69,1.63-2.14,3.89.32,1.34.78,1.34,4.88.1,1.19-.34,2.33-.48,2.46-.29.41.43-1.6,2.74-2.42,2.74-.32,0-.82.53-1.05,1.2-.23.62-1.05,1.49-1.82,1.92-.73.38-1.37.86-1.37,1.01,0,.38,5.56-.34,6.48-.82,1.37-.77,3.01,0,3.19,1.39l.14,1.3,1.41-1.58c1.23-1.39,1.51-1.49,2.74-1.06.96.34,1.78.38,2.6.05,1-.43,1.23-.38,1.23.19,0,.48-.5.72-1.51.72-1.19,0-1.64.29-2.05,1.2-.32.67-.91,1.2-1.41,1.2s-1.28.53-1.78,1.2c-.73.96-1.32,1.2-2.78,1.2-2.1,0-3.92.82-5.25,2.35-.5.58-1.41,1.01-2.23,1.01-.78,0-2.42.53-3.69,1.15-3.56,1.73-5.29,2.3-8.03,2.64-1.37.19-2.96.58-3.51.91s-1.55.58-2.23.58c-1.19,0-5.61,2.74-5.66,3.46,0,.62,1.92.96,3.1.48.68-.29,1.82-.62,2.55-.82.68-.14,1.82-.67,2.46-1.1.68-.48,2.19-.86,3.51-.86,3.06-.1,5.29-.62,6.25-1.49.5-.48,1.23-.62,2.14-.38,1.14.24,1.64.05,3.1-1.34,1.51-1.44,2.14-1.73,4.93-2.02,3.65-.43,5.52-1.25,5.93-2.64.14-.53.64-.96,1.05-.96.46,0,1.28-.34,1.82-.77.59-.43,1.82-.77,2.74-.82.91,0,2.01-.29,2.42-.67s1.82-.82,3.1-1.06c1.6-.24,2.78-.82,3.65-1.68.68-.72,2.01-1.39,2.92-1.58,1.41-.24,1.64-.43,1.78-1.78.14-1.63.5-1.82,5.06-2.74,1.73-.34,3.15-.96,4.1-1.82,1.96-1.78,4.1-2.93,5.56-2.93.68,0,1.87-.53,2.65-1.15,1.73-1.39,4.65-1.87,4.65-.77,0,.48-.64.82-2.1.96-1.19.14-3.01.91-4.33,1.78-1.23.82-2.83,1.63-3.56,1.78-.78.19-2.01.96-2.83,1.73-.82.72-1.73,1.44-2.05,1.54s-.46.53-.27,1.01c.41,1.2,2.65,1.01,5.15-.38,1.41-.77,2.87-1.2,4.24-1.2,1.55,0,2.33-.24,2.92-.96s1.37-.96,3.15-1.01c4.1-.1,4.7-.43,4.7-2.59,0-1.63.14-1.92,1.09-2.06,1.69-.29,3.01.29,4.42,1.78,1.37,1.49,4.74,3.07,6.34,3.02.5-.05,1.64-.19,2.51-.34,1.87-.34,7.25,1.49,8.8,2.98.55.53,1.32,1.1,1.78,1.25.41.14.87.91,1.05,1.68.18,1.06.73,1.63,2.1,2.26,2.01.96,2.01,1.34-.09,1.3-1.23-.05-1.37.1-1.09,1.01.46,1.54.41,2.26-.41,4.61-.46,1.15-.68,2.4-.55,2.78.41,1.01,2.51-.34,4.15-2.69.91-1.3,1.73-1.97,2.42-1.97.78,0,1.23-.48,1.73-1.73.64-1.58.64-1.82-.09-2.64-.73-.86-.73-.91.27-.91s1,.14.73,2.16c-.23,1.58-.14,2.45.36,3.22,1.23,1.82.96,4.89-.64,6.77-1.19,1.44-1.23,1.68-.64,2.3.36.43.78,1.82.91,3.12.27,2.26.18,2.5-1,3.46-2.74,2.16-2.92,2.5-2.01,3.94.41.62.59.53,1.41-.43,1.32-1.73,2.14-.62,1.05,1.34l-.87,1.54,1.51,1.2c1.69,1.44,1.92,2.59.46,2.59-.78,0-1.28.53-1.87,1.97-1.09,2.45-.78,3.31,1.23,3.31,1.14,0,1.64.24,1.87.91.14.53,1.09,1.25,2.05,1.68,1.64.67,1.82.91,1.82,2.45,0,1.2.27,1.87,1.09,2.4.73.53,1.14,1.34,1.32,2.78.23,1.73.09,2.21-.91,3.31-1.09,1.2-1.28,1.25-2.14.62-1.09-.82-2.83-.96-3.24-.24-.5.82-1.96.53-2.28-.48-.14-.53-.68-.96-1.19-.96-.68,0-.87.38-.96,2.02-.09,2.74-.09,2.83.32,4.32.27,1.1.09,1.54-1.09,2.69-.87.82-1.46,1.92-1.6,2.88-.09.96-.87,2.3-2.05,3.7-1,1.15-1.87,2.35-1.87,2.59,0,.62-3.47,5.09-5.56,7.1-1.87,1.87-2.37,2.83-3.56,6.86-.87,2.98-1.78,4.94-2.65,5.95-1.28,1.39-1.37,1.78-1.55,6.38-.18,3.89-.09,5.04.46,5.57.73.77.87,3.89.32,6.48-.27,1.39-.23,1.63.64,1.87,1.46.38,1.19,2.83-.27,2.69-.64-.1-1.05.14-1.05.53,0,1.3,1.87,5.09,2.78,5.57.68.43.87.96.78,2.54l-.14,2.02,1.92-.14c1.55-.14,1.92,0,2.19.77.14.53.73,1.1,1.28,1.25s1.78,1.25,2.74,2.45c1.64,2.06,1.78,2.4,1.92,5.9.09,2.02.46,4.94.87,6.48s.73,3.74.73,4.89c0,1.68.27,2.5,1.37,3.74.78.91,1.37,1.97,1.37,2.35s.41,1.1.91,1.58c1.23,1.15,1.14,1.97-.27,3.41-.96,1.01-1.41,1.2-2.69.96-2.01-.43-2.55.53-1.05,1.87.59.53,1.23,1.34,1.41,1.82.32.91,3.24,2.35,4.1,1.97.32-.1,1.46.62,2.55,1.68,1.96,1.92,1.96,1.97,1.69,4.46-.36,3.36.41,5.52,2.87,8.01,1.64,1.68,1.92,2.21,1.73,3.31-.5,2.54,1.19,3.22,3.51,1.39.87-.67.87-.86.27-2.78-.78-2.54-1.6-3.7-2.92-3.89-1-.14-1.19-.91-1.92-8.49-.14-1.44-.68-3.26-1.14-4.08s-.87-1.82-.87-2.26-.32-1.06-.68-1.39c-.41-.38-.68-1.44-.68-2.83s-.36-2.83-.96-3.84c-.73-1.3-.82-1.73-.32-2.06.46-.34.41-.58-.32-1.1-2.65-2.11-2.6-1.97-2.33-5.9.14-2.02.27-4.32.27-5.09l.05-1.39,1.05,1.06c.78.77,1.41,1.01,2.05.77.64-.19,1.05-.05,1.23.43.14.43.68.77,1.14.77.78,0,.87.38.87,3.17,0,2.26.41,4.41,1.32,7.34.73,2.26,1.41,4.65,1.51,5.33.09.91.5,1.25,1.87,1.58,1.55.38,1.69.58,1.69,2.11,0,1.3.36,2.06,1.64,3.41,1.6,1.68,1.64,1.78.91,3.02-.41.72-.73,1.68-.73,2.21,0,.48,2.1,3.12,4.74,5.85,2.65,2.78,4.88,5.57,5.06,6.19.14.67.91,2.16,1.69,3.26,1.05,1.54,1.32,2.4,1.14,3.41-.14.86.09,1.97.73,3.17l1,1.87-1.14.86c-1.09.86-1.09.96-.32,1.54.78.62.73.72-.36,2.3-1.46,2.06-1.46,2.64.18,4.37.78.77,1.51,1.82,1.64,2.35.18.53.68.96,1.19.96.64,0,1.14.58,1.6,1.73.55,1.34.87,1.68,1.6,1.49.5-.14,1.6.14,2.37.62.82.48,2.37,1.01,3.42,1.2,1.09.19,2.33.77,2.74,1.3,1.51,1.82,5.52,4.7,6.61,4.7.59,0,1.87.53,2.83,1.25,4.24,3.02,9.67,4.75,12.45,3.94.96-.24,2.23-1.1,2.92-1.87.96-1.06,1.64-1.39,2.96-1.39,1.78,0,3.79,1.06,3.79,1.97,0,1.01,2.92,5.09,5.75,7.97,2.74,2.83,3.06,3.02,5.02,3.02,1.37,0,2.69.38,3.69,1.01.82.58,2.78,1.39,4.33,1.92,2.78.86,2.87.86,4.38-.05,1.92-1.25,2.05-1.2,1.82.24-.18.96.32,1.87,2.51,4.46,3.79,4.51,4.01,4.99,4.1,8.11.05,2.3.23,2.93,1.23,3.84.64.58,1.51,1.1,2.01,1.1.68,0,.78-.24.55-1.25-.41-1.73.5-1.01,1.32,1.06.36.91,1.14,1.82,1.78,2.11.96.38,1.14.82,1.28,2.74l.14,2.3,3.28-.14c3.65-.14,4.97.34,5.61,2.11.27.72.78,1.15,1.37,1.15s1.09.48,1.37,1.2c.5,1.44,1.78,1.54,3.24.29l1.09-.91-1-1.15c-1.28-1.44-1.32-1.82-.18-1.82.5,0,1-.43,1.19-.91.41-1.49,2.05-3.41,2.87-3.41.36,0,1.69.72,2.92,1.58,2.05,1.44,2.74,2.78,1.73,3.46-.68.43-.55,1.49.27,2.35.64.72.82.72,2.01-.05,1.23-.72,2.28-2.4,2.28-3.6,0-1.1-3.79-5.76-5.2-6.38-.78-.34-2.37-.77-3.51-.96-1.96-.29-2.23-.19-3.56,1.15-.82.82-1.92,1.49-2.55,1.49-.59,0-1.82.38-2.69.82-2.1,1.01-3.92.34-3.92-1.54,0-.72-.41-1.49-1.09-1.97-.64-.38-1.19-1.1-1.28-1.54s-.55-.82-1-.82c-.68,0-1-.72-1.73-3.5l-.87-3.55,1.14-3.41c.82-2.59,1.05-4.03.87-5.76-.23-1.87-.09-2.59.64-3.65.5-.72,1.09-2.16,1.23-3.22.36-2.16-.36-3.17-2.55-3.74-.87-.19-1.28-.62-1.28-1.25,0-1.39-2.42-2.26-5.7-2.06-2.6.19-4.88.19-8.76.1-.96,0-2.46.14-3.38.29-2.55.48-2.69-.53-.46-2.69,1.51-1.49,1.87-2.16,1.87-3.55,0-.96.32-2.4.73-3.22s.64-1.82.5-2.3c-.09-.43,0-1.2.23-1.68.36-.67.55-.72.87-.19.18.34.5.53.64.34.46-.48,1.09-3.74,1.14-5.52,0-1.06.27-1.73.96-2.06.5-.34,1.23-1.3,1.6-2.16.36-.91,1.05-1.87,1.6-2.16.73-.43.87-.82.64-1.82-.46-1.92-1.14-2.54-2.23-2.21-.55.19-1.51.34-2.19.29s-2.28.34-3.56.86-2.92.96-3.65.96c-3.01,0-4.56,1.97-4.56,5.81,0,.86-.27,1.34-.91,1.54-.5.14-1.05.62-1.19,1.15-.64,2.02-1.23,2.93-1.82,2.69-1.05-.43-2.05.77-1.73,2.06.23.91.09,1.15-.64,1.15-.5,0-1.19-.48-1.55-1.06q-.68-1.06-2.83-.19c-1.19.48-3.42,1.15-4.97,1.49-2.78.62-2.83.62-4.06-.58-.68-.72-2.01-1.39-2.96-1.54-1.69-.29-1.73-.38-2.1-2.69-.23-1.34-.5-2.88-.59-3.46s-.68-1.58-1.23-2.16c-.73-.72-1.41-2.59-2.1-5.42l-1-4.32.91-3.12c.46-1.73,1-4.08,1.19-5.28.41-2.54,1.14-4.22,3.24-7.25,1.28-1.87,1.55-2.69,1.55-4.7,0-1.39-.32-3.12-.68-3.94-.68-1.39-.68-1.44.96-2.98.91-.82,2.14-1.82,2.78-2.16.59-.34,1.28-1.15,1.51-1.82.36-.96.73-1.15,2.19-1.15,1.37,0,2.05-.34,3.1-1.49.73-.82,1.82-1.68,2.42-1.92s.96-.62.78-.77c-.27-.34,4.38-2.06,5.56-2.06.32,0,1.19.48,1.92,1.06,1.32,1.01,1.37,1.01,2.92.14,1.32-.77,1.69-.82,2.28-.29.41.38.73,1.2.73,1.82,0,1.1.14,1.2,1.73.91,4.24-.72,5.11-.67,5.61.24.23.53.96.91,1.6.91,1.09,0,1.19-.14.91-1.54-.18-.86-.36-1.97-.41-2.45-.09-.43-.55-1.15-1.05-1.49-1.37-1.06-.23-1.82,3.33-2.3,2.55-.29,3.19-.24,3.6.34.46.62.87.62,2.74.19,2.6-.62,6.43-.05,6.2.96-.23,1.2.91,1.97,2.87,1.97,1.19,0,2.14-.29,2.51-.77.96-1.15,2.83-.62,3.65,1.01.36.77,1.05,1.73,1.51,2.16.64.58.87,1.58.96,4.94.05,2.3-.05,4.32-.27,4.46-.64.43-.41,1.82.55,3.07.5.67.91,1.54.91,1.97s.5,1.58,1.14,2.54,1.14,2.3,1.14,2.93c0,1.3.46,1.54,2.55,1.3,1.05-.14,1.55-.43,1.55-1.01,0-.43.32-1.73.73-2.93,1.23-3.7,1.28-10.56.14-16.08-1.41-6.91-1.28-8.97.82-12.24,2.01-3.07,4.97-6.24,5.84-6.24.32,0,1.23-.53,1.96-1.2.78-.67,1.78-1.2,2.33-1.2.64,0,.96-.29.96-.91,0-1.39,2.46-3.89,3.79-3.89.73,0,2.01-.77,3.24-1.87,1.14-1.06,2.46-2.02,2.96-2.21.5-.14,1.28-1.15,1.69-2.21.68-1.63,1-1.87,2.28-1.87,1.55,0,2.69-1.01,2.33-2.11-.14-.34-.05-1.54.23-2.64.32-1.34.32-2.16,0-2.59-.32-.38-.32-1.34-.09-2.74.23-1.2.41-2.98.46-3.98,0-2.45,1.55-5.61,2.74-5.61s1.14.29-.23,2.59c-.78,1.34-1,2.3-.82,3.26.14.82-.05,1.78-.5,2.54-.73,1.2-1,3.79-.36,3.5.18-.1,1.64-1.63,3.24-3.41,3.01-3.46,3.19-4.18,2.1-7.2-.32-.77-.18-.86,1.23-.58,1.37.29,1.87.1,3.24-1.15.87-.86,2.01-2.5,2.46-3.65l.82-2.16h2.37c2.01,0,2.55-.19,3.56-1.3.64-.72,1.14-1.44,1.14-1.63,0-.14.82-.77,1.87-1.34,1.69-1.01,2.05-1.06,4.7-.58,3.79.72,3.69.72,4.29-.72.41-.86.41-1.49.05-2.16-.46-.91-.55-.91-1.28-.24-.59.58-.91.62-1.32.19-.78-.82-.68-2.16.14-2.5.36-.14.68-.67.68-1.2s.96-1.92,2.19-3.12c1.64-1.68,2.51-2.21,3.6-2.21,2.01,0,3.79-.77,3.79-1.68,0-.53.5-.72,1.73-.72.96,0,2.14-.34,2.65-.72.46-.38,1.6-.91,2.51-1.2.96-.29,1.78-.86,1.92-1.39.14-.58.64-.86,1.55-.91.73,0,2.42-.48,3.79-1.01,2.96-1.2,2.74-1.15,2.74-.34,0,.72-2.6,2.5-4.33,2.98-.64.14-1.14.53-1.14.77,0,.29-.5,1.01-1.14,1.63-1,.96-1.05,1.25-.64,2.54.91,2.69,3.56,2.3,7.12-.96.82-.72,2.23-1.49,3.19-1.68.91-.19,2.33-.72,3.06-1.15.78-.48,2.33-1.01,3.38-1.15,2.46-.38,5.56-2.02,5.56-2.88,0-1.2-1.14-1.68-4.79-2.02-3.47-.34-6.16-1.54-7.16-3.22-.64-1.06-.41-4.65.32-4.94.78-.34.91-1.92.18-2.35-.23-.19-1.05-.05-1.82.24-1.05.48-1.46.48-2.01,0-1.14-1.01-.05-1.63,2.69-1.49,2.19.1,2.69-.1,4.01-1.34s1.46-1.54,1.05-2.74c-.73-2.11-2.01-2.54-5.43-1.78-5.56,1.2-8.03,2.02-9.49,3.17-2.33,1.82-6.25,3.46-6.84,2.83-.36-.38.18-.86,1.96-1.78,1.37-.67,3.15-1.73,4.01-2.4.91-.72,2.14-1.2,3.1-1.2,1.23,0,2.01-.48,4.15-2.69l2.6-2.69,12.86.24c12.31.19,12.91.19,13.68-.72.41-.53,2.05-1.87,3.6-3.02,2.1-1.58,3.47-2.26,5.47-2.59,3.01-.53,7.66-2.98,8.57-4.51,1.09-1.82,1.28-4.46.5-6.09-.59-1.15-1-1.44-2.23-1.44-1.32,0-1.55-.19-1.78-1.3-.14-.72,0-1.68.32-2.16.41-.77.32-1.06-.36-1.63-.5-.38-1.46-.67-2.14-.67-.87,0-1.37-.29-1.55-.96-.23-.72-.68-.96-2.05-.96-1.6,0-1.78-.14-1.92-1.3-.09-.96-.55-1.54-1.51-1.97-2.46-1.15-2.74-1.39-2.87-2.64-.14-1.06.05-1.25,1.14-1.39,1.23-.14,1.28-.24,1.09-2.54-.09-1.3-.41-2.83-.78-3.36-.36-.48-.64-1.39-.64-1.92s-.41-1.82-.91-2.88-.91-2.64-.91-3.6c0-1.68-.64-2.88-1.55-2.88-.59,0-4.38,4.32-4.38,5.04s-3.19,3.12-4.24,3.12c-.41,0-1.55.43-2.55,1.01-1.96,1.06-2.74.86-4.29-.91-.5-.58-1.19-.86-1.73-.72-.78.24-.87,0-.87-1.92,0-2.21,1.32-5.04,3.01-6.33.41-.29.68-.96.55-1.49-.14-.77-.59-.91-3.01-1.06-2.23-.1-2.87-.29-2.65-.82.14-.38-.36-1.06-1.23-1.63-.82-.53-2.01-1.44-2.69-2.02-1.19-1.01-1.41-1.06-3.79-.48-1.73.43-4.1.48-7.48.29-4.7-.34-5.02-.29-5.47.62-.27.53-.5,1.73-.5,2.59,0,.91-.5,2.35-1.14,3.36-.64.96-1.14,2.4-1.14,3.17,0,1.39-1.87,3.17-5.79,5.61-1.78,1.1-1.92,2.78-.27,3.02,2.37.38,3.24,4.61,1.46,7.01-.59.82-.87,1.73-.73,2.45.14.96,0,1.2-.78,1.2-1.05,0-2.51.91-4.38,2.69-1.14,1.1-3.42,2.11-7.3,3.26-3.83,1.15-4.1,1.44-4.1,4.41,0,1.44-.32,3.41-.73,4.41-.36.96-.78,2.35-.87,3.07-.14,1.2-2.1,4.46-3.15,5.28-.23.14-.68.19-1,.05-.36-.14-.96.1-1.32.53-.91.91-2.23,1.01-2.83.14-.46-.62-1.51-3.36-2.28-5.95-.41-1.3-.23-2.16,1.32-6.24,1-2.59,2.01-4.99,2.28-5.28,1.14-1.44.09-1.92-4.7-1.97-2.55-.05-4.79-.24-4.93-.38s-.27-.86-.27-1.54c0-1.3-.05-1.3-2.83-1.15-2.78.19-2.87.14-3.38-1.2-.96-2.59-1.19-2.78-3.56-3.17-1.55-.29-2.46-.72-2.78-1.34-.59-1.1-3.88-1.3-5.29-.24-1.05.77-2.65,1.15-2.83.62-.05-.19.23-.86.64-1.54.46-.77.64-1.63.46-2.4-.18-.67-.09-1.63.18-2.21.82-1.63.14-2.78-1.87-3.12-2.28-.38-2.37-1.73-.14-2.98.55-.29,1.09-1.2,1.23-1.97.27-1.39,2.01-2.98,5.29-4.8.64-.34,1.69-1.15,2.33-1.73s1.51-1.2,1.96-1.34c.41-.19.78-.58.78-.91s1.55-1.25,3.42-2.02c3.19-1.3,3.42-1.44,3.42-2.78s.14-1.44,1.14-1.15c.64.14,1.64.43,2.28.58,2.14.58,3.38-1.63,1.51-2.59-.91-.43-.78-.53,1.23-.58,1.28,0,2.78-.05,3.42-.05.59-.05,1.37-.38,1.64-.82.36-.58,1.28-.82,2.78-.86,1.19-.05,2.83-.24,3.56-.43,1.92-.53,6.93-4.37,7.21-5.52.14-.58.64-.96,1.14-.96.55,0,1.05-.19,1.19-.43s1-.58,1.92-.72c1.41-.29,1.6-.48,1.46-1.63-.14-1.2,0-1.3,1.73-1.44,1.28-.1,2.14.1,2.6.58.41.43,1.32.77,2.1.77,1.09,0,1.41-.19,1.41-.91,0-1.39.73-1.63,2.23-.72,1.19.72,1.55.77,3.47.19,1.73-.53,4.65-2.35,6.61-4.18.14-.14-.14-.48-.59-.82-1.78-1.39-.32-4.94,1.51-3.74,1.05.67,2.1.34,2.42-.77.14-.43.36-1.2.55-1.68.27-.62.09-.82-.78-.82-.64,0-1.51-.43-1.92-.91-.91-1.06-4.29-1.54-6.52-.91-1.19.34-1.6.77-2.01,2.35-.55,1.82-1.64,2.64-3.06,2.26-.32-.1-.82.38-1.14,1.01-.32.72-1.46,1.54-3.06,2.16-1.37.58-3.01,1.39-3.65,1.82-1.51,1.15-3.06,1.1-3.65-.14-.87-1.68-.36-2.93,1.37-3.55,1.32-.48,1.6-.82,1.6-1.97,0-1.25-.18-1.39-1.69-1.54-1.19-.1-1.82.1-2.28.72-.78,1.15-3.1,2.69-3.47,2.35-.46-.53,1.23-3.65,2.01-3.65.41,0,.64-.34.55-.86-.18-.86-1.73-1.06-3.19-.34-.64.24-.82.1-.82-.67s.36-1.1,1.28-1.3c1.28-.29,1.32-.38,1.32-3.12.05-2.69-.05-2.93-1.28-3.55-1.28-.72-2.96-.82-4.74-.38Z"/>
      <path class="cls-1" d="M447.87,57.56c-1.28.24-1.64,1.15-1.28,2.78q.32,1.25,4.15,1.01c4.33-.24,4.97-.48,4.38-1.58-.68-1.34-5.06-2.69-7.25-2.21Z"/>
      <path class="cls-1" d="M308.99,60.59c-.96.86-2.1,1.44-2.87,1.44-1.55,0-2.83.72-2.33,1.3.23.19,1.14.38,2.05.43s3.06.24,4.7.43c3.69.43,5.11-.14,4.88-2.06-.09-.91-.46-1.34-1.14-1.44-.55-.1-1.23-.48-1.51-.86-.87-1.06-2.1-.82-3.79.77Z"/>
      <path class="cls-1" d="M370.93,61.07c-.14.24-1.09.67-2.05.96-2.23.62-2.51,1.92-.46,1.92,1.37,0,3.65-1.78,3.65-2.88,0-.62-.78-.62-1.14,0Z"/>
      <path class="cls-1" d="M373.62,66.49c-1.82,1.1-3.88,3.22-3.6,3.7.14.24,1.51.48,3.01.48,2.42,0,2.87-.14,4.38-1.58,2.14-2.11,1.87-3.22-.87-3.22-1.09.05-2.37.29-2.92.62Z"/>
      <path class="cls-1" d="M379.64,67.26c-.18.29.14.96.64,1.49.78.82,1.09.86,1.87.48,1.37-.82.91-2.11-.82-2.3-.78-.1-1.55.05-1.69.34Z"/>
      <path class="cls-1" d="M337,78.63c-1.32.86-2.74,2.02-3.1,2.54-.36.58-.91,1.01-1.23,1.01s-.82.53-1.09,1.2c-.41.96-.87,1.2-2.1,1.2-1.6,0-3.01,1.01-3.01,2.11,0,.38.73.58,2.19.58,1.87-.05,2.14.1,2.28,1.01.18,1.39.46,1.39,3.65-.34,1.51-.82,2.92-1.44,3.19-1.44s.91-.43,1.37-.96c.82-.96.87-.96,1.92.24,1.28,1.44,4.01,2.3,5.75,1.87.78-.19,1.32-.1,1.6.34.5.91,1.23.1,1.6-1.82.27-1.49.23-1.54-1.46-1.68-1.37-.1-1.82-.38-1.92-1.1-.27-1.44-1.46-2.69-3.6-3.65-1.41-.62-1.96-1.15-1.96-1.87,0-1.34-1.14-1.15-4.06.77Z"/>
      <path class="cls-1" d="M359.3,86.31c0,.77,1.05,2.11,1.6,2.11,1,0,.82-1.34-.18-1.92-1-.53-1.41-.62-1.41-.19Z"/>
      <path class="cls-1" d="M355.29,88.04c.09.62.5,1.15.96,1.25,1,.19,1.6-1.3.73-1.87-1.14-.77-1.87-.48-1.69.62Z"/>
      <path class="cls-1" d="M335.26,91.11c-1.96,1.25-2.51,2.3-1.37,2.69,2.05.77,7.62-1.44,7.62-2.98s-3.74-1.3-6.25.29Z"/>
      <path class="cls-1" d="M345.48,93.46c-.87.67-.91,2.69-.09,2.98.64.19,2.96-2.16,2.96-2.98,0-.91-1.78-.91-2.87,0Z"/>
      <path class="cls-1" d="M395.19,95.47c-.18.14-.32.72-.32,1.2,0,1.34,1.55.91,1.73-.48.14-1.01-.73-1.49-1.41-.72Z"/>
      <path class="cls-1" d="M41.95,102.19c-1.82.24-2.23,1.15-1.14,2.5,1.05,1.3,1.41,1.25,3.33-.43,1.32-1.2,1.46-1.49.91-1.92-.36-.24-.87-.43-1.14-.38-.23.05-1.14.14-1.96.24Z"/>
      <path class="cls-1" d="M80.85,111.17c-.5.34-1.09.67-1.37.72-.23,0-.46.34-.46.62,0,.43.64.58,2.01.53,2.42-.14,3.1-.67,2.1-1.78-.91-.96-1.14-.96-2.28-.1Z"/>
      <path class="cls-1" d="M74.69,114.81c-.78.82-.82,1.15-.46,1.97.5.91.59.96,1.69.14.68-.43,1.73-.96,2.37-1.15,1.92-.53,1.46-1.68-.73-1.82-1.46-.1-2.14.1-2.87.86Z"/>
      <path class="cls-1" d="M140.56,118.84c-1.41.67-2.23,1.92-1.73,2.74.14.24.59.24,1.09-.05.46-.24,1.6-.48,2.51-.48,1.78,0,2.51-.96,1.6-2.16-.68-.86-1.6-.86-3.47-.05Z"/>
      <path class="cls-1" d="M332.85,121.15c-1.05,1.82-.78,2.5.82,2.06,2.33-.62,3.33-3.6,1.23-3.6-.82,0-1.41.48-2.05,1.54Z"/>
      <path class="cls-1" d="M139.14,122.83c-.32.1-.59.58-.59,1.01,0,.38-.32,1.15-.78,1.63-.68.82-.68.91,0,1.73.46.48.78,1.39.78,1.97,0,1.54,1,1.06,1.92-.96,1.64-3.55,1.82-4.22,1.6-4.94-.27-.72-1.73-.96-2.92-.43Z"/>
      <path class="cls-1" d="M22.02,128.25c-1,.53-2.05.96-2.37.96-.78,0-.78,1.87.05,2.21.32.14,1.28-.19,2.14-.72s2.33-1.1,3.28-1.25c1.28-.29,1.69-.53,1.51-1.06-.14-.38-.27-.82-.27-.91,0-.58-2.78-.1-4.33.77Z"/>
      <path class="cls-1" d="M136.27,128.73c0,.24.23.48.46.48.27,0,.46-.24.46-.48,0-.29-.18-.48-.46-.48-.23,0-.46.19-.46.48Z"/>
      <path class="cls-1" d="M7.01,134.11c-.68.91-1,1.73-.73,2.02.55.58,2.37,0,3.69-1.1.91-.77.96-1.01.46-1.68-.96-1.2-2.14-.91-3.42.77Z"/>
      <path class="cls-1" d="M131.71,133.43c-1.09.96-1.14.96-.27,1.97,1.19,1.39,2.83,1.3,3.74-.19.46-.77,1.19-1.2,1.92-1.2,2.01,0,.5-.96-2.01-1.25-1.82-.24-2.46-.1-3.38.67Z"/>
      <path class="cls-1" d="M.81,135.69c-.59.67-.91,1.34-.78,1.54.5.48,2.6-.72,2.6-1.49,0-1.25-.73-1.25-1.82-.05Z"/>
      <path class="cls-1" d="M317.7,136.46c-.46.24-.82.91-.82,1.39,0,.77.32.96,1.51.96,1.78,0,3.51-1.15,2.83-1.87-.73-.77-2.69-1.06-3.51-.48Z"/>
      <path class="cls-1" d="M131.84,137.22c-1.23.24-1.28.67-.18,3.46.5,1.25.96,1.92,1.14,1.58s.23-.58.09-.58.05-.96.36-2.11c.59-1.97.55-2.78-.14-2.64-.14.05-.73.19-1.28.29Z"/>
      <path class="cls-1" d="M407.69,145.19c-1.92.62-6.48,5.04-8.94,8.64-1.14,1.68-2.46,2.98-3.51,3.5-1.14.53-1.73,1.15-1.73,1.73,0,1.49-.87,2.78-1.82,2.78-1.23,0-1.96,1.54-1.19,2.64.46.67.91.77,1.92.48.73-.19,2.1-.34,3.06-.29,4.52.14,6.16.14,7.48-.19.82-.19,1.82-.19,2.23-.05.68.29.68.38-.05,1.25-.46.53-1.19.96-1.69.96-1.14,0-1.05.82.27,1.68,1.37.96,2.6.43,3.74-1.68.82-1.39,3.15-2.83,3.69-2.21.18.14-.18.96-.73,1.78-.91,1.3-.96,1.58-.41,2.16,1.6,1.68,4.47,1.63,4.47-.1,0-.29.32-.82.73-1.2,1.09-.96,2.14-3.36,1.69-3.84-.27-.29-1.05-.24-1.92.1-1.92.72-2.19.34-.91-1.44.96-1.34.96-1.54.27-2.3-.59-.77-.64-.96-.05-1.78.87-1.3.82-2.35-.27-3.7-.73-.91-.96-1.01-1.32-.48-.23.34-.64.48-.91.34-.27-.19-.82,0-1.23.43-1.09,1.1-2.19.67-2.46-.96-.23-1.25-.46-1.44-1.51-1.3-.68.05-1.23-.1-1.23-.38,0-.58,2.74-3.41,4.47-4.65,1.23-.86,1.37-2.54.23-2.5-.46.05-1.51.29-2.37.58Z"/>
      <path class="cls-1" d="M136.45,149.51c.18.82.91,2.11,1.64,2.83.78.72,1.37,1.63,1.37,2.06,0,.38.5.96,1.05,1.15.59.24,1.32,1.06,1.64,1.87.41,1.01,1.23,1.68,3.06,2.45,3.06,1.34,3.83,1.1,3.83-1.2,0-1.3-.23-1.78-.91-1.97-.59-.14-.91-.67-.91-1.39,0-2.3-.87-3.6-3.06-4.61-1.23-.53-2.55-1.34-3.01-1.73-.46-.43-1.73-.82-2.92-.91l-2.05-.1.27,1.54Z"/>
      <path class="cls-1" d="M375.26,153.25c0,.53.36,1.1.82,1.25.41.19,1.23.82,1.78,1.44.91,1.01,1.41,1.15,3.65,1.01,2.1-.1,2.69-.34,2.78-.96.09-.58-.27-1.06-1.14-1.39-.68-.29-1.87-.86-2.65-1.2-.73-.34-2.23-.72-3.28-.86-1.69-.14-1.96-.1-1.96.72Z"/>
      <path class="cls-1" d="M381.28,164.34c-.64.67-.73,1.82-.09,1.82.41,0,1.37-1.49,1.37-2.11,0-.48-.68-.34-1.28.29Z"/>
      <path class="cls-1" d="M370.7,167.84c-.87,1.1-.18,3.07,1.28,3.41.68.19,1.64.62,2.14.96,1.23.91,2.23.82,3.19-.29.46-.53,1.14-.96,1.46-.96.36,0,.59-.29.46-.62-.09-.34-1.05-.58-2.42-.58-2.78-.05-4.83-.91-4.47-1.92.36-.96-.87-.96-1.64,0Z"/>
      <path class="cls-1" d="M383.47,168.42c-.87.62-1.73,1.58-1.92,2.11-.18.48-.55.91-.82.91-.82,0-.5,1.34.55,2.11s2.92,1.01,4.2.48c.78-.34,1-2.59.27-2.59-.23,0-.46-.34-.46-.72s.18-.72.41-.72c.5,0,.87-1.44.64-2.3-.32-.82-1.05-.67-2.87.72Z"/>
      <path class="cls-1" d="M291.52,273.66c-.05,2.02.14,2.88.5,2.88.82,0,1.55-1.1,1.87-2.88.27-1.25.14-1.73-.5-2.26-1.51-1.1-1.82-.72-1.87,2.26Z"/>
      <path class="cls-1" d="M294.72,278.7c-.78.62-.78.67-.05.72.46,0,.78.38.78,1.01,0,.67.23.91.78.82.87-.19,1.19-1.78.5-2.64-.59-.82-.91-.77-2.01.1Z"/>
      <path class="cls-1" d="M292.07,279.75c-.5.53-.27,1.1.41,1.1.36,0,.68-.19.68-.43,0-.62-.73-1.06-1.09-.67Z"/>
      <path class="cls-1" d="M287.1,281.19c-.59.62-.32,2.45.46,2.74,1.05.43,2.01-.67,1.69-2.02-.27-1.01-1.51-1.44-2.14-.72Z"/>
      <path class="cls-1" d="M287.78,285.27c.27.86,1.28,1.01,1.28.19,0-.43-.32-.77-.73-.77s-.64.24-.55.58Z"/>
      <path class="cls-1" d="M299.09,289.2c0,1.82.73,2.74,1.19,1.54.36-1.01-.14-3.17-.73-3.17-.27,0-.46.72-.46,1.63Z"/>
      <path class="cls-1" d="M265.89,290.26c-1.82.34-3.92,1.1-4.65,1.63-1.46,1.1-3.42,4.75-2.87,5.33.68.67,2.87-.14,2.87-1.06,0-.72.32-.91,1.78-.91,1.37,0,1.92-.24,2.51-1.2.78-1.25,3.06-2.11,4.7-1.78,1.19.24,1.41,1.06.36,1.06-.96,0-.87,1.25.14,1.68.41.19,2.28.43,4.15.58,2.87.24,3.24.38,2.55.91-1.23.96-.36,1.63,2.1,1.63,2.92,0,4.06.62,4.06,2.3,0,1.54.41,2.21,1.51,2.64.41.19.96.82,1.23,1.49.55,1.63,1.32,1.78,8.03,1.63s7.71-.67,5.56-2.78c-.59-.58-1.6-.96-2.55-.96-1.14,0-1.6-.24-1.78-.96-.14-.53-.5-.96-.82-.96s-.82-.29-1.14-.67c-.27-.38-.78-.62-1.14-.48-.78.34-2.55-.67-6.29-3.41-1.87-1.34-3.47-2.16-4.29-2.16-1.51,0-2.46-.77-2.1-1.68.09-.38-.18-.86-.64-1.15-.78-.38-2.14-.62-8.35-1.2-.87-.1-3.1.14-4.93.48Z"/>
      <path class="cls-1" d="M303.02,293.09c.18.72.09,1.2-.23,1.2-.27,0-.5.19-.5.48,0,.77,2.14.53,2.46-.29.36-1.01.36-.96-.46-1.82-1.05-1.1-1.6-.91-1.28.43Z"/>
      <path class="cls-1" d="M263.79,296.98c-1.14,1.15-.14,2.21,1.96,2.02,1.41-.14,1.64-.34,1.64-1.34s-.23-1.25-1.41-1.34c-.87-.1-1.73.14-2.19.67Z"/>
      <path class="cls-1" d="M306.3,306.67c-2.14.14-3.88,1.3-2.6,1.73.36.1,1.28.43,2.01.67,1.05.34,1.32.67,1.23,1.49-.09.58.09,1.39.41,1.78,1.05,1.39-.18,1.82-3.15,1.2-3.47-.82-4.83-.58-5.02.77-.14.86.14,1.1,1.37,1.3.82.1,1.92.24,2.42.24,3.47.05,7.53.72,7.53,1.25,0,.62.96,1.2,2.1,1.2.32,0,.91-.77,1.28-1.68.73-1.73,1.51-2.06,3.1-1.15.73.43,1.09.34,1.78-.48l.91-1.01,1.78.96c2.37,1.3,2.55,1.25,3.47-.72.91-2.11.32-3.12-1.87-3.12-.91,0-1.78-.38-2.33-1.01-.46-.53-1.92-1.54-3.24-2.16-2.37-1.2-5.97-1.58-11.17-1.25Z"/>
      <path class="cls-1" d="M330.11,313.68c-2.1,2.21,2.69,4.22,6.07,2.54,2.19-1.06,1.41-1.78-2.78-2.5-1.87-.34-2.96-.38-3.28-.05Z"/>
      <path class="cls-1" d="M283.13,314.83c0,.48.5,1.39,1.14,2.02,1,1.01,1.32,1.06,2.69.62.87-.29,2.05-.43,2.65-.29,1.37.29,2.51-.91,1.64-1.63-.59-.43-5.84-1.58-7.39-1.58-.41,0-.73.38-.73.86Z"/>
    </g>
  </g>
</svg>