<?xml version="1.0" encoding="UTF-8"?>
<svg id="Calque_2" data-name="Calque 2" xmlns="http://www.w3.org/2000/svg" viewBox="0 0 183 166.95">
  <defs>
    <style>
      .cls-1 {
        stroke-width: 0px;
      }
    </style>
  </defs>
  <g id="Calque_1-2" data-name="Calque 1">
    <g>
      <path class="cls-1" d="M136.16.49c-.09.27-.13.53-.1.56.04.03.27.01.51-.03.37-.07.49-.19.56-.56.09-.44.07-.46-.37-.46-.39,0-.47.07-.6.49Z"/>
      <path class="cls-1" d="M138.56.46c-.01.16-.17.26-.47.29-.34.03-.51.14-.66.43-.13.27-.36.41-.87.56l-.7.17-.06,1.16c-.07,1.32-.39,2.14-1.46,3.8-.64.99-1.37,2.56-1.37,2.96,0,.11.19.19.5.19.27,0,.5.03.5.09,0,.04-.26.46-.57.93-.54.79-.57.89-.49,1.53.07.59.01.86-.36,1.72-.59,1.32-.66,1.74-.43,2.42.11.34.19,1.46.2,3.12l.03,2.57-.53,1.5c-.3.83-.59,1.79-.63,2.14-.3,1.94-.87,3.4-1.79,4.65-.3.39-.7,1.1-.89,1.56-.59,1.44-1.82,2.4-3.36,2.62-.54.07-.73,0-1.8-.64-.64-.39-1.46-.84-1.77-1-1.12-.56-1.66-1.54-1.09-1.97.21-.17.19-.19-.26-.2h-.5s.53-.5.53-.5c.34-.31.69-.5.93-.5.51,0,1.9-.94,1.9-1.3,0-.31-.76-.49-1.53-.34-.67.13-1.42.89-1.62,1.66-.1.34-.23.56-.33.51-.1-.03-1.06-.36-2.13-.74l-1.96-.67-.94-1.07c-.84-.93-1.14-1.14-2.56-1.86-.87-.43-1.62-.82-1.64-.84-.03-.01.01-.23.1-.46.1-.3.09-.53-.06-.89-.2-.46-.21-.46-.49-.21-.29.26-.29.24-.29-.16v-.41s-.3.39-.3.39c-.21.29-.43.4-.73.4-.39,0-.43-.03-.34-.37l.1-.37-.41.3-.43.3-1.33-1.24c-.74-.67-1.43-1.34-1.53-1.49-.1-.16-.34-.27-.54-.27-.56,0-1.06-.6-1.06-1.26,0-.73.71-1.82,1.53-2.3.44-.27.66-.51.76-.87.07-.27.26-.93.41-1.47.16-.53.24-.96.21-.96-.04,0-.21.07-.37.16-.36.2-.54-.03-.54-.66,0-.36.09-.47.43-.6.41-.16.43-.14.43.24,0,.53.16.61.71.37l.47-.19-.46-.27c-.47-.27-.57-.49-.26-.49.11,0,.31-.13.47-.3l.27-.3.07.3c.07.27.13.24.9-.36.8-.64.83-.69.74-1.2-.06-.37-.03-.57.13-.7.14-.11.19-.31.14-.57-.07-.37.16-.6,1.42-1.46.11-.09-.1-.53-.63-1.3-.04-.07-.31-.03-.6.1l-.51.21-.17-.83c-.1-.44-.23-.87-.29-.94-.07-.07-.53.14-1.06.49-.77.5-.9.64-.71.74.17.11.19.19.07.33-.13.16-.09.21.2.3.2.04.37.17.37.27,0,.23-.41.59-.87.76l-.37.14v-.92c.03-.5.01-.92,0-.92-.03,0-.39.17-.82.39-.44.21-.84.34-.89.29-.06-.06.17-.33.5-.61.43-.37.56-.57.46-.67-.23-.23-.2-.33.29-.89.69-.77.34-.6-.8.44-.96.84-1.16.96-2.03,1.14-1.27.26-1.3.26-1.5-.17-.13-.27-.24-.34-.49-.29-.23.06-.39,0-.53-.21-.2-.29-.24-.29-.96-.07-.6.17-.87.19-1.47.06-.41-.09-.87-.29-1.04-.43-.16-.14-.46-.26-.67-.26-.39,0-.51-.19-.24-.36.39-.24.03-.36-1.06-.36h-1.2l.04-.67.04-.69-.41.47c-.54.6-.8.53-1.49-.41-.29-.39-.57-.7-.63-.7-.04,0-.33.16-.61.36s-.56.36-.59.36-.1-.56-.16-1.24c-.04-.69-.13-1.27-.16-1.3-.13-.13-.61.41-.7.77-.09.33-.11.34-.4.14s-.34-.2-.56,0c-.2.19-.31.19-.56.06-.43-.23-1.17-.07-1.57.36l-.31.34.74.73c.67.66.76.7.93.49.13-.19.3-.23.7-.16.31.04.49.03.44-.06-.06-.07-.03-.13.06-.13.19,0,.44.47.44.84,0,.16.13.31.29.37.21.07.29.21.29.59,0,.77-.21,1.06-.79,1.06-.34,0-.5.07-.5.21,0,.36-.57.53-1.84.56-1.83.03-2.5-.13-2.72-.6l-.19-.39-.21.4c-.13.27-.29.39-.43.33-.11-.04-.24-.09-.27-.09s-.06-.13-.06-.29-.06-.29-.13-.29c-.29,0-.59.47-.59.92,0,.34-.1.54-.41.77-.4.29-.46.3-.94.09-.3-.11-.54-.2-.57-.17-.01.03-.11.19-.2.36-.09.19-.29.33-.43.33-.17,0-.36.24-.57.79-.17.43-.44.82-.57.86-.33.1-1.16,1.13-1.16,1.43,0,.11.11.26.26.3.13.04.4.14.6.23l.36.14-.43.34c-.23.19-.66.39-.94.43-.49.09-.53.13-.69.83-.39,1.73-.4,1.74-1.07,1.94-.59.16-.63.21-.87.97-.14.46-.29.89-.31.99-.04.1.21.31.59.5.53.24.69.41.8.82.16.6.11.66-.29.44-.24-.13-.36-.11-.57.07-.17.14-.37.2-.61.14-.27-.07-.4-.03-.51.2l-.16.29-.69-.3c-.41-.19-1.09-.33-1.74-.37-1.06-.06-1.09-.06-1.76.46-.37.29-.7.51-.74.51-.03,0,.07-.3.23-.67.16-.36.26-.73.23-.82-.04-.09-.36-.24-.71-.33-.56-.16-.69-.26-.94-.82-.64-1.33-2-2.52-2.86-2.52-.29,0-.44-.07-.44-.2s-.1-.17-.26-.13c-.14.03-.37-.07-.51-.23-.5-.56-1.66-.29-1.66.39,0,.13-.07.5-.16.82l-.16.56-.27-.33c-.29-.34-.24-.59.1-.59s.23-.53-.11-.61c-.33-.1-.56.11-.46.4.06.14-.93.93-1.16.93-.04,0-.07-.21-.07-.49s-.09-.54-.17-.6c-.37-.23-.71-.16-.84.19-.2.54-.16.73.27.96.34.2.36.21.09.23-.4,0-.66.33-.76.97l-.09.51-.43-.82c-.24-.44-.46-.82-.5-.82s-.33.41-.63.93-.6.93-.67.93-.2-.13-.3-.29c-.24-.39-.37-.36-.43.1l-.06.4-.16-.34-.14-.36-.26.39c-.21.34-.23.5-.09,1.2.27,1.36.26,1.39-.43,1.03-.53-.26-.61-.27-.82-.09-.19.2-.24.19-.47-.09s-.29-.29-.41-.1c-.21.34-.19.39.43.49.64.1.63.07.4.82-.14.53-.2.56-.71.56-.39,0-.54-.06-.54-.21,0-.14-.14-.21-.43-.21-.33,0-.44.07-.51.36-.07.27-.19.36-.47.36-.31.01-.34.03-.13.16.17.1.34.09.56-.01.16-.1.33-.13.37-.1.03.04-.01.44-.1.89-.19.87-.07,2.5.17,2.5.07,0,.26-.07.41-.14.21-.13.27-.1.27.1,0,.37-.17.57-.5.63-.16.03-.39.26-.51.5-.21.44-.23.44-.57.21-.47-.31-1.82-.76-1.99-.66-.09.04-.14-.01-.14-.14,0-.16-.09-.21-.24-.16-.53.16-1.32.13-1.53-.04-.27-.23-.31-.2-.44.29-.09.31-.03.4.49.63.67.3.7.36.3.71-.56.5-.49.7.6,1.76l1.04,1.03h-1.07v.89c0,.64-.04.84-.14.69-.09-.14-.14-.16-.14-.04,0,.43-.33.11-.93-.92-.36-.61-.69-1.32-.73-1.59-.07-.37-.17-.49-.5-.56-.23-.04-.41-.11-.4-.17,0-.04.34-.37.77-.73l.76-.64-.8-.04c-.79-.04-.83-.03-1.24.49-.23.29-.61.87-.86,1.32-.31.6-.63.94-1.23,1.33-1.32.87-1.39,1.1-1.3,4.02l.03,1.24.43-.07c.36-.09.43-.04.51.29.11.46.23.33-1.32,1.42-1.09.77-1.27.96-1.32,1.34-.04.36-.13.47-.44.54-.34.07-.41.17-.49.66-.23,1.72-1.69,3.36-3.87,4.42-2.82,1.34-4.86,1.92-6.03,1.7-.93-.17-1.4.01-2.22.84-.61.64-.74.7-2.5,1.19-1.8.5-1.84.51-2.13,1.04-.23.44-.43.59-1.07.8-.99.34-1.17.34-1.59.01-.33-.26-.34-.26-1.12,0-1.04.36-1.09.34-.74-.2l.3-.49-.34-.31-.34-.31-.19.71q-.19.73-.47.46c-.26-.24-.34-.26-.64-.09q-.34.19-.04.27l.31.1-.3.4c-.16.23-.57.56-.89.74-.33.17-1.32,1.02-2.2,1.87-.89.84-1.69,1.54-1.79,1.54s-.89.47-1.74,1.04l-1.56,1.03-.87,1.67c-.49.93-.9,1.69-.94,1.69s-.2-.41-.34-.93c-.2-.69-.24-1.16-.17-1.73.09-.71.07-.77-.16-.64-.73.39-1.13,1.26-1.69,3.59l-.26,1.09.34.63c.24.49.34.94.39,1.93.06,1.24.04,1.33-.49,2.5-.53,1.14-.56,1.3-.56,2.65s.01,1.44.47,2.12c.26.37.63,1.04.83,1.49.2.43.82,1.4,1.39,2.14,1.73,2.26,1.92,2.57,2.02,3.23.11.73-.03,1.84-.21,1.73-.2-.11-.73-1.22-.84-1.7l-.1-.43-.26.53c-.29.59-.5.7-.5.29,0-.59-.33-1.34-.93-2.1l-.63-.83-.16.39c-.39,1.02.01,2,1.3,3.2.92.87,1.03,1.2.57,1.76l-.27.33-.73-1.47c-.73-1.43-.74-1.46-1.16-1.37s-.44.06-1.03-1.13c-.44-.9-.69-1.23-.89-1.23-.23,0-.26.07-.19.57.11.86,1.96,3.69,3,4.59,1.8,1.57,3.53,4.16,3.53,5.28,0,1.04.29,1.6,1.36,2.72.74.76,1.14,1.3,1.36,1.84.17.43.54,1.07.84,1.43.84,1.02,1.02,1.47,1.3,3.43.37,2.63,1.06,4.32,2.76,6.83.73,1.1,1.49,2.3,1.67,2.67.34.73.47,1.86.44,4.22,0,.69.09,1.52.2,1.93.29.97.27,1.63-.09,2.3-.43.82-.66.96-1.37.84l-.61-.09-.03.47c-.07,1.69.19,2.85.79,3.59.17.21.27.23.67.1.66-.23,1.32,0,2.45.87.69.53,1.33.86,2.36,1.22,1.33.47,1.49.49,2.63.4.67-.06,1.63-.09,2.14-.07,1.16.03,2.13-.19,3.19-.71.89-.44.89-.43.67-.83-.13-.23-.04-.34.49-.74.34-.26.77-.71.96-1.03.3-.53.33-.54.93-.46.46.06.86,0,1.43-.21.76-.29.79-.31.56-.56-.23-.26-.23-.3.07-.79.19-.3.59-.71.9-.94.47-.34.71-.41,1.36-.41.49,0,1.24-.16,2.02-.41,1.12-.39,1.44-.43,3.42-.47,1.33-.03,2.16.01,2.13.1-.03.07.06.24.17.39.2.24.24.23.6-.11s.51-.39,1.8-.43c1.06-.04,1.49-.01,1.69.14.24.17.33.16.77-.13.29-.19.76-.37,1.04-.41.73-.13,1.37-.93,1.9-2.36.6-1.66.99-2.07,2.26-2.46.7-.2,1.76-.74,3.32-1.7,3.1-1.89,2.82-1.77,3.98-1.66,1.02.1,3.93-.23,4.66-.51.2-.07,1.22-.43,2.23-.79,1.03-.36,2.24-.84,2.72-1.09,1.76-.89,2.26-.97,6.15-1.09,1.97-.06,3.69-.16,3.82-.21.41-.19,1.74.19,2.49.69.39.26,1.14.77,1.7,1.16,1.03.7,1.37.76,2.43.43.21-.06.57.1,1.22.53.89.59.97.61,1.97.6h1.04s-.47.47-.47.47l-.47.5.74-.29c.41-.16.77-.24.82-.2.06.04.09.36.09.7v.61h.54c.36,0,.64.1.79.26.33.36.31.4-.19.59-.36.11-.43.23-.43.59,0,.26.09.47.21.51.14.06.19.19.14.36-.06.16.04.44.23.7.3.39.4.43,1.14.43.46,0,.87.07.92.16.06.09.13.54.19,1.03.07.82.13.96.76,1.63.71.79,1.06,1.6,1.22,2.83.07.59.06.69-.1.53-.3-.27-.49-.2-.66.27-.16.41-.16.44.14.36.27-.06.4.09.93,1.06.34.63.64,1.14.67,1.14s.27-.13.56-.29l.49-.3.1.3c.1.31.43.39.54.11.03-.1.17-.8.31-1.56l.26-1.37,1.09-.86c.6-.47,1.7-1.19,2.45-1.59l1.36-.73.93-1.57c.92-1.56.94-1.57,1.37-1.5.4.07.47.03.6-.33.1-.26.16-.31.16-.14.01.14.11.46.24.7.23.43.23.44-.21.79-.36.29-.44.46-.44.9,0,.79-.2,1.22-.93,2.06-.43.49-.73,1-.89,1.52-.11.43-.34,1.03-.49,1.32-.34.66-.34.67.01.59.2-.06.27-.01.23.11-.04.11-.14.57-.23,1.02l-.16.8-.74-.07c-.6-.06-.79-.03-.99.19-.29.33-.86,1.63-.71,1.63.06,0,.6-.1,1.22-.21s1.4-.21,1.74-.21q.6,0,.97-.83c.2-.44.6-1.49.9-2.3l.56-1.49.53,1.13c.63,1.34.86,2.46.69,3.35-.07.36-.13.69-.14.74,0,.21-.92,1.14-1.3,1.34-.23.11-.41.3-.41.41,0,.37.93.47,2.4.29l.9-.11.76.79c1.26,1.3,2.26,3.25,2.43,4.73.07.63.04.73-.34,1.13-.43.41-.43.46-.3,1.2.17.9.43,1.43.93,1.93.21.21.34.47.3.57-.03.11.2.64.54,1.2.5.84.71,1.06,1.32,1.33,1.9.87,1.99.94,2.36,1.66.2.39.46.74.56.77s.33-.11.51-.34l.31-.4.7.27c1.37.5,2.66,1.24,3.82,2.14,1.29,1.03,1.89,1.36,2.45,1.36.2,0,1.12-.39,2.02-.86s1.77-.86,1.92-.86c.44,0,.99.3,1.24.69.23.34.53.37,1.24.1.2-.09.24-.03.21.23-.03.27.1.41.63.7.9.49,1.36.94,1.57,1.53.17.49.26.51.84.26.19-.07.29.03.41.43.1.29.14.67.1.87-.06.31-.01.34.56.34h.63v-.79c0-.69.04-.79.29-.79.54,0,1.8-.6,3.22-1.54,2.75-1.82,3.98-2.03,7.22-1.26,1.84.44,2.14.41,3.39-.2.79-.4,1.03-.64,1.24-1.33.04-.14.14-.23.21-.19s.16-.36.19-.89c.07-1.14.74-2.76,1.47-3.46.29-.29.44-.54.4-.7-.17-.67.71-2.42,1.9-3.73.3-.33.92-.79,1.37-1.02.76-.39.83-.46.83-.89,0-.24.27-1.09.6-1.87.54-1.27.67-1.44,1.34-1.93.56-.39.89-.76,1.27-1.47.3-.57,1.1-1.59,1.96-2.5,1.36-1.47,1.5-1.57,2.57-1.97.63-.24,1.24-.57,1.37-.74s.4-.33.6-.36c.3-.03.4-.19.66-.97.23-.67.61-1.32,1.49-2.43,1.4-1.8,2.19-3.29,2.43-4.65.1-.59.37-1.33.63-1.79.73-1.26,1.49-2.92,2.03-4.42.27-.76.69-1.62.92-1.92,1.32-1.64,1.26-1.53,1.49-3.07.19-1.3.19-1.54-.01-2.1-.2-.61-.2-.67.23-1.82.43-1.19.86-3.46.69-3.63-.23-.23-.53.34-.69,1.32-.1.59-.23,1.06-.29,1.06-.19,0-.41-.4-.34-.6.06-.14-.01-.24-.2-.3-.2-.04-.3-.19-.3-.41,0-.17-.04-.49-.1-.67-.07-.3-.04-.33.23-.26.19.04.34.01.37-.09s.11-1.02.2-2.04c.1-1.49.21-2.04.51-2.79.29-.67.4-1.19.41-1.93.01-.99.04-1.06.84-2.27.79-1.17.84-1.32.92-2.3.04-.59.04-1.06-.03-1.06-.06,0-.29.11-.5.24-.34.2-.43.34-.46.89-.04.56-.11.7-.54.99-.4.26-.49.41-.46.7.06.37.03.36-.69-.24-.82-.69-.86-.76-1.27-2.22-.23-.8-.41-1.13-.92-1.62-.39-.37-.87-1.13-1.32-2.03-.69-1.39-.71-1.43-1.44-1.73s-.74-.31-.83-1.04c-.04-.4-.09-.97-.09-1.26,0-.46-.07-.57-.44-.77-.36-.19-.53-.2-.82-.07-.19.1-.39.13-.44.09-.21-.23-.26-2.04-.06-2.86.33-1.3.29-2.17-.14-3.02-.5-.97-.7-1.13-1.02-.79-.24.26-.24.29.03.43.2.11.26.24.2.53l-.07.39-.44-.49c-.23-.26-.54-.47-.67-.44-.17.03-.3-.11-.41-.5-.27-.83-.54-1.19-.93-1.19-.3,0-.34.07-.44.8-.09.77-.1.79-.47.7q-.47-.11-.86-1.06c-.3-.71-.31-.8-.1-.94.21-.16.2-.23-.07-.84-.3-.67-.29-.77.09-1.69.07-.17-.01-.26-.31-.31-.39-.09-.4-.13-.41-.99-.01-1.14-.34-1.89-.96-2.24-.31-.19-.66-.6-.94-1.13-.24-.46-.44-.87-.44-.92,0-.21.53-.14.74.11q.24.29.26-.14v-.43s.36.39.36.39c.61.71,1.17.41.63-.33-.26-.37-.29-.5-.14-.79.21-.49.2-.63-.09-.63-.13,0-.34-.1-.47-.21-.2-.19-.23-.16-.17.33l.06.53-.69-.64c-.39-.36-.86-.79-1.03-.93l-.34-.29-.33.41-.33.41-.09-.43c-.06-.24-.29-.61-.51-.83-.33-.31-.5-.39-.84-.31-.41.09-.43.07-.47-.51-.03-.46-.11-.61-.31-.64-.14-.03-.33.04-.4.17-.19.33-.4.29-.4-.1,0-.41-.6-1.69-.92-1.94-.2-.17-.27-.17-.37-.03-.17.29-.69.06-.94-.43-.2-.4-.23-.41-.51-.21-.27.19-.34.19-.71,0-.4-.21-.41-.23-.19-.49s.21-.27-.31-.37c-1.67-.3-1.92-.83-1.69-3.62l.11-1.2-.74.09-.76.09.29-.47c.16-.26.39-.63.51-.83.16-.24.19-.4.1-.47-.09-.04-.16-.54-.14-1.12,0-.7-.11-1.42-.36-2.24-.44-1.47-.44-1.43-.09-1.43.49,0,.31-.34-.37-.7-.74-.4-1.22-.92-1.72-1.9-.36-.7-.36-.71-.07-.79q.37-.1-.07-2.52c-.2-1.1-.33-2.17-.27-2.37.04-.2.14-.7.21-1.09.06-.4.16-.82.2-.93.06-.16-.41-.56-1.64-1.43-.99-.69-1.79-1.34-1.86-1.54-.07-.19-.13-.59-.13-.89s-.06-.59-.11-.63c-.07-.04-.36.09-.64.29l-.53.36v-.37c0-.49-.2-.44-.64.13-.77,1.02-1.46,1.16-1.84.4-.5-.99-.86-2.69-.89-4.25-.01-.87-.04-1.67-.07-1.79-.01-.11.01-.56.07-.97l.1-.74h-1.02l.3-.6.31-.61-.82-.71c-.46-.41-.8-.84-.8-1,0-.34.51-1.22.71-1.22.37,0,.07-.26-.63-.56-.66-.27-.82-.41-1-.89-.13-.31-.23-.96-.23-1.46,0-1.16-.21-1.92-.73-2.56-.36-.46-.4-.59-.27-.83.09-.17.13-.44.1-.61-.04-.2-.07-.23-.09-.07ZM134.47,137.85c.11.82-.07,1.14-.8,1.4q-.4.14-.5-.57c-.07-.5-.16-.7-.33-.7-.2-.01,1.2-.83,1.44-.86.04,0,.13.33.19.73Z"/>
      <path class="cls-1" d="M78.49,1.32c0,.11-.2.59-.44,1.04-.33.61-.41.92-.34,1.24.09.39.07.41-.19.33-.23-.07-.34.01-.51.33l-.21.43,1.6.1c.89.06,2.02.14,2.53.2.9.11.96.1,2-.47.96-.53,1.07-.64,1.07-1.02.01-.24.06-.5.11-.59.16-.27-.17-1-.54-1.2-.29-.16-.54-.11-1.87.34-1.73.57-1.49.61-2.66-.47-.37-.34-.54-.43-.54-.27Z"/>
      <path class="cls-1" d="M108.73,2.37c-.46.61-1.2,1.44-1.63,1.83-.87.79-.69.79.5,0,.92-.61,1.7-1.49,1.93-2.16.29-.9.04-.8-.8.33Z"/>
      <path class="cls-1" d="M108.12,14.54c-.5.5-.99.53-1.1.04l-.1-.36-.34.4c-.49.56-.43.67.3.67h.66l-.1.53c-.06.3-.19.66-.31.79-.26.31-.29.3,1.66.66l1.46.27v-.41c0-.37-.04-.4-.57-.4-.33,0-.57-.07-.57-.16s.19-.54.43-1c.44-.89.44-.94-.01-.7-.24.14-.27.1-.27-.29s-.06-.43-.36-.43c-.21,0-.54.17-.76.39Z"/>
      <path class="cls-1" d="M121.46,31.63c-.19.27-.19.34-.03.37.33.07.96-.24.96-.47,0-.34-.66-.26-.93.1Z"/>
      <path class="cls-1" d="M154.7,41.84c0,.44.37.92.7.92.11,0,.07-.19-.14-.54-.47-.79-.56-.84-.56-.37Z"/>
      <path class="cls-1" d="M8.8,50.9c-.26.66-.29.94-.09,1.07.17.1.57-.67.57-1.13,0-.59-.24-.56-.49.06Z"/>
      <path class="cls-1" d="M165.98,53.68c.23.27.63.3.56.04-.04-.09-.21-.2-.4-.21-.3-.04-.31-.03-.16.17Z"/>
      <path class="cls-1" d="M.46,73.28c0,.54.03.76.06.46.03-.29.03-.74,0-1-.03-.24-.06-.01-.06.54Z"/>
      <path class="cls-1" d="M43.46,114.12c.1.16.2.27.23.23.1-.1-.1-.53-.24-.53-.09,0-.07.13.01.3Z"/>
      <path class="cls-1" d="M103.41,122.17c-1.23.3-1.42.61-.94,1.59l.24.5h1.67c1.62,0,1.67-.01,1.9-.36.21-.33.33-.36,1.23-.36s1-.03,1-.27c0-.39-.2-.47-.61-.29-.5.23-1.24-.17-1.24-.66,0-.36-.01-.36-1.24-.34-.7,0-1.59.09-2,.19Z"/>
      <path class="cls-1" d="M128.89,144.97c-.43.09-.43.1-.56,1.34-.07.69-.1,1.29-.04,1.33.13.14.82-.4,1.04-.82.21-.41.29-1.79.1-1.89-.07-.03-.3-.01-.54.03Z"/>
      <path class="cls-1" d="M141.83,146.53c0,.17.27.37.37.27.03-.03-.03-.14-.16-.24-.13-.11-.21-.11-.21-.03Z"/>
      <path class="cls-1" d="M143.52,148.63c-.31.41-.31.6-.04,1.26.26.61.27.87.06.74-.16-.1-.7.31-.7.53,0,.16.54.14.64-.03.06-.1.19-.1.37,0,.37.2.34.36-.1.54-.37.19-.37.24-.04,1.13.11.3.14.3.84.11.41-.11.79-.23.83-.27s0-.43-.1-.86c-.14-.61-.14-.92,0-1.36.17-.56.16-.6-.43-1.37-.66-.86-.96-.96-1.33-.43Z"/>
      <path class="cls-1" d="M130.97,150.16c-.49,1.06-.86,2.4-.86,3.12s.37,2.17.86,3.32l.43,1.02-.23,1.63-.21,1.64.73,1.9c.54,1.39.8,1.89.94,1.83.16-.06.2.1.2.66v.73h.5c.29,0,.87.19,1.33.41,1.19.6,1.42.64,1.52.34.06-.14.19-.37.29-.51.2-.26.23-.26.57-.03.3.2.41.21.59.07.11-.1.21-.3.21-.44,0-.17.14-.33.36-.41.3-.11.34-.2.27-.56-.09-.37-.04-.43.37-.51.24-.06.47-.07.5-.04.03.01,0,.31-.07.66-.11.67-.13.66.6.86.6.16.63.13.76-.93.06-.39.03-.86-.06-1.09-.14-.36-.13-.39.2-.39.36,0,.93-.44.93-.73,0-.09-.13-.11-.3-.06-.26.09-.29.06-.2-.24.26-.8.94-1.83,1.23-1.83.07,0,.03.26-.09.56-.17.5-.17.56.01.49.31-.11.59-.73.7-1.54.06-.4.29-1.56.53-2.57.33-1.43.41-2.07.36-2.83-.03-.53-.09-1-.13-1.03-.03-.03-.29.01-.57.1-.44.13-.59.11-1.03-.14l-.5-.3-.41.53c-.41.5-.44.51-.83.31-.26-.14-.67-.2-1.26-.16-2.4.14-2.55.13-3.46-.47-.46-.3-1.27-.9-1.79-1.32-.76-.61-1.06-.77-1.47-.77-.5,0-.51-.01-.51-.5,0-.56-.03-.57-.46-.34-.33.19-.29.07.27-.67.41-.56.41-.63-.04-.63-.3,0-.43.14-.77.89Z"/>
    </g>
  </g>
</svg>