<?xml version="1.0" encoding="UTF-8"?>
<svg id="Calque_2" data-name="Calque 2" xmlns="http://www.w3.org/2000/svg" viewBox="0 0 424 301.11">
  <defs>
    <style>
      .cls-1 {
        stroke-width: 0px;
      }
    </style>
  </defs>
  <g id="Calque_1-2" data-name="Calque 1">
    <g>
      <path class="cls-1" d="M147.62.23c-1.07.47-.52,1.39.82,1.39.67,0,1.19-.89.73-1.32-.4-.38-.82-.4-1.56-.07Z"/>
      <path class="cls-1" d="M148.72,2.68c-.46.26-.52.4-.24.75.49.61,1.77.56,1.89-.09.12-.71-.89-1.11-1.65-.66Z"/>
      <path class="cls-1" d="M150.22,6.49c-.61.16-.46,1.2.18,1.48.34.12.67.24.73.24.27,0,.82-1.46.64-1.67-.18-.24-.95-.26-1.56-.05Z"/>
      <path class="cls-1" d="M249,5.42c-.82.14-1.04.33-1.98,1.91-.15.24-.67.35-1.5.38-.98,0-1.5.16-2.26.73-1.4,1.01-2.08,1.25-4.36,1.41-1.62.12-2.08.24-2.44.68-.52.61-1.89,1.04-3.33,1.04-2.17,0-3.6,1.62-3.66,4.14-.06,2.05-.21,2.26-1.53,2.07-.89-.12-1.1-.05-1.56.52-.31.35-.55,1.01-.58,1.48,0,.78-.09.85-1.22,1.08-1.07.24-1.22.38-1.31,1.04-.09.73-.18.78-.98.66-.79-.14-.85-.07-1.04.75-.12.64-.52,1.13-1.25,1.65-.61.4-1.19.73-1.31.73s-.4.09-.64.21c-.37.19-.37.28.06.61.31.21.52.75.52,1.25s.24,1.04.64,1.36c.58.47.64.82.67,4,.06,3.46.06,3.48-.76,4.28-.61.59-.85,1.08-.85,1.79,0,.52-.21,1.86-.43,2.97-.27,1.22-.34,2.38-.21,2.97.34,1.32-.03,1.74-1.47,1.74-2.14,0-3.39,1.32-3.39,3.58,0,.68-.24,1.06-1.07,1.72-.95.71-1.28.82-2.56.82-.82,0-1.62.14-1.8.28-.15.16-.46.99-.64,1.84-.43,1.93-1.07,2.59-2.93,3.04-1.77.45-2.69,1.34-3.17,3.11s-.37,3.46.4,5.04c.61,1.29.76,1.44,1.86,1.69.67.16,1.74.35,2.38.42,1.74.21,1.4.87-1.31,2.64-1.71,1.08-2.41,1.72-2.78,2.47-.27.56-.76,1.39-1.13,1.84-.85,1.06-.85,1.36.09,2.02.58.42.7.68.58,1.22-.09.38-.03,1.06.12,1.55.21.59.21,1.08,0,1.58-.58,1.32,1.1,2.38,4.55,2.8,2.05.26,2.47.54,2.87,1.88.46,1.6,2.32,4.31,3.91,5.67.79.71,1.65,1.69,1.86,2.21s.85,1.34,1.4,1.81c1.25,1.08,1.8,1.93,2.08,3.13.37,1.58,3.57,6.71,5.43,8.73.98,1.04,2.17,2.61,2.72,3.53.52.89,1.19,2.05,1.53,2.59.31.52.58,1.32.58,1.76,0,.92.37,1.39,2.78,3.65,3.14,2.97,8.12,6.09,9.98,6.33,1.65.21,2.69.56,3.33,1.11.31.26,1.65.89,2.99,1.39s2.99,1.13,3.66,1.41c.67.26,1.43.56,1.68.66.27.12.49.61.55,1.25.12,1.36.82,1.88,3.42,2.54,2.14.56,2.44.75,2.44,1.62,0,.31.43,1.53.95,2.71.76,1.67,1.04,2.78,1.22,4.97.15,1.55.34,3.2.43,3.65.15.56-.12,1.74-.76,3.65-1.13,3.25-1.22,4.31-.49,5.77.4.78.55,1.72.55,3.46,0,2.07.09,2.49.61,3.04.58.56.61.71.27,1.81-.31.99-.31,1.88.06,4.75.4,2.92.46,5.08.24,7.34-.03.16-.43.59-.95.94-1.13.75-1.16,1.46-.12,2.4.73.68.76.85.58,2.21-.12.87-.49,1.74-.85,2.14-.61.68-.61.71-.09,2.66.31,1.11.89,2.68,1.28,3.51.4.85.73,1.74.73,2.05,0,.28.34,1.08.76,1.76.98,1.62.95,2.05-.18,3.72-.95,1.36-.98,1.41-.7,3.51.46,3.91.15,9.81-.61,11.39-.64,1.34-.61,1.95.12,2.68,1.22,1.2,1.83,2.56,1.83,4.21,0,.99.18,1.91.52,2.42.49.8.49.85-.15,1.53-.79.8-.82,1.13-.24,1.76.21.26.49.99.58,1.6.21,1.25,2.2,4.38,2.9,4.57.24.09.82-.05,1.31-.26.76-.35,1.01-.35,1.71-.09.46.16.89.52.95.78s.58.8,1.16,1.22c1.04.75,1.31,1.51.76,2.16-.15.16-.12.59.06.96.24.49.18.87-.21,1.65-.52,1.04-.31,1.65.61,1.65.64,0,.73.33.37,1.25-.31.75-.27.94.21,1.34.31.26.73.47.95.47.7,0,1.65,1.01,1.65,1.74,0,.4-.34,1.29-.76,1.98-.85,1.44-.92,2.02-.31,2.87.27.38.43,1.32.46,2.73,0,1.81-.09,2.24-.61,2.75-.34.33-.61.68-.61.82,0,.12.27.4.61.64s.61.54.61.68c.03.64.64.94,1.98.96.82.02,1.62.21,1.89.42.43.33.4.4-.46.73-.95.38-1.1.66-1.43,2.54-.21,1.04-.15,1.15.61,1.65,2.14,1.36,2.29,1.55,2.29,2.66,0,1.01.55,1.76,1.47,2.02.15.05.61.73,1.01,1.51.61,1.15.95,1.48,1.86,1.81.61.24,1.34.73,1.65,1.11s.85.82,1.25.99c.49.21.89.71,1.19,1.55.27.71.76,1.53,1.13,1.86l.67.61,1.65-.66c1.53-.61,1.71-.64,3.48-.4,1.04.14,2.41.42,3.02.64.98.33,1.16.49,1.16,1.08,0,1.46-2.53,1.55-3.6.14-1.01-1.29-3.11-1.27-3.11.07,0,.75.7,1.29,1.92,1.53,1.13.21,1.04.61-.12.61-1.22,0-1.01.42.43.85.61.19,1.65.49,2.29.68,1.4.4,2.87.45,3.36.07.21-.16.37-.66.37-1.13,0-.61.4-1.32,1.37-2.47,2.5-3.04,2.08-2.78,4.61-2.61,2.23.16,2.26.16,2.26-.4,0-.75-.92-1.34-2.08-1.34-.82,0-.98-.09-.98-.54,0-.31-.34-.8-.73-1.08-1.04-.75-1.71-1.93-1.71-2.94,0-1.13.98-2.56,1.95-2.92.85-.31.89-.4.79-3.34l-.06-1.79,1.56-1.11c.85-.61,1.89-1.22,2.32-1.39,1.62-.56,2.05-2.45.89-3.91-.37-.42-.7-.52-2.08-.52s-1.86-.14-2.87-.68c-.67-.38-1.31-.82-1.43-.94-.09-.14-.73-.47-1.37-.73-1.47-.59-2.14-1.51-2.14-2.97,0-.92.15-1.2,1.01-1.86.67-.52,1.43-.85,2.23-.94.64-.07,1.4-.24,1.65-.33.52-.21.98-1.76.95-3.2,0-.52-.03-1.69-.06-2.59v-1.84c.03-.09.37-.16.79-.16.98,0,.98-.42-.03-1.15-.95-.71-.85-1.29.27-1.39.58-.05.82-.21.82-.52,0-.56-.52-.8-1.56-.75-.46.02-1.19-.05-1.62-.19-.7-.21-.79-.35-.79-1.46,0-1.22-.03-1.25-1.47-1.95-1.62-.8-2.01-1.65-1.1-2.35.73-.54,2.93-.35,4.21.38.82.49,1.37.56,3.91.64,2.66.07,2.99.05,3.57-.4.7-.54.89-2.05.31-2.19-.18-.05-.49-.99-.67-2.12-.27-1.76-.24-2.16.21-3.11.64-1.29,1.34-1.51,3.36-.99,2.14.56,1.92.59,8.27-.94,1.34-.31,2.78-.56,3.14-.56,1.62,0,2.5-.73,4.4-3.65,2.29-3.55,2.29-3.51-.98-6.8-.55-.56-.92-1.2-.92-1.65,0-.4-.24-1.27-.55-1.91l-.55-1.18-1.43.07c-1.86.09-2.99-.4-3.85-1.65-.58-.82-.64-1.13-.37-1.67.43-.85.95-.8,2.26.16.82.59,1.43.8,2.63.92,1.65.14,3.05.64,4.4,1.48,1.07.71,1.65.71,3.42.05l1.4-.52,1.28.52c1.62.66,1.77.66,2.69-.09.4-.33,1.16-.78,1.65-.96,1.8-.71,2.59-1.48,2.59-2.56,0-.87.18-1.15,1.19-1.91,1.5-1.18,1.95-1.86,2.93-4.57.92-2.52,1.1-2.73,2.41-2.99.64-.12,1.1-.45,1.4-.92.24-.4.82-.96,1.28-1.25.55-.31.89-.8,1.01-1.36.73-3.53,1.68-5.37,4.4-8.5,2.93-3.39,2.87-3.25,2.63-6.12-.18-2-.37-2.68-.95-3.46-.92-1.2-.98-2.82-.15-4.05.61-.92,2.2-2.14,4.61-3.55.76-.45,1.74-1.2,2.2-1.69,1.07-1.13,2.23-1.6,4.64-1.84,1.83-.16,2.08-.26,3.97-1.6,3.02-2.12,3.6-2.31,8.06-2.35,2.08,0,4.06-.09,4.43-.16s1.07-.61,1.53-1.2c.49-.59,1.65-1.58,2.56-2.19l1.68-1.13.09-1.76c.06-.96.12-1.88.12-2.02.03-.16.49-.45,1.04-.61,1.43-.47,1.89-1.01,1.8-2.24-.06-1.2.18-1.51,1.86-2.33,1.56-.75,1.77-1.32,1.25-3.04-.21-.75-.43-2-.43-2.75,0-1.25.09-1.44,1.1-2.19.67-.54,1.01-.99.89-1.22-.82-1.69-.82-3.29.06-3.86.82-.52,1.01-1.29.55-2.47-.21-.61-.52-1.98-.61-3.01-.12-1.04-.43-2.31-.64-2.82-.55-1.22-.52-1.62.06-2.52.43-.66.43-.8,0-1.69-.27-.52-.4-1.22-.27-1.55.24-.85,1.56-1.84,2.81-2.14,1.22-.31,2.17-.85,2.17-1.27,0-.14.4-.68.89-1.2.49-.49.98-1.15,1.07-1.44.12-.31.82-1.55,1.59-2.78,1.16-1.93,1.47-2.24,2.08-2.24s1.07-.38,2.2-1.67c.79-.94,2.29-2.42,3.3-3.34l1.83-1.65.21-2.38c.12-1.48.43-2.89.85-3.77.82-1.79.82-1.98-.27-4.38-.49-1.11-.92-2.45-.92-3.01,0-.89-.18-1.18-1.5-2.24l-1.53-1.22-2.99-.07c-2.9-.07-3.02-.09-3.82-.8-.46-.4-1.13-.75-1.53-.78s-.79-.07-.89-.09c-.09,0-.98-.85-1.95-1.86-1.71-1.76-4.67-3.77-6.78-4.61-.55-.21-1.22-.71-1.47-1.08-.58-.87-1.5-.92-4.58-.24-1.16.26-2.66.47-3.33.47-1.19,0-5.92-1.11-7.69-1.81-1.22-.49-3.05-.31-5.1.49-1.65.68-2.14.64-1.31-.07.98-.82.7-1.74-.89-3.15-.85-.78-1.8-1.39-2.29-1.46-.46-.07-1.19-.45-1.65-.85-.64-.56-1.04-.68-2.14-.68-1.04,0-1.59-.16-2.32-.64-.92-.59-1.86-.8-5.1-1.15-2.17-.26-2.72-.02-3.69,1.6-1.1,1.74-4.21,3.95-5.62,3.95-.73,0-.85-.09-.85-.66,0-.82.49-1.22,1.53-1.22,1.13,0,1.89-.49,2.69-1.74.37-.59.98-1.58,1.34-2.16.92-1.44.58-1.81-1.77-2-.98-.09-3.33-.16-5.22-.19-2.72-.02-3.51.05-3.88.35-.52.38-.52.45-.61,2.8q-.03,1.41-.98,1.48c-.55.05-1.5.42-2.2.89-.98.64-1.5.8-2.53.8h-1.31l2.35-1.74c1.28-.96,2.35-1.91,2.35-2.14,0-.21.34-.94.76-1.62.55-.89,1.1-1.36,1.95-1.74s1.31-.78,1.56-1.36c.21-.47.76-1.18,1.22-1.58,1.13-1.04,1.89-2.21,1.77-2.82-.06-.4-.52-.61-2.01-.99-1.07-.28-2.05-.66-2.2-.82-.12-.19-.31-1.18-.4-2.19-.15-1.53-.31-1.98-1.04-2.71-.7-.73-.89-1.18-1.01-2.61l-.15-1.76-1.01-.19c-.89-.19-1.16-.42-1.98-1.79-1.1-1.84-1.28-1.98-2.47-1.81-.64.09-1.1-.05-1.77-.47-.58-.38-1.28-.59-1.92-.59-.79,0-1.19-.16-1.71-.73-.95-1.04-3.05-1.72-4.67-1.53-.82.09-1.74.02-2.59-.21-1.59-.42-3.51-.45-5.83-.07-2.17.33-3.3.07-4.18-1.01-.37-.45-1.4-1.36-2.29-2.02-1.28-.99-1.83-1.25-2.59-1.25-1.37,0-2.23-.71-2.23-1.84,0-1.62-2.63-4.09-5.62-5.27-1.04-.42-1.34-.45-2.41-.19-2.38.54-4.03-.64-2.56-1.84,2.35-1.98.21-3.81-4.49-3.81-2.41,0-2.63-.12-2.63-1.29,0-.75.76-1.29,1.83-1.29,1.47,0,1.47-.49,0-1.25-1.04-.56-2.38-.49-3.94.19-.85.38-1.8.59-2.66.59-.79,0-1.74.19-2.32.47-.55.26-1.25.47-1.56.47s-.82.35-1.16.8-.79.85-1.01.92c-.49.14-2.44-.52-4.82-1.62l-1.8-.85-3.27.14c-1.8.09-3.82.21-4.52.28-1.53.16-2.26-.31-2.26-1.44,0-.49-.27-1.04-.7-1.44-.67-.59-.92-.64-2.99-.66l-2.26-.02.09-1.22c.12-1.34-.12-1.55-2.11-1.84-.79-.12-1.19-.05-1.5.24-.34.33-.24.49.76,1.32,1.1.85,1.16.94.7,1.29-.24.21-1.28.45-2.29.54-2.05.19-3.39.8-4.36,2.02-.89,1.13-1.68,1.11-1.43-.02.15-.64.03-.94-.43-1.29-.31-.24-.58-.59-.58-.75,0-.4.85-1.01,1.71-1.2,1.13-.26,2.26-1.25,2.26-1.98,0-1.13-.67-1.39-2.9-1.01Z"/>
      <path class="cls-1" d="M146.77,17.71c0,.49.64.73.92.35.15-.16.18-.4.12-.49-.27-.33-1.04-.21-1.04.14Z"/>
      <path class="cls-1" d="M148.2,22.84c-.79.21-.85.33-.7,1.04.18.64.09.82-.43,1.04s-.58.33-.27.61c.55.52,2.23.33,2.35-.26.09-.26.4-.66.7-.89.7-.52.76-1.48.09-1.67-.58-.16-.67-.16-1.74.14Z"/>
      <path class="cls-1" d="M.44,68.12c-.61.47-.61.45.18,1.55.61.85.64.96.18,1.15-.24.12-.58.47-.67.8-.58,1.81,2.26,2.12,3.45.4.58-.82.15-2.73-.79-3.58-.85-.78-1.65-.89-2.35-.33Z"/>
      <path class="cls-1" d="M5.75,71.16c-.34.33-.31.45.21.87.4.31.85.42,1.16.33.64-.19.49-.82-.34-1.25-.55-.28-.7-.26-1.04.05Z"/>
      <path class="cls-1" d="M10.2,71.65c-.31.61-.21.8.37.8.64,0,1.28-.42,1.28-.87s-1.43-.38-1.65.07Z"/>
      <path class="cls-1" d="M115.94,244.7c-.76.59-.76.73.03,1.95.58.85.61,1.13.37,2.21-.15.68-.21,1.34-.12,1.46s.95.26,1.86.31l1.68.07.09-1.46c.06-.99-.06-1.69-.4-2.16-.24-.4-.46-.92-.46-1.2,0-.56-1.28-1.65-1.98-1.65-.24,0-.73.21-1.07.47Z"/>
      <path class="cls-1" d="M160.41,245.34c-.09.09-.15.64-.15,1.2-.03.87.09,1.04.85,1.34.49.19,1.22.35,1.68.35.64,0,.76-.12.76-.68,0-.38-.18-.73-.37-.8-.21-.05-.4-.4-.4-.78,0-.61-.12-.68-1.13-.75-.61-.05-1.16.02-1.25.12Z"/>
      <path class="cls-1" d="M123.94,255.27c-.61.28.09,1.48.79,1.39.73-.12.85-1.04.15-1.34-.34-.12-.76-.14-.95-.05Z"/>
      <path class="cls-1" d="M120.21,256.99c-1.16,1.48-.58,2.14,1.74,2.02,1.31-.07,1.47-.12,1.56-.68.12-.75-1.25-2.09-2.11-2.09-.34,0-.85.33-1.19.75Z"/>
      <path class="cls-1" d="M121.28,261.74c-.24.28-1.16.82-2.01,1.18-.82.35-1.47.78-1.4.92.06.16.85.31,1.92.33.98.02,2.44.09,3.21.19,1.1.12,1.5.07,1.92-.26.7-.54.43-1.44-.76-2.28-1.1-.8-2.23-.82-2.87-.07Z"/>
      <path class="cls-1" d="M121.83,270.02c-.55.19-1.01.38-1.01.42s.64.38,1.43.71c1.62.71,2.01.59,1.86-.59-.12-.94-.73-1.08-2.29-.54Z"/>
      <path class="cls-1" d="M122.35,273.13c-.52.14-.34.66.49,1.25.64.45.73.71.58,1.32-.15.68-.09.8.61,1.01.85.26,2.29.33,2.29.12,0-.07-.18-.38-.43-.66-.49-.59-.18-1.51.58-1.72.55-.16.61-.94.09-1.2-.4-.16-3.6-.26-4.21-.12Z"/>
      <path class="cls-1" d="M193.17,283.46c-1.04.14-1.43.49-.82.68.73.21.64.59-.31,1.18l-.82.49.73.31c.64.26.79.21,2.17-.96.79-.71,1.43-1.39,1.37-1.51-.09-.26-1.19-.35-2.32-.19Z"/>
      <path class="cls-1" d="M196.92,284.29c-1.19.99-1.04,1.84.34,1.84,1.01,0,2.01-.49,2.01-.96,0-.12.31-.21.7-.21.73,0,2.01-.59,1.74-.78-.09-.07-1.04-.19-2.14-.28-1.83-.14-2.05-.12-2.66.4Z"/>
      <path class="cls-1" d="M130.41,284.8c-.24.52-.03,1.39.4,1.51.46.09,1.1-1.06.89-1.53-.21-.4-1.07-.4-1.28.02Z"/>
      <path class="cls-1" d="M156.05,288.9c-.52.26-1.04,1.13-1.04,1.79,0,.85,1.16,1.41,2.26,1.08.46-.12,1.04-.24,1.28-.24.7,0,.49.87-.37,1.27-.55.31-.73.56-.67,1.04.09.64.27.71,2.78,1.11.49.07.82.26.73.42-.18.42-2.5.47-3.63.07-.55-.19-2.08-.4-3.36-.47-2.11-.14-2.35-.12-2.5.28-.31.73.12,1.22,1.04,1.22.46,0,1.43.16,2.17.38.73.19,2.56.38,4.03.42,1.53.05,2.84.19,3.02.33.43.33,1.53.38,1.95.07.4-.33,3.97-.82,5.77-.82.92.02,1.95.19,2.59.47.79.31,1.71.42,3.45.45,2.5,0,3.05-.21,2.9-1.18-.09-.38-.27-.45-1.13-.4-.58.02-1.25-.09-1.53-.26-.27-.19-1.16-.4-1.95-.49-2.23-.21-5.77-1.58-7.63-2.94-.92-.66-1.92-1.2-2.26-1.2-.82,0-1.4-.56-1.16-1.15.12-.31-.03-.64-.43-.94-.55-.42-1.01-.49-3.3-.49-1.5,0-2.84.09-3.02.19Z"/>
      <path class="cls-1" d="M135.08,289.11c-.27.33.61,1.2,1.59,1.58.89.38,4.49.26,4.79-.14.09-.09-.64-.47-1.59-.82-1.86-.66-4.49-.99-4.79-.61Z"/>
      <path class="cls-1" d="M153.06,291.27c-.64.54-.43,1.34.43,1.55.82.19,1.22-.05,1.22-.71,0-1.29-.7-1.65-1.65-.85Z"/>
      <path class="cls-1" d="M141.89,292.14c-.61.54.06,1.46,1.13,1.55.55.05.85.21.85.47,0,.61.61.96,1.34.78.98-.24.85-1.25-.18-1.55-.46-.12-1.01-.45-1.22-.68-.67-.75-1.5-.99-1.92-.56Z"/>
      <path class="cls-1" d="M166.61,297.7c-.58.12-1.25.35-1.47.49-.21.12-.89.31-1.47.38-1.04.14-1.04.16-.58.66.31.35.79.54,1.34.54.49,0,1.37.16,1.95.35.61.19,1.47.35,1.86.35.7,0,.76-.07.61-.68l-.18-.68,1.62.05c1.5.02,1.65-.02,1.74-.52.18-.92-.43-1.22-2.5-1.2-1.01,0-2.35.12-2.93.26Z"/>
      <path class="cls-1" d="M174.09,299.53c-1.86.31-2.9.66-2.9,1.04,0,.52.89.64,3.42.47,2.47-.16,2.96-.42,2.38-1.29-.34-.47-.92-.52-2.9-.21Z"/>
    </g>
  </g>
</svg>